<svg preserveAspectRatio="none" width="100%" height="100%" overflow="visible" style="display: block;" viewBox="0 0 347 145.846" fill="none" xmlns="http://www.w3.org/2000/svg">
<g id="Group">
<path id="Vector" d="M21.9556 44.4642L17.4543 32.7214H16.9702V44.4642H0V2.7782H16.9702V13.199H17.3162L21.8176 2.7782H41.764L31.2362 22.5786L42.4601 44.4642H21.9556ZM43.8402 44.4642V13.199H59.7703V44.4642H43.8402ZM51.8057 11.8109C47.6504 11.8109 44.4622 9.30867 44.4622 5.90442C44.4622 2.50018 47.5804 0 51.8057 0C55.892 0 59.1463 2.50018 59.1463 5.90442C59.1463 9.23867 55.962 11.8109 51.8057 11.8109ZM74.7024 45.1583C66.3888 45.1583 61.8184 37.1697 61.8184 28.8321C61.8184 20.4935 66.3888 12.5049 74.7024 12.5049C79.8267 12.5049 83.359 15.2151 84.8131 19.3824V2.7782H100.743V44.4642H84.8131V38.2788C83.359 42.4501 79.8257 45.1583 74.7024 45.1583ZM82.1129 34.9465C84.1191 34.9465 85.4372 32.2363 85.4372 28.9701C85.4372 25.7059 84.1211 22.9277 82.1129 22.9277C80.1728 22.9277 78.4406 25.7739 78.4406 28.9701C78.4406 32.1663 80.1708 34.9465 82.1129 34.9465ZM112.384 44.4642L102.132 13.199H118.341L120.349 20.7025C121.389 24.5238 121.873 26.8169 122.635 33.6944H122.981C123.673 26.8169 124.227 24.4538 125.197 20.7025L127.206 13.199H143.412L133.233 44.4642H112.384ZM161.399 45.8543C149.625 45.8543 142.074 38.4198 142.074 28.5551C142.074 20.0784 148.309 11.8088 159.596 11.8088C168.74 11.8088 174.837 16.1182 174.837 27.235C171.994 29.5281 168.878 30.8482 164.723 30.8482C162.091 30.8482 159.32 30.2902 156.342 28.4841L155.788 29.6661C158.074 31.8193 161.399 32.8604 164.793 32.8604C168.67 32.8604 172.412 31.6103 174.835 29.6661V42.239C170.818 44.6022 165.969 45.8543 161.399 45.8543ZM160.637 23.6217C162.507 23.6217 163.199 22.5786 163.199 21.4665C163.199 20.0784 161.883 19.4544 160.429 19.4544C158.488 19.4544 156.826 20.7725 156.55 22.3716L156.48 22.7186C157.726 23.3427 159.666 23.6217 160.637 23.6217ZM178.109 44.4642V13.199H194.039V19.3844C195.493 15.2151 199.025 12.5049 204.151 12.5049C213.293 12.5049 216.272 19.1054 216.272 28.8321V44.4642H200.341V29.6661C200.341 25.2188 199.303 23.2747 197.017 23.2747C194.663 23.2747 194.039 25.4268 194.039 29.6661V44.4642H178.109ZM233.602 45.1583C227.299 45.1583 220.026 42.5881 220.026 30.6392V25.4268H216.98V14.7981C221.828 14.451 225.498 11.2528 225.914 5.5574H235.748V13.201H242.675V25.4268H235.956V26.7469C235.956 28.8331 236.58 30.3602 238.52 30.3602C239.836 30.3602 241.705 29.6661 242.813 27.443V43.0051C240.458 44.5342 237.204 45.1583 233.602 45.1583ZM255.986 45.1583C247.537 45.1583 244.559 39.9479 244.559 28.8321V13.199H260.489V28.6931C260.489 32.8624 261.181 34.3905 263.467 34.3905C265.822 34.3905 266.792 32.3043 266.792 27.999V13.199H282.72V44.4642H266.792V38.2788C265.337 42.4501 261.043 45.1583 255.986 45.1583ZM286.183 44.4642V13.199H302.113V20.7725C303.499 15.5621 306.615 12.5049 310.493 12.5049C311.808 12.5049 312.849 12.7139 313.887 12.9219V29.3871C311.67 27.79 309.939 26.7469 307.655 26.7469C304.399 26.7469 302.113 28.6231 302.113 36.6136V44.4642H286.183ZM333.562 45.8543C321.788 45.8543 314.239 38.4198 314.239 28.5551C314.239 20.0784 320.472 11.8088 331.763 11.8088C340.905 11.8088 347 16.1182 347 27.235C344.161 29.5281 341.043 30.8482 336.886 30.8482C334.256 30.8482 331.485 30.2902 328.507 28.4841L327.953 29.6661C330.239 31.8193 333.562 32.8604 336.956 32.8604C340.835 32.8604 344.575 31.6103 347 29.6661V42.239C342.983 44.6022 338.134 45.8543 333.562 45.8543ZM332.801 23.6217C334.67 23.6217 335.364 22.5786 335.364 21.4665C335.364 20.0784 334.048 19.4544 332.593 19.4544C330.655 19.4544 328.993 20.7725 328.715 22.3716L328.645 22.7186C329.893 23.3427 331.831 23.6217 332.801 23.6217ZM25.9739 92.4677V79.6137H16.9702V92.4677H0V50.7817H16.9702V63.6346H25.9739V50.7817H42.9441V92.4677H25.9739ZM57.8302 93.1617C49.3826 93.1617 46.4023 87.9513 46.4023 76.8355V61.2024H62.3325V76.6965C62.3325 80.8658 63.0265 82.3939 65.3107 82.3939C67.6659 82.3939 68.6359 80.3078 68.6359 76.0025V61.2024H84.5641V92.4677H68.6359V86.2822C67.1818 90.4535 62.8865 93.1617 57.8322 93.1617H57.8302ZM114.068 93.1617C108.943 93.1617 105.411 90.4535 103.956 86.2842V92.4677H88.0283V50.7817H103.958V67.3858C105.413 63.2185 108.946 60.5084 114.07 60.5084C122.383 60.5084 126.954 68.4989 126.954 76.8355C126.954 85.1731 122.383 93.1617 114.07 93.1617H114.068ZM106.659 82.741C108.597 82.741 110.329 79.8928 110.329 76.6965C110.329 73.5003 108.599 70.7221 106.659 70.7221C104.649 70.7221 103.334 73.4303 103.334 76.6965C103.334 79.9628 104.649 82.741 106.659 82.741Z" fill="var(--fill-0, black)"/>
<path id="Vector_2" d="M33.1304 101.089C38.6718 111.061 46.6024 119.49 56.207 125.614C80.3738 141.034 125.984 150.648 179.129 138.448C233.725 125.917 276.067 92.4747 290.008 67.3899" stroke="var(--stroke-0, black)" stroke-width="3.72427" stroke-miterlimit="10" stroke-linecap="round"/>
<path id="Vector_3" d="M283.45 66.9263C283.316 63.2413 286.185 60.1443 289.859 60.0093C293.533 59.8743 296.62 62.7523 296.755 66.4373C296.889 70.1233 294.02 73.2203 290.346 73.3553C286.672 73.4903 283.585 70.6113 283.45 66.9263Z" fill="var(--fill-0, black)"/>
</g>
</svg>
