<svg width="1389" height="354" viewBox="0 0 1389 354" fill="none" xmlns="http://www.w3.org/2000/svg">
<g clip-path="url(#clip0_7_6095)">
<g clip-path="url(#clip1_7_6095)">
<rect y="0.800049" width="682.5" height="326" rx="16" fill="#FBF7F0"/>
<g clip-path="url(#clip2_7_6095)">
<g clip-path="url(#clip3_7_6095)">
<g clip-path="url(#clip4_7_6095)">
<path d="M209.588 188.856L192.494 157.219C190.786 154.054 188.44 149.041 188.44 149.041L188.312 149.105C188.312 149.17 188.504 153.315 188.504 157.734V188.856H182.87V143.241H191.249L208.342 174.878C210.05 178.043 212.396 183.056 212.396 183.056H212.524C212.524 182.928 212.333 178.766 212.333 174.348V143.241H217.966V188.856H209.588ZM231.389 173.56C231.788 179.891 235.187 184.904 241.14 184.904C245.848 184.904 248.8 181.481 249.52 177.384L254.69 180.485C252.855 185.225 247.939 189.644 241.14 189.644C231.707 189.644 226.074 182.525 226.074 172.242C226.074 162.216 232.106 154.841 240.996 154.841C249.647 154.841 254.881 161.172 254.881 169.864C254.881 171.969 254.482 173.56 254.482 173.56H231.389ZM231.58 169.077H249.455C249.455 164.064 246.503 159.453 241.013 159.453C235.634 159.453 232.427 163.678 231.58 169.077ZM287.887 169.35C289.324 174.299 291.366 182.526 291.366 182.526H291.494C291.494 182.526 293.122 174.347 294.176 169.35L297.048 155.629H302.554L294.703 188.856H288.35L284.152 173.56C282.78 168.611 280.945 161.557 280.945 161.557H280.817C280.817 161.557 278.982 168.611 277.609 173.56L273.412 188.856H266.932L259.079 155.628H264.841L267.713 169.35C268.767 174.363 270.395 182.526 270.395 182.526H270.523C270.523 182.462 272.55 174.283 274.003 169.35L277.928 155.629H283.961L287.887 169.35ZM311.763 143.241H329.049C339.007 143.241 344.896 148.254 344.896 156.159C344.896 162.49 340.906 167.101 334.411 168.756L346.206 188.856H339.916L328.394 169.351H317.524V188.856H311.763V143.241ZM329.847 148.511H317.541V164.064H329.847C335.607 164.064 339.007 161.365 339.007 156.159C339.007 151.017 335.607 148.511 329.847 148.511V148.511ZM355.176 173.56C355.574 179.891 358.974 184.904 364.926 184.904C369.635 184.904 372.587 181.481 373.304 177.384L378.476 180.485C376.642 185.225 371.726 189.644 364.926 189.644C355.493 189.644 349.86 182.525 349.86 172.242C349.86 162.216 355.893 154.841 364.782 154.841C373.433 154.841 378.668 161.172 378.668 169.864C378.668 171.969 378.268 173.56 378.268 173.56H355.176ZM355.382 169.077H373.258C373.258 164.064 370.306 159.453 364.815 159.453C359.437 159.453 356.228 163.678 355.382 169.077ZM402.593 186.286C401.411 187.86 398.922 189.644 395.521 189.644C391.323 189.644 387.86 187.796 387.86 181.08V160.385H381.844V155.645H387.86V147.981L393.238 144.558V155.629H401.746V160.369H393.238V180.614C393.238 183.779 394.15 184.904 396.111 184.904C397.948 184.904 399.128 183.056 399.655 181.739L402.593 186.286ZM407.955 143.241H413.717V149.957H407.955V143.241ZM408.082 155.629H413.59V188.856H408.082V155.629ZM423.02 155.629H428.528L428.127 161.429H428.254C429.566 157.734 432.374 155.099 436.316 155.099C440.831 155.099 443.85 158.858 443.85 163.662C443.85 165.51 443.658 167.021 443.658 167.021L438.28 170.25C438.28 170.25 438.87 167.422 438.87 165.301C438.87 162.393 437.56 160.096 434.671 160.096C430.346 160.096 428.511 164.643 428.511 169.849V188.841H423.006V155.629H423.02ZM453.713 173.56C454.111 179.891 457.511 184.904 463.465 184.904C468.172 184.904 471.124 181.481 471.843 177.384L477.013 180.485C475.179 185.225 470.264 189.644 463.465 189.644C454.03 189.644 448.397 182.525 448.397 172.242C448.397 162.216 454.43 154.841 463.319 154.841C471.971 154.841 477.205 161.172 477.205 169.864C477.205 171.969 476.805 173.56 476.805 173.56H453.713ZM453.919 169.077H471.795C471.795 164.064 468.843 159.453 463.352 159.453C457.974 159.453 454.765 163.678 453.919 169.077ZM484.563 155.628H490.068L489.671 161.429H489.798C491.107 158.521 493.996 154.841 499.231 154.841C503.811 154.841 506.954 157.091 508.391 161.429H508.518C509.827 158.521 512.843 154.841 518.606 154.841C525.149 154.841 529.345 159.324 529.345 167.229V188.856H523.84V168.547C523.84 162.473 521.479 159.838 517.296 159.838C512.589 159.838 509.7 163.791 509.7 169.591V188.84H504.192V168.097C504.192 162.361 501.703 159.854 497.651 159.854C493.068 159.854 490.052 163.614 490.052 169.222V188.872H484.547V155.628H484.563ZM541.97 173.56C542.371 179.891 545.769 184.904 551.723 184.904C556.43 184.904 559.384 181.481 560.101 177.384L565.273 180.485C563.436 185.225 558.521 189.644 551.723 189.644C542.29 189.644 536.657 182.525 536.657 172.242C536.657 162.216 542.69 154.841 551.579 154.841C560.228 154.841 565.465 161.172 565.465 169.864C565.465 171.969 565.065 173.56 565.065 173.56H541.97ZM542.179 169.077H560.055C560.055 164.064 557.101 159.453 551.612 159.453C546.231 159.453 543.025 163.678 542.179 169.077ZM599.54 188.856H594.032V169.077C594.032 162.489 591.416 159.854 586.69 159.854C581.585 159.854 578.312 164.144 578.312 169.222V188.872H572.804V155.628H578.312L577.914 161.429H578.042C579.351 158.521 582.494 154.841 588.256 154.841C595.071 154.841 599.524 159.324 599.524 168.033V188.856H599.54ZM624.485 186.286C623.302 187.86 620.814 189.644 617.413 189.644C613.217 189.644 609.755 187.796 609.755 181.08V160.385H603.736V155.645H609.755V147.981L615.133 144.558V155.629H623.638V160.369H615.133V180.614C615.133 183.779 616.042 184.904 618.003 184.904C619.84 184.904 621.022 183.056 621.547 181.739L624.485 186.286ZM62.9462 188.856C63.6645 163.116 84.668 142.389 110.396 142.389C136.123 142.389 157.127 163.116 157.845 188.841H162.776C162.074 160.369 138.852 137.424 110.396 137.424C81.9389 137.424 58.7329 160.369 58.0146 188.856H62.9462Z" fill="#0D3F4A"/>
<path d="M72.2353 188.857C72.9376 172.66 86.2323 159.71 102.496 159.71C118.759 159.71 132.054 172.66 132.756 188.857H137.687C136.985 169.929 121.472 154.729 102.496 154.729C83.519 154.729 68.006 169.913 67.3037 188.857H72.2353Z" fill="#0D3F4A"/>
<path d="M81.5403 188.857C82.2266 180.405 89.265 173.737 97.8353 173.737C106.406 173.737 113.444 180.405 114.131 188.857H119.062C118.36 177.658 109.119 168.756 97.8353 168.756C86.5517 168.756 77.2947 177.658 76.6084 188.857H81.5403Z" fill="#0D3F4A"/>
</g>
</g>
</g>
<path d="M0.868 349.8V339.72H2.688V349.8H0.868ZM1.736 349.8V348.358H7.644V349.8H1.736ZM11.8276 349.94C11.0716 349.94 10.4089 349.781 9.83959 349.464C9.27959 349.147 8.84093 348.708 8.52359 348.148C8.21559 347.588 8.06159 346.944 8.06159 346.216C8.06159 345.488 8.21559 344.849 8.52359 344.298C8.84093 343.738 9.27959 343.304 9.83959 342.996C10.3996 342.679 11.0529 342.52 11.7996 342.52C12.5089 342.52 13.1249 342.669 13.6476 342.968C14.1703 343.257 14.5763 343.668 14.8656 344.2C15.1549 344.732 15.2996 345.353 15.2996 346.062C15.2996 346.193 15.2949 346.314 15.2856 346.426C15.2763 346.538 15.2623 346.65 15.2436 346.762H9.15359V345.53H13.8856L13.5216 345.866C13.5216 345.194 13.3676 344.69 13.0596 344.354C12.7516 344.018 12.3223 343.85 11.7716 343.85C11.1743 343.85 10.6983 344.055 10.3436 344.466C9.99826 344.877 9.82559 345.469 9.82559 346.244C9.82559 347.009 9.99826 347.597 10.3436 348.008C10.6983 348.409 11.1976 348.61 11.8416 348.61C12.2149 348.61 12.5416 348.54 12.8216 348.4C13.1016 348.26 13.3069 348.045 13.4376 347.756H15.1036C14.8703 348.428 14.4736 348.96 13.9136 349.352C13.3629 349.744 12.6676 349.94 11.8276 349.94ZM19.824 352.81C18.8813 352.81 18.1067 352.605 17.5 352.194C16.9027 351.783 16.548 351.228 16.436 350.528H18.116C18.2 350.771 18.382 350.957 18.662 351.088C18.9513 351.228 19.3247 351.298 19.782 351.298C20.4447 351.298 20.9347 351.149 21.252 350.85C21.5693 350.561 21.728 350.117 21.728 349.52V347.98L21.854 348.008C21.742 348.531 21.4573 348.951 21 349.268C20.5427 349.576 19.9827 349.73 19.32 349.73C18.6853 349.73 18.13 349.581 17.654 349.282C17.1873 348.983 16.8233 348.568 16.562 348.036C16.3007 347.495 16.17 346.865 16.17 346.146C16.17 345.418 16.3053 344.783 16.576 344.242C16.8467 343.701 17.2247 343.281 17.71 342.982C18.2047 342.674 18.7787 342.52 19.432 342.52C20.104 342.52 20.6547 342.683 21.084 343.01C21.5227 343.327 21.7933 343.771 21.896 344.34L21.784 344.354V342.66H23.506V349.506C23.506 350.523 23.1747 351.326 22.512 351.914C21.8587 352.511 20.9627 352.81 19.824 352.81ZM19.894 348.33C20.4633 348.33 20.916 348.139 21.252 347.756C21.5973 347.364 21.77 346.818 21.77 346.118C21.77 345.418 21.5973 344.877 21.252 344.494C20.9067 344.111 20.4493 343.92 19.88 343.92C19.32 343.92 18.8673 344.116 18.522 344.508C18.1767 344.891 18.004 345.432 18.004 346.132C18.004 346.832 18.1767 347.373 18.522 347.756C18.8673 348.139 19.3247 348.33 19.894 348.33ZM29.8353 349.8C29.7886 349.613 29.7513 349.408 29.7233 349.184C29.7046 348.96 29.6953 348.689 29.6953 348.372H29.6393V344.984C29.6393 344.611 29.532 344.331 29.3173 344.144C29.112 343.948 28.7946 343.85 28.3653 343.85C27.9453 343.85 27.6093 343.929 27.3573 344.088C27.1146 344.237 26.9653 344.457 26.9093 344.746H25.2153C25.29 344.083 25.6073 343.547 26.1673 343.136C26.7273 342.725 27.4786 342.52 28.4213 342.52C29.4013 342.52 30.1433 342.744 30.6473 343.192C31.1513 343.631 31.4033 344.279 31.4033 345.138V348.372C31.4033 348.596 31.4173 348.825 31.4453 349.058C31.4826 349.291 31.534 349.539 31.5993 349.8H29.8353ZM27.3573 349.94C26.6386 349.94 26.0646 349.763 25.6353 349.408C25.2153 349.044 25.0053 348.559 25.0053 347.952C25.0053 347.299 25.2433 346.781 25.7193 346.398C26.1953 346.015 26.8673 345.759 27.7353 345.628L29.9613 345.292V346.412L28.0293 346.706C27.6093 346.771 27.292 346.888 27.0773 347.056C26.872 347.224 26.7693 347.457 26.7693 347.756C26.7693 348.027 26.8673 348.237 27.0633 348.386C27.2593 348.526 27.53 348.596 27.8753 348.596C28.3793 348.596 28.7993 348.47 29.1353 348.218C29.4713 347.966 29.6393 347.658 29.6393 347.294L29.8353 348.372C29.6486 348.885 29.3406 349.277 28.9113 349.548C28.4913 349.809 27.9733 349.94 27.3573 349.94ZM36.1746 349.94C35.4559 349.94 34.8212 349.781 34.2706 349.464C33.7292 349.147 33.2999 348.708 32.9826 348.148C32.6746 347.579 32.5206 346.935 32.5206 346.216C32.5206 345.497 32.6746 344.863 32.9826 344.312C33.2999 343.752 33.7292 343.313 34.2706 342.996C34.8212 342.679 35.4559 342.52 36.1746 342.52C36.7626 342.52 37.2946 342.632 37.7706 342.856C38.2466 343.071 38.6386 343.379 38.9466 343.78C39.2546 344.172 39.4506 344.629 39.5346 345.152H37.8406C37.7379 344.769 37.5419 344.471 37.2526 344.256C36.9632 344.041 36.6132 343.934 36.2026 343.934C35.8199 343.934 35.4886 344.027 35.2086 344.214C34.9379 344.401 34.7279 344.667 34.5786 345.012C34.4292 345.357 34.3546 345.759 34.3546 346.216C34.3546 346.683 34.4292 347.089 34.5786 347.434C34.7279 347.779 34.9426 348.05 35.2226 348.246C35.5026 348.433 35.8292 348.526 36.2026 348.526C36.6132 348.526 36.9632 348.419 37.2526 348.204C37.5419 347.989 37.7379 347.691 37.8406 347.308H39.5346C39.4506 347.831 39.2499 348.293 38.9326 348.694C38.6246 349.086 38.2326 349.394 37.7566 349.618C37.2899 349.833 36.7626 349.94 36.1746 349.94ZM41.0481 352.67L42.8961 348.526L43.2181 347.994L45.2341 342.66H47.1101L42.8401 352.67H41.0481ZM42.6301 349.73L39.7321 342.66H41.6501L44.0721 349.072L42.6301 349.73ZM50.813 349.8V339.72H52.577V349.8H50.813ZM57.6977 349.94C56.9417 349.94 56.2744 349.781 55.6957 349.464C55.1264 349.147 54.6831 348.708 54.3657 348.148C54.0484 347.579 53.8897 346.93 53.8897 346.202C53.8897 345.474 54.0484 344.835 54.3657 344.284C54.6831 343.733 55.1264 343.304 55.6957 342.996C56.2744 342.679 56.9417 342.52 57.6977 342.52C58.4631 342.52 59.1304 342.679 59.6997 342.996C60.2691 343.304 60.7124 343.733 61.0297 344.284C61.3471 344.835 61.5057 345.474 61.5057 346.202C61.5057 346.93 61.3424 347.579 61.0157 348.148C60.6984 348.708 60.2551 349.147 59.6857 349.464C59.1164 349.781 58.4537 349.94 57.6977 349.94ZM57.6977 348.526C58.0711 348.526 58.4071 348.433 58.7057 348.246C59.0044 348.05 59.2377 347.779 59.4057 347.434C59.5737 347.079 59.6577 346.664 59.6577 346.188C59.6577 345.488 59.4711 344.937 59.0977 344.536C58.7337 344.135 58.2671 343.934 57.6977 343.934C57.1284 343.934 56.6571 344.135 56.2837 344.536C55.9104 344.937 55.7237 345.488 55.7237 346.188C55.7237 346.664 55.8077 347.079 55.9757 347.434C56.1531 347.779 56.3864 348.05 56.6757 348.246C56.9744 348.433 57.3151 348.526 57.6977 348.526ZM65.9803 352.81C65.0376 352.81 64.2629 352.605 63.6562 352.194C63.0589 351.783 62.7043 351.228 62.5923 350.528H64.2723C64.3563 350.771 64.5383 350.957 64.8183 351.088C65.1076 351.228 65.4809 351.298 65.9383 351.298C66.6009 351.298 67.0909 351.149 67.4083 350.85C67.7256 350.561 67.8843 350.117 67.8843 349.52V347.98L68.0103 348.008C67.8983 348.531 67.6136 348.951 67.1563 349.268C66.6989 349.576 66.1389 349.73 65.4763 349.73C64.8416 349.73 64.2863 349.581 63.8103 349.282C63.3436 348.983 62.9796 348.568 62.7183 348.036C62.4569 347.495 62.3263 346.865 62.3263 346.146C62.3263 345.418 62.4616 344.783 62.7323 344.242C63.0029 343.701 63.3809 343.281 63.8663 342.982C64.3609 342.674 64.9349 342.52 65.5883 342.52C66.2603 342.52 66.8109 342.683 67.2403 343.01C67.6789 343.327 67.9496 343.771 68.0523 344.34L67.9403 344.354V342.66H69.6623V349.506C69.6623 350.523 69.3309 351.326 68.6683 351.914C68.0149 352.511 67.1189 352.81 65.9803 352.81ZM66.0503 348.33C66.6196 348.33 67.0723 348.139 67.4083 347.756C67.7536 347.364 67.9263 346.818 67.9263 346.118C67.9263 345.418 67.7536 344.877 67.4083 344.494C67.0629 344.111 66.6056 343.92 66.0363 343.92C65.4763 343.92 65.0236 344.116 64.6783 344.508C64.3329 344.891 64.1603 345.432 64.1603 346.132C64.1603 346.832 64.3329 347.373 64.6783 347.756C65.0236 348.139 65.4809 348.33 66.0503 348.33ZM74.7876 349.94C74.0316 349.94 73.3642 349.781 72.7856 349.464C72.2162 349.147 71.7729 348.708 71.4556 348.148C71.1382 347.579 70.9796 346.93 70.9796 346.202C70.9796 345.474 71.1382 344.835 71.4556 344.284C71.7729 343.733 72.2162 343.304 72.7856 342.996C73.3642 342.679 74.0316 342.52 74.7876 342.52C75.5529 342.52 76.2202 342.679 76.7896 342.996C77.3589 343.304 77.8022 343.733 78.1196 344.284C78.4369 344.835 78.5956 345.474 78.5956 346.202C78.5956 346.93 78.4322 347.579 78.1056 348.148C77.7882 348.708 77.3449 349.147 76.7756 349.464C76.2062 349.781 75.5436 349.94 74.7876 349.94ZM74.7876 348.526C75.1609 348.526 75.4969 348.433 75.7956 348.246C76.0942 348.05 76.3276 347.779 76.4956 347.434C76.6636 347.079 76.7476 346.664 76.7476 346.188C76.7476 345.488 76.5609 344.937 76.1876 344.536C75.8236 344.135 75.3569 343.934 74.7876 343.934C74.2182 343.934 73.7469 344.135 73.3736 344.536C73.0002 344.937 72.8136 345.488 72.8136 346.188C72.8136 346.664 72.8976 347.079 73.0656 347.434C73.2429 347.779 73.4762 348.05 73.7656 348.246C74.0642 348.433 74.4049 348.526 74.7876 348.526Z" fill="#F7F7F7"/>
</g>
<g clip-path="url(#clip5_7_6095)">
<rect x="706.5" y="0.800049" width="682.5" height="326" rx="16" fill="#FBF7F0"/>
<g clip-path="url(#clip6_7_6095)">
<g clip-path="url(#clip7_7_6095)">
<g clip-path="url(#clip8_7_6095)">
<path d="M898.971 153.699C875.216 153.699 855.723 173.043 854.595 197.737L854.575 198.178H861.494L861.515 197.78C862.008 188.179 865.905 179.099 872.467 172.266C875.877 168.702 879.927 165.856 884.392 163.889C889.002 161.866 893.961 160.824 898.971 160.824C903.981 160.824 908.939 161.866 913.549 163.889C918.015 165.856 922.066 168.702 925.475 172.267C932.037 179.1 935.935 188.18 936.427 197.781L936.449 198.179H943.367L943.347 197.739C942.218 173.043 922.726 153.699 898.971 153.699ZM893.242 171.542C879.098 171.542 867.285 183.046 866.349 197.732L866.32 198.179H873.245L873.276 197.794C873.679 192.888 875.738 188.283 879.095 184.78C880.942 182.845 883.144 181.308 885.573 180.259C887.994 179.211 890.604 178.671 893.242 178.67C895.881 178.671 898.491 179.211 900.912 180.259C903.341 181.308 905.543 182.845 907.39 184.78C910.747 188.283 912.806 192.888 913.209 197.794L913.24 198.179H920.164L920.136 197.732C919.2 183.046 907.387 171.542 893.242 171.542ZM974.619 197.747C974.18 180.056 967.055 163.242 954.762 150.889C942.47 138.536 925.982 131.623 908.815 131.623C891.648 131.623 875.16 138.536 862.867 150.889C850.575 163.242 843.449 180.056 843.011 197.747L843 198.179H849.915L849.928 197.771C850.361 181.968 856.756 166.963 867.752 155.944C878.748 144.925 893.479 138.76 908.815 138.76C924.15 138.76 938.881 144.925 949.878 155.944C960.874 166.963 967.269 181.968 967.702 197.771L967.714 198.179H974.63L974.619 197.747ZM989.816 136.563H1013.32C1024.95 136.563 1033.08 142.348 1033.08 153.748C1033.08 158.359 1030.39 163.305 1026.33 165.652C1031.53 167.916 1035.27 173.7 1035.27 179.568C1035.27 191.556 1027.39 198.179 1014.37 198.179H989.816V136.563ZM1013.08 160.487C1017.47 160.487 1019.77 158.342 1019.77 154.509C1019.77 150.908 1017.32 148.686 1013.23 148.686H1003.12V160.488L1013.08 160.487ZM1014.51 185.996C1019.49 185.996 1021.8 183.313 1021.8 179.404C1021.8 175.495 1018.97 172.89 1015.03 172.89H1003.21V185.996H1014.51ZM1040.37 173.803C1040.37 158.916 1051.66 147.937 1066.46 147.937C1081.26 147.937 1092.54 158.916 1092.54 173.803C1092.54 188.596 1081.26 199.575 1066.46 199.575C1051.66 199.575 1040.37 188.596 1040.37 173.803ZM1066.46 186.828C1073.77 186.828 1079.09 181.339 1079.09 173.803C1079.09 166.267 1073.77 160.777 1066.46 160.777C1059.15 160.777 1053.82 166.266 1053.82 173.803C1053.82 181.339 1059.15 186.828 1066.46 186.828ZM1098.5 129.794H1111.77V198.179H1098.5V129.794ZM1119.53 173.803C1119.53 158.73 1130 147.937 1144.53 147.937C1149.76 147.937 1154.46 149.519 1158.25 152.31V129.794H1171.51V178.175L1178.92 198.179H1165.29L1159.06 181.339V193.993C1156.26 197.435 1149.58 199.575 1143.17 199.575C1129.55 199.574 1119.53 188.782 1119.53 173.803ZM1145.88 186.828C1153.19 186.828 1158.52 181.338 1158.52 173.803C1158.52 166.266 1153.19 160.777 1145.88 160.777C1138.57 160.777 1133.25 166.266 1133.25 173.803C1133.25 181.339 1138.57 186.828 1145.88 186.828ZM1191.37 127.933C1193 127.942 1194.6 128.451 1195.95 129.394C1197.31 130.337 1198.36 131.672 1198.97 133.231C1199.59 134.795 1199.74 136.504 1199.42 138.153C1199.09 139.802 1198.3 141.315 1197.13 142.499C1195.97 143.683 1194.5 144.486 1192.89 144.805C1191.29 145.124 1189.62 144.946 1188.12 144.294C1186.62 143.641 1185.33 142.543 1184.43 141.137C1183.53 139.732 1183.06 138.084 1183.07 136.4C1183.07 135.281 1183.29 134.175 1183.71 133.143C1184.13 132.117 1184.74 131.181 1185.51 130.389C1186.29 129.603 1187.2 128.981 1188.21 128.559C1189.21 128.138 1190.28 127.926 1191.37 127.933ZM1184.69 149.798H1197.96V198.179H1184.69V149.798ZM1207.89 149.798H1221.15V155.66C1224.13 150.543 1228.83 147.938 1235.32 147.938C1246.52 147.938 1252.38 155.66 1252.38 170.453V198.179H1239.12V172.407C1239.12 163.94 1236.77 160.591 1230.9 160.591C1224.49 160.591 1221.15 165.242 1221.15 172.779V198.179H1207.89V149.798Z" fill="#0D3F4A"/>
</g>
</g>
</g>
<path d="M707.368 349.8V339.72H709.622L714.536 348.484L714.018 348.61V339.72H715.782V349.8H713.528L708.614 341.036L709.132 340.91V349.8H707.368ZM720.789 349.94C720.033 349.94 719.37 349.781 718.801 349.464C718.241 349.147 717.802 348.708 717.485 348.148C717.177 347.588 717.023 346.944 717.023 346.216C717.023 345.488 717.177 344.849 717.485 344.298C717.802 343.738 718.241 343.304 718.801 342.996C719.361 342.679 720.014 342.52 720.761 342.52C721.47 342.52 722.086 342.669 722.609 342.968C723.131 343.257 723.537 343.668 723.827 344.2C724.116 344.732 724.261 345.353 724.261 346.062C724.261 346.193 724.256 346.314 724.247 346.426C724.237 346.538 724.223 346.65 724.205 346.762H718.115V345.53H722.847L722.483 345.866C722.483 345.194 722.329 344.69 722.021 344.354C721.713 344.018 721.283 343.85 720.733 343.85C720.135 343.85 719.659 344.055 719.305 344.466C718.959 344.877 718.787 345.469 718.787 346.244C718.787 347.009 718.959 347.597 719.305 348.008C719.659 348.409 720.159 348.61 720.803 348.61C721.176 348.61 721.503 348.54 721.783 348.4C722.063 348.26 722.268 348.045 722.399 347.756H724.065C723.831 348.428 723.435 348.96 722.875 349.352C722.324 349.744 721.629 349.94 720.789 349.94ZM726.887 349.8L724.703 342.66H726.551L727.839 348.022H727.713L729.295 342.66H730.905L732.515 348.022H732.375L733.649 342.66H735.455L733.271 349.8H731.619L730.009 344.494H730.149L728.539 349.8H726.887ZM739.321 349.8V339.72H741.085V349.8H739.321ZM746.206 349.94C745.45 349.94 744.782 349.781 744.204 349.464C743.634 349.147 743.191 348.708 742.874 348.148C742.556 347.579 742.398 346.93 742.398 346.202C742.398 345.474 742.556 344.835 742.874 344.284C743.191 343.733 743.634 343.304 744.204 342.996C744.782 342.679 745.45 342.52 746.206 342.52C746.971 342.52 747.638 342.679 748.208 342.996C748.777 343.304 749.22 343.733 749.538 344.284C749.855 344.835 750.014 345.474 750.014 346.202C750.014 346.93 749.85 347.579 749.524 348.148C749.206 348.708 748.763 349.147 748.194 349.464C747.624 349.781 746.962 349.94 746.206 349.94ZM746.206 348.526C746.579 348.526 746.915 348.433 747.214 348.246C747.512 348.05 747.746 347.779 747.914 347.434C748.082 347.079 748.166 346.664 748.166 346.188C748.166 345.488 747.979 344.937 747.606 344.536C747.242 344.135 746.775 343.934 746.206 343.934C745.636 343.934 745.165 344.135 744.792 344.536C744.418 344.937 744.232 345.488 744.232 346.188C744.232 346.664 744.316 347.079 744.484 347.434C744.661 347.779 744.894 348.05 745.184 348.246C745.482 348.433 745.823 348.526 746.206 348.526ZM754.488 352.81C753.545 352.81 752.771 352.605 752.164 352.194C751.567 351.783 751.212 351.228 751.1 350.528H752.78C752.864 350.771 753.046 350.957 753.326 351.088C753.615 351.228 753.989 351.298 754.446 351.298C755.109 351.298 755.599 351.149 755.916 350.85C756.233 350.561 756.392 350.117 756.392 349.52V347.98L756.518 348.008C756.406 348.531 756.121 348.951 755.664 349.268C755.207 349.576 754.647 349.73 753.984 349.73C753.349 349.73 752.794 349.581 752.318 349.282C751.851 348.983 751.487 348.568 751.226 348.036C750.965 347.495 750.834 346.865 750.834 346.146C750.834 345.418 750.969 344.783 751.24 344.242C751.511 343.701 751.889 343.281 752.374 342.982C752.869 342.674 753.443 342.52 754.096 342.52C754.768 342.52 755.319 342.683 755.748 343.01C756.187 343.327 756.457 343.771 756.56 344.34L756.448 344.354V342.66H758.17V349.506C758.17 350.523 757.839 351.326 757.176 351.914C756.523 352.511 755.627 352.81 754.488 352.81ZM754.558 348.33C755.127 348.33 755.58 348.139 755.916 347.756C756.261 347.364 756.434 346.818 756.434 346.118C756.434 345.418 756.261 344.877 755.916 344.494C755.571 344.111 755.113 343.92 754.544 343.92C753.984 343.92 753.531 344.116 753.186 344.508C752.841 344.891 752.668 345.432 752.668 346.132C752.668 346.832 752.841 347.373 753.186 347.756C753.531 348.139 753.989 348.33 754.558 348.33ZM763.295 349.94C762.539 349.94 761.872 349.781 761.293 349.464C760.724 349.147 760.281 348.708 759.963 348.148C759.646 347.579 759.487 346.93 759.487 346.202C759.487 345.474 759.646 344.835 759.963 344.284C760.281 343.733 760.724 343.304 761.293 342.996C761.872 342.679 762.539 342.52 763.295 342.52C764.061 342.52 764.728 342.679 765.297 342.996C765.867 343.304 766.31 343.733 766.627 344.284C766.945 344.835 767.103 345.474 767.103 346.202C767.103 346.93 766.94 347.579 766.613 348.148C766.296 348.708 765.853 349.147 765.283 349.464C764.714 349.781 764.051 349.94 763.295 349.94ZM763.295 348.526C763.669 348.526 764.005 348.433 764.303 348.246C764.602 348.05 764.835 347.779 765.003 347.434C765.171 347.079 765.255 346.664 765.255 346.188C765.255 345.488 765.069 344.937 764.695 344.536C764.331 344.135 763.865 343.934 763.295 343.934C762.726 343.934 762.255 344.135 761.881 344.536C761.508 344.937 761.321 345.488 761.321 346.188C761.321 346.664 761.405 347.079 761.573 347.434C761.751 347.779 761.984 348.05 762.273 348.246C762.572 348.433 762.913 348.526 763.295 348.526Z" fill="#F7F7F7"/>
</g>
</g>
<defs>
<clipPath id="clip0_7_6095">
<rect width="1389" height="353.8" fill="white"/>
</clipPath>
<clipPath id="clip1_7_6095">
<rect width="682.5" height="353" fill="white" transform="translate(0 0.800049)"/>
</clipPath>
<clipPath id="clip2_7_6095">
<rect width="566.47" height="52.75" fill="white" transform="translate(58.0146 137.425)"/>
</clipPath>
<clipPath id="clip3_7_6095">
<rect width="566.47" height="52.75" fill="white" transform="translate(58.0146 137.425)"/>
</clipPath>
<clipPath id="clip4_7_6095">
<rect width="566.47" height="52.7515" fill="white" transform="translate(58.0146 137.424)"/>
</clipPath>
<clipPath id="clip5_7_6095">
<rect width="682.5" height="353" fill="white" transform="translate(706.5 0.800049)"/>
</clipPath>
<clipPath id="clip6_7_6095">
<rect width="409.5" height="71.72" fill="white" transform="translate(843 127.94)"/>
</clipPath>
<clipPath id="clip7_7_6095">
<rect width="409.5" height="71.72" fill="white" transform="translate(843 127.94)"/>
</clipPath>
<clipPath id="clip8_7_6095">
<rect width="409.5" height="71.7338" fill="white" transform="translate(843 127.933)"/>
</clipPath>
</defs>
</svg>
