<svg width="1389" height="795" viewBox="0 0 1389 795" fill="none" xmlns="http://www.w3.org/2000/svg">
<g clip-path="url(#clip0_7_6118)">
<g clip-path="url(#clip1_7_6118)">
<rect y="0.800049" width="1389" height="793.7" rx="24" fill="#FBF7F0"/>
<g clip-path="url(#clip2_7_6118)">
<g clip-path="url(#clip3_7_6118)">
<g clip-path="url(#clip4_7_6118)">
<mask id="mask0_7_6118" style="mask-type:luminance" maskUnits="userSpaceOnUse" x="0" y="0" width="1389" height="795">
<path d="M1365.19 0.792969H23.8114C10.6607 0.792969 0 11.4537 0 24.6044V770.696C0 783.846 10.6607 794.507 23.8114 794.507H1365.19C1378.34 794.507 1389 783.846 1389 770.696V24.6044C1389 11.4537 1378.34 0.792969 1365.19 0.792969Z" fill="white"/>
</mask>
<g mask="url(#mask0_7_6118)">
<path d="M-45.6387 -108.343H1548.73V905.627H-45.6387V-108.343Z" fill="url(#paint0_linear_7_6118)"/>
<path d="M40.1143 526.676L54.5916 491.673H58.83L73.2121 526.676H68.8785L64.8781 516.628H48.4959L44.4479 526.676H40.1143ZM49.9246 513.151H63.4495L56.687 496.293L49.9246 513.151ZM78.16 526.676V491.673H91.1134C97.1615 491.673 101.733 494.864 101.733 500.96C101.733 504.103 99.7331 507.389 96.6852 508.437C100.4 509.246 103.162 512.866 103.162 516.771C103.162 523.057 98.8759 526.676 91.7325 526.676H78.16ZM82.1603 523.057H91.8753C96.6852 523.057 99.2093 520.628 99.2093 516.723C99.2093 512.77 96.2566 510.58 92.4468 510.58H82.1593L82.1603 523.057ZM82.1603 507.008H90.4467C95.2566 507.008 97.733 504.865 97.733 501.055C97.733 497.293 95.1613 495.293 91.2086 495.293H82.1603V507.008ZM126.104 527.391C116.627 527.391 108.15 520.58 108.15 509.103C108.15 497.674 116.77 490.911 126.2 490.911C132.343 490.911 138.296 493.769 141.296 499.198L138.105 501.579C135.962 497.007 131.39 494.531 126.295 494.531C118.961 494.531 112.198 499.579 112.198 509.151C112.198 518.58 118.77 523.771 126.295 523.771C131.533 523.771 136.105 521.2 138.153 516.628L141.439 518.961C138.391 524.105 132.819 527.391 126.104 527.391ZM147.641 526.676V491.673H159.499C169.595 491.673 175.738 497.436 175.738 508.722C175.738 520.009 169.595 526.676 159.499 526.676H147.641ZM151.641 523.057H159.165C166.88 523.057 171.785 518.009 171.785 508.722C171.785 499.293 166.88 495.293 159.165 495.293H151.641V523.057ZM182.567 526.676V491.673H205.569V495.293H186.567V507.056H204.188V510.675H186.567V523.057H205.664V526.676H182.567ZM213.354 526.676V491.673H235.928V495.293H217.355V507.246H234.308V510.865H217.355V526.676H213.354ZM257.224 527.391C248.128 527.391 240.508 520.485 240.508 509.151C240.508 497.721 248.89 490.911 258.367 490.911C264.51 490.911 270.654 493.769 273.654 499.198L270.463 501.579C268.32 497.007 263.605 494.531 258.319 494.531C251.128 494.531 244.556 499.626 244.556 509.103C244.556 518.628 250.366 523.771 258.081 523.771C264.748 523.771 269.558 518.914 269.844 512.199H258.176V508.675H273.797V526.676H269.796V520.533C267.701 523.962 263.939 527.391 257.224 527.391ZM304.477 526.676V511.008H285.999V526.676H281.999V491.673H285.999V507.389H304.477V491.673H308.477V526.676H304.477ZM317.529 526.676V491.673H321.482V526.676H317.529ZM338.266 527.391C331.646 527.391 327.694 522.914 327.694 516.675V515.485L331.551 513.485V515.247C331.551 520.342 333.551 523.676 338.266 523.676C342.838 523.676 344.981 520.438 344.981 515.342V491.673H348.981V515.532C348.981 522.866 344.743 527.391 338.266 527.391ZM357.804 526.676V491.673H361.805V508.722L378.663 491.673H383.902L369.234 506.532L385.473 526.676H380.568L366.424 509.294L361.805 513.866V526.676H357.804ZM390.452 526.676V491.673H394.452V523.009H412.358V526.676H390.452ZM418.217 526.676V491.673H424.027L435.885 522.247L447.791 491.673H453.553V526.676H449.6V496.864L438.123 526.343H433.599L422.17 496.769V526.676H418.217ZM462.585 526.676V491.673H467.537L485.443 521.152V491.673H489.396V526.676H484.443L466.537 497.198V526.676H462.585ZM514.49 527.391C504.965 527.391 496.202 520.485 496.202 509.151C496.202 497.721 505.06 490.911 514.49 490.911C523.966 490.911 532.777 497.721 532.777 509.151C532.777 520.485 524.062 527.391 514.49 527.391ZM514.49 523.724C521.919 523.724 528.681 518.58 528.681 509.151C528.681 499.626 521.776 494.578 514.49 494.578C507.203 494.578 500.25 499.626 500.25 509.151C500.25 518.58 507.06 523.724 514.49 523.724ZM539.553 526.676V491.673H553.506C560.65 491.673 564.841 495.817 564.841 501.912C564.841 508.579 559.793 512.104 553.84 512.104H543.553V526.676H539.553ZM543.553 508.484H553.554C558.031 508.484 560.84 505.913 560.84 501.912C560.84 498.055 558.316 495.293 553.697 495.293H543.553V508.484ZM587.226 527.391C577.702 527.391 568.939 520.485 568.939 509.151C568.939 497.721 577.797 490.911 587.226 490.911C596.703 490.911 605.514 497.721 605.514 509.151C605.514 515.675 602.656 520.676 598.418 523.819L601.704 528.914H597.18L595.132 525.724C592.703 526.819 589.989 527.391 587.226 527.391ZM587.226 523.724C589.274 523.724 591.274 523.343 593.084 522.581L585.607 511.008H590.084L596.322 520.628C599.37 518.199 601.418 514.294 601.418 509.151C601.418 499.626 594.513 494.578 587.226 494.578C579.94 494.578 572.987 499.626 572.987 509.151C572.987 518.58 579.797 523.724 587.226 523.724ZM612.289 526.676V491.673H627.338C634.481 491.673 638.482 495.912 638.482 501.531C638.482 506.722 635.148 510.675 628.862 511.246L639.72 526.676H634.957L624.528 511.294H616.289V526.676H612.289ZM616.289 507.722H627.243C631.862 507.722 634.481 505.246 634.481 501.531C634.481 497.769 631.91 495.293 627.243 495.293H616.289V507.722ZM657.584 527.391C649.822 527.391 644.536 522.962 643.869 516.009L647.679 514.009C647.679 519.961 651.155 523.914 657.584 523.914C662.87 523.914 666.633 521.39 666.633 517.294C666.633 506.722 644.631 514.485 644.631 500.865C644.631 494.531 650.727 490.911 657.346 490.911C665.013 490.911 669.919 495.578 670.204 500.865L666.442 502.484C666.442 497.817 663.061 494.388 657.346 494.388C652.298 494.388 648.726 496.674 648.726 500.626C648.726 510.199 670.728 503.151 670.728 517.009C670.728 523.533 665.252 527.391 657.584 527.391ZM686.245 526.676V495.34H674.673V491.673H701.818V495.34H690.246V526.676H686.245ZM719.914 527.391C712.199 527.391 707.436 522.676 707.436 514.58V491.673H711.437V514.294C711.437 519.961 714.104 523.628 719.914 523.628C725.581 523.628 728.295 519.961 728.295 514.294V491.673H732.343V514.58C732.343 522.676 727.486 527.391 719.914 527.391ZM750.352 526.676L737.065 491.673H741.398L752.685 521.628L764.115 491.673H768.448L754.923 526.676H750.352ZM779.377 526.676L769.852 491.673H774.091L781.996 521.152L790.568 492.15H794.807L803.379 521.057L811.236 491.673H815.475L805.998 526.676H801.188L792.711 498.055L784.187 526.676H779.377ZM842.681 526.676L832.681 511.865L822.442 526.676H817.727L830.442 508.675L818.537 491.673H823.394L832.966 505.77L842.777 491.673H847.348L835.157 508.913L847.729 526.676H842.681ZM863.65 526.676V512.199L850.364 491.673H854.888L865.603 508.579L876.461 491.673H881.033L867.603 512.104V526.676H863.65ZM884.589 526.676V523.009L905.353 495.34H885.256V491.673H910.353V495.34L889.447 523.009H911.258V526.676H884.589ZM50.3532 575.013C45.4956 575.013 42.0668 572.204 42.0668 568.013C42.0668 563.822 45.3052 561.441 50.6389 560.536C58.1157 559.155 59.211 558.774 59.211 556.107C59.211 553.107 56.306 552.012 53.1153 552.012C49.3055 552.012 46.2576 554.012 46.2576 558.107L42.6859 556.679C43.0669 551.964 47.5434 548.773 53.1153 548.773C59.3063 548.773 63.0685 551.678 63.0685 556.964V569.775L63.8304 574.299H60.4492L59.3063 570.87C57.3537 573.728 53.9725 575.013 50.3532 575.013ZM51.1628 571.87C56.2584 571.87 59.211 568.584 59.211 564.298V561.346C58.4491 562.06 57.0204 562.393 51.6866 563.393C48.4006 564.06 46.2576 565.108 46.2576 567.822C46.2576 570.108 48.0673 571.87 51.1628 571.87ZM83.9015 575.013C79.6154 575.013 76.3771 573.204 74.3293 570.442V574.299H70.4242V539.296H74.3293V553.393C76.3295 550.63 79.5678 548.773 83.9015 548.773C91.5688 548.773 96.4739 554.583 96.4739 561.917C96.4739 569.203 91.5211 575.013 83.9015 575.013ZM83.3776 571.442C89.14 571.442 92.4736 567.156 92.4736 561.917C92.4736 556.631 89.14 552.345 83.3776 552.345C77.7105 552.345 74.1864 556.631 74.1864 561.917C74.1864 567.203 77.7105 571.442 83.3776 571.442ZM113.567 575.013C105.852 575.013 100.47 569.822 100.47 561.917C100.47 554.202 106.042 548.773 113.567 548.773C118.567 548.773 122.901 551.488 124.472 555.345L121.043 557.488C120.091 554.155 116.9 552.393 113.567 552.393C108.09 552.393 104.471 556.202 104.471 561.917C104.471 567.632 107.899 571.394 113.567 571.394C117.186 571.394 120.329 569.203 121.186 566.298L124.52 568.489C122.853 572.299 118.472 575.013 113.567 575.013ZM140.807 575.013C133.187 575.013 128.234 569.203 128.234 561.917C128.234 554.583 133.187 548.773 140.807 548.773C145.141 548.773 148.379 550.63 150.427 553.393V539.296H154.332V574.299H150.427V570.394C148.426 573.156 145.188 575.013 140.807 575.013ZM141.378 571.442C147.045 571.442 150.522 567.203 150.522 561.917C150.522 556.631 147.045 552.345 141.378 552.345C135.568 552.345 132.235 556.631 132.235 561.917C132.235 567.156 135.568 571.442 141.378 571.442ZM172.664 575.013C165.187 575.013 160.139 569.68 160.139 561.917C160.139 554.44 165.282 548.773 172.283 548.773C179.759 548.773 184.236 553.916 184.236 561.488C184.236 562.012 184.188 562.631 184.141 563.203H164.187C164.663 568.727 168.187 571.537 172.711 571.537C176.664 571.537 179.378 569.918 180.855 566.489L183.855 569.013C181.664 573.204 177.092 575.013 172.664 575.013ZM164.234 560.06H179.997V559.965C179.997 555.155 176.902 552.25 172.283 552.25C168.282 552.25 164.901 554.964 164.234 560.06ZM192.267 546.487C192.267 541.82 195.22 538.534 199.935 538.534C200.935 538.534 202.316 538.677 203.316 538.915V542.392C202.506 542.154 201.506 542.058 200.649 542.058C197.887 542.058 196.172 543.344 196.172 546.583V549.535H203.697V553.012H196.172V574.299H192.267V553.012H187.886V549.535H192.267V546.487ZM219.78 585.252C213.399 585.252 209.256 582.728 207.351 577.823L210.78 575.442C212.113 579.68 215.113 581.776 219.78 581.776C225.162 581.776 228.591 578.585 228.591 573.537V569.441C226.59 572.204 223.447 573.966 219.447 573.966C211.875 573.966 207.017 568.394 207.017 561.393C207.017 554.393 211.875 548.773 219.447 548.773C223.447 548.773 226.59 550.535 228.591 553.297V549.535H232.496V573.728C232.496 580.823 227.543 585.252 219.78 585.252ZM219.971 570.394C225.495 570.394 228.686 566.394 228.686 561.393C228.686 556.345 225.495 552.345 219.971 552.345C214.304 552.345 211.018 556.393 211.018 561.393C211.018 566.346 214.304 570.394 219.971 570.394ZM239.987 574.299V539.296H243.892V553.155C245.369 550.678 247.845 548.821 252.179 548.821C258.227 548.821 261.703 552.583 261.703 558.726V574.299H257.798V559.393C257.798 554.774 255.608 552.345 251.417 552.345C246.845 552.345 243.892 555.345 243.892 560.488V574.299H239.987ZM268.676 574.299V549.535H272.581V574.299H268.676ZM268.2 544.059V539.296H273.01V544.059H268.2ZM277.105 585.252C276.379 585.248 275.656 585.135 274.962 584.919V581.395C275.629 581.49 276.058 581.538 276.486 581.538C279.725 581.538 280.63 579.871 280.63 576.537V549.535H284.535V576.823C284.535 581.966 282.249 585.252 277.105 585.252ZM280.153 544.059V539.296H284.963V544.059H280.153ZM292.4 574.299V539.296H296.305V560.869L308.021 549.535H313.211L302.973 559.441L314.116 574.299H309.402L300.258 562.06L296.305 565.87V574.299H292.4ZM318.816 574.299V539.296H322.721V574.299H318.816ZM330.205 574.299V549.535H334.11V553.107C335.729 550.059 338.539 548.773 341.634 548.773C345.397 548.773 348.016 550.63 349.397 553.488C350.826 550.821 353.635 548.773 357.731 548.773C362.969 548.773 366.493 552.012 366.493 558.25V574.299H362.588V559.06C362.588 554.44 360.493 552.345 356.826 552.345C352.588 552.345 350.302 555.345 350.302 560.155V574.299H346.397V559.155C346.397 554.44 344.301 552.345 340.682 552.345C336.348 552.345 334.11 555.678 334.11 560.917V574.299H330.205ZM373.503 574.299V549.535H377.408V553.202C379.17 550.297 381.837 548.821 385.694 548.821C391.743 548.821 395.219 552.583 395.219 558.726V574.299H391.314V559.393C391.314 554.774 389.123 552.345 384.932 552.345C380.313 552.345 377.408 555.583 377.408 560.488V574.299H373.503ZM413.676 575.013C406.294 575.013 400.532 569.68 400.532 561.917C400.532 554.107 406.294 548.773 413.676 548.773C421.057 548.773 426.867 554.107 426.867 561.917C426.867 569.68 421.057 575.013 413.676 575.013ZM413.676 571.394C419.057 571.394 422.867 567.632 422.867 561.917C422.867 556.155 419.057 552.393 413.676 552.393C408.342 552.393 404.532 556.155 404.532 561.917C404.532 567.632 408.437 571.394 413.676 571.394ZM432.473 584.538V549.535H436.378V553.345C438.426 550.63 441.617 548.773 445.95 548.773C453.618 548.773 458.523 554.583 458.523 561.917C458.523 569.203 453.57 575.013 445.95 575.013C441.569 575.013 438.378 573.156 436.378 570.394V584.538H432.473ZM445.426 571.442C451.189 571.442 454.522 567.156 454.522 561.917C454.522 556.631 451.189 552.345 445.426 552.345C439.759 552.345 436.235 556.631 436.235 561.917C436.235 567.203 439.759 571.442 445.426 571.442ZM484.717 584.538V570.394C482.717 573.156 479.479 575.013 475.097 575.013C467.478 575.013 462.525 569.203 462.525 561.917C462.525 554.583 467.478 548.773 475.097 548.773C479.431 548.773 482.669 550.63 484.717 553.393V549.535H488.622V584.538H484.717ZM475.669 571.442C481.336 571.442 484.812 567.203 484.812 561.917C484.812 556.631 481.336 552.345 475.669 552.345C469.859 552.345 466.525 556.631 466.525 561.917C466.525 567.156 469.859 571.442 475.669 571.442ZM495.815 574.299V549.535H499.72V553.916C501.673 550.154 505.197 549.107 507.912 549.107C508.483 549.107 508.864 549.154 509.435 549.249V553.297C508.796 553.145 508.141 553.065 507.483 553.059C503.006 553.059 499.72 555.44 499.72 562.298V574.299H495.815ZM523.286 575.013C516.857 575.013 512.999 571.68 512.285 567.298L516.19 565.679C516.333 569.489 519.047 571.727 523.286 571.727C526.667 571.727 529.191 570.537 529.191 567.822C529.191 561.727 513.142 566.156 513.142 556.25C513.142 551.916 517.619 548.773 522.905 548.773C528.572 548.773 532.572 551.726 533.096 556.059L529.382 557.441C529.143 554.155 526.858 552.059 522.905 552.059C519.286 552.059 517.19 553.774 517.19 556.012C517.19 562.155 533.429 557.917 533.429 567.537C533.429 572.204 529.524 575.013 523.286 575.013ZM548.777 574.918C543.919 574.918 541.253 573.013 541.253 567.822V553.107H536.919V549.535H541.253V543.344L545.158 540.392V549.535H552.301V553.107H545.158V567.346C545.158 570.87 546.682 571.299 549.396 571.299C550.015 571.299 551.11 571.156 551.777 571.013V574.49C551.063 574.775 549.491 574.918 548.777 574.918ZM566.809 575.013C560.999 575.013 557.57 571.394 557.57 565.441V549.535H561.475V564.87C561.475 569.346 563.523 571.585 567.571 571.585C572.143 571.585 574.905 568.489 574.905 563.06V549.535H578.81V574.299H574.905V570.775C573.191 573.775 570.238 575.013 566.809 575.013ZM593.801 574.299L583.229 549.535H587.563L595.944 570.013L604.326 549.535H608.564L598.04 574.299H593.801ZM618.393 574.299L610.297 549.535H614.488L620.679 569.632L627.346 549.773H631.203L637.87 569.632L644.442 549.535H648.633L640.204 574.299H635.775L629.298 554.964L622.774 574.299H618.393ZM669.627 574.299L662.483 564.727L655.34 574.299H650.292L660.198 561.631L650.863 549.535H655.769L662.722 558.822L669.722 549.535H674.675L665.055 561.869L674.627 574.299H669.627ZM682.669 584.538L687.145 573.918L676.382 549.535H680.764L689.288 569.346L697.432 549.535H701.718L686.859 584.538H682.669ZM705.544 574.299V570.537L721.736 553.107H705.83V549.535H726.594V553.393L710.402 570.727H726.784V574.299H705.544ZM46.7338 621.922L48.0673 612.731H41.4001V609.73H48.4959L49.7817 600.92H43.1621V597.92H50.2579L51.5437 589.014H54.5916L53.3058 597.92H60.6397L61.9255 589.014H64.9734L63.6876 597.92H70.3548V600.92H63.259L61.9732 609.73H68.5927V612.731H61.5445L60.2111 621.922H57.1156L58.4491 612.731H51.1628L49.8293 621.922H46.7338ZM51.5914 609.73H58.8777L60.1635 600.92H52.8772L51.5914 609.73ZM83.0552 621.922V593.062L74.3402 603.635V598.063L83.3886 586.919H87.0079V621.922H83.0552ZM104.015 611.159C104.015 603.301 113.064 602.397 113.064 595.825C113.064 591.777 110.54 589.729 106.587 589.729C102.301 589.729 100.205 592.967 100.158 596.777L96.4432 595.967C96.6337 590.634 100.301 586.205 106.587 586.205C113.111 586.205 117.064 590.205 117.064 595.777C117.064 603.92 107.968 605.063 107.968 611.159V612.778H104.015V611.159ZM103.396 621.922V616.636H108.635V621.922H103.396ZM134.066 628.113V622.589C127.209 621.969 122.637 617.683 122.018 611.254L125.827 609.254C125.827 614.683 128.685 618.445 134.066 619.065V605.54C128.494 604.444 122.78 603.016 122.78 596.11C122.78 590.253 128.018 586.681 134.066 586.205V580.966H137.305V586.252C143.924 586.919 148.067 591.253 148.353 596.11L144.591 597.729C144.591 593.586 141.924 590.396 137.305 589.776V602.349C142.972 603.492 148.877 605.063 148.877 612.254C148.877 618.303 144.115 622.065 137.305 622.589V628.113H134.066ZM126.875 595.872C126.875 599.539 130.114 600.777 134.066 601.682V589.681C129.78 590.11 126.875 592.3 126.875 595.872ZM137.305 619.065C141.733 618.636 144.781 616.207 144.781 612.54C144.781 608.397 141.4 607.064 137.305 606.159V619.065ZM162.108 601.539C157.773 601.539 154.441 598.206 154.441 593.872C154.441 589.491 157.773 586.157 162.108 586.157C166.489 586.157 169.823 589.491 169.823 593.872C169.823 598.206 166.489 601.539 162.108 601.539ZM162.108 598.73C164.87 598.73 166.918 596.634 166.918 593.872C166.918 591.062 164.87 588.967 162.108 588.967C159.346 588.967 157.393 591.062 157.393 593.872C157.393 596.634 159.346 598.73 162.108 598.73ZM155.917 621.922L181.205 586.919H184.777L159.441 621.922H155.917ZM178.776 622.398C174.395 622.398 171.061 619.065 171.061 614.683C171.061 610.35 174.395 607.016 178.776 607.016C183.11 607.016 186.443 610.35 186.443 614.683C186.443 619.065 183.11 622.398 178.776 622.398ZM178.776 619.541C181.538 619.541 183.586 617.445 183.586 614.683C183.586 611.921 181.538 609.826 178.776 609.826C176.014 609.826 174.014 611.921 174.014 614.683C174.014 617.445 176.014 619.541 178.776 619.541ZM194.201 600.111L191.391 597.349L204.297 584.443L217.203 597.349L214.393 600.111L204.297 590.015L194.201 600.111ZM232.87 622.636C226.965 622.636 222.202 619.35 222.202 613.255C222.202 608.492 225.155 605.873 229.584 602.778C226.822 599.634 224.774 597.206 224.774 594.015C224.774 589.681 228.298 586.157 233.489 586.157C238.584 586.157 241.823 589.443 241.823 593.872C241.823 598.253 238.537 601.015 235.251 603.397L243.204 612.493C244.442 610.54 245.49 608.207 246.395 605.54L249.442 608.064C248.442 610.826 247.203 613.302 245.728 615.398L251.395 621.922H246.252L243.156 618.35C240.347 621.065 236.918 622.636 232.87 622.636ZM226.393 613.302C226.393 617.112 229.25 618.874 232.917 618.874C235.918 618.874 238.537 617.684 240.728 615.54L232.108 605.635C228.679 608.111 226.393 610.016 226.393 613.302ZM228.869 594.11C228.869 596.729 230.727 598.491 232.775 600.587C235.299 598.777 237.823 596.587 237.823 593.967C237.823 591.586 236.108 589.776 233.489 589.776C230.965 589.776 228.869 591.396 228.869 594.11ZM260.632 603.92L258.06 602.397L262.203 596.301L254.87 596.729V593.729L262.203 594.158L258.108 588.062L260.632 586.49L263.965 593.205L267.251 586.49L269.823 588.014L265.68 594.158L273.061 593.729V596.729L265.68 596.301L269.871 602.397L267.251 603.92L263.965 597.253L260.632 603.92ZM277.584 595.729C279.774 595.491 280.155 594.539 280.155 592.205H277.584V586.919H282.822V592.11C282.822 595.586 281.441 597.729 277.584 598.11V595.729ZM285.346 595.729C287.537 595.491 287.965 594.539 287.965 592.205H285.346V586.919H290.585V592.11C290.585 595.586 289.251 597.729 285.346 598.11V595.729ZM294.479 621.922L315.671 586.919H319.386L298.146 621.922H294.479ZM343.349 626.351C331.348 626.351 322.776 618.826 322.776 607.016C322.776 595.396 331.491 586.205 344.016 586.205C355.635 586.205 362.779 594.158 362.779 603.73C362.779 610.683 359.588 617.493 352.54 617.493C350.635 617.493 349.349 616.35 349.111 614.397C347.302 616.921 344.444 617.922 341.111 617.922C336.729 617.922 333.538 615.493 333.538 611.778C333.538 607.921 336.491 605.873 340.872 605.063C348.111 603.778 349.016 603.539 349.016 601.111C349.016 598.396 346.397 597.491 343.539 597.491C340.158 597.491 337.444 599.253 337.444 602.92L334.158 601.682C334.491 597.396 338.539 594.491 343.587 594.491C349.206 594.491 352.54 597.11 352.54 601.92V614.35C357.064 614.397 359.541 609.254 359.541 603.73C359.541 596.11 354.112 589.205 344.016 589.205C333.205 589.205 326.109 596.777 326.109 607.016C326.109 617.588 333.11 623.255 343.349 623.255C346.825 623.255 350.492 622.446 353.635 620.731V624.065C350.635 625.494 346.73 626.351 343.349 626.351ZM341.825 615.064C346.349 615.064 349.016 612.254 349.016 608.397V605.778C348.254 606.492 346.825 606.587 341.825 607.635C339.301 608.159 337.348 609.207 337.348 611.731C337.348 613.683 339.015 615.064 341.825 615.064ZM376.86 629.065C370.431 622.398 367.669 615.255 367.669 607.159C367.669 599.063 370.431 591.919 376.86 585.252H380.956C374.098 591.491 371.098 599.492 371.098 607.159C371.098 614.826 374.146 622.827 380.956 629.065H376.86ZM381.894 629.065C388.704 622.827 391.751 614.826 391.751 607.159C391.751 599.492 388.751 591.491 381.894 585.252H385.989C392.466 591.919 395.18 599.063 395.18 607.159C395.18 615.255 392.466 622.398 385.989 629.065H381.894ZM402.403 629.351V585.252H412.118V588.253H405.689V626.351H412.118V629.351H402.403ZM414.04 629.351V626.351H420.421V588.253H414.04V585.252H423.755V629.351H414.04ZM54.0678 670.259C46.3529 670.259 42.2097 663.878 42.2097 652.067C42.2097 640.209 46.3529 633.78 54.0678 633.78C61.735 633.78 65.8306 640.209 65.8306 652.067C65.8306 663.878 61.735 670.259 54.0678 670.259ZM54.0678 666.64C59.1158 666.64 61.8303 661.544 61.8303 652.067C61.8303 642.495 59.1158 637.399 54.0678 637.399C48.9721 637.399 46.21 642.495 46.21 652.067C46.21 661.544 48.9721 666.64 54.0678 666.64ZM79.3347 669.545V640.685L70.6197 651.258V645.686L79.668 634.542H83.2873V669.545H79.3347ZM92.4845 669.545V665.973L102.152 656.306C106.39 652.115 109.914 647.924 109.914 643.59C109.914 639.971 107.486 637.399 103.295 637.399C98.6279 637.399 96.1515 640.542 96.1515 644.733C96.1515 645.352 96.1991 646.067 96.2943 646.781L92.3416 646.114C92.25 645.451 92.2023 644.783 92.1988 644.114C92.1988 638.495 96.6753 633.78 103.39 633.78C109.724 633.78 113.915 637.971 113.915 643.686C113.915 649.019 110.295 653.496 105.628 658.163L97.7707 665.925H114.248V669.545H92.4845ZM130.323 670.259C123.989 670.259 119.37 665.973 118.751 660.163L122.56 658.401C122.703 663.163 125.465 666.64 130.323 666.64C134.99 666.64 138.085 663.592 138.085 659.115C138.085 654.353 135.228 651.353 130.132 651.353C128.466 651.353 127.227 651.639 126.084 652.162L124.56 648.972L135.799 638.114H119.703V634.542H140.705V638.066L129.942 648.257C130.418 648.21 130.894 648.162 131.418 648.162C137.657 648.162 142.086 652.543 142.086 659.068C142.086 665.83 137.466 670.259 130.323 670.259ZM162.605 669.545V661.354H145.985V657.734L162.558 634.542H166.51V657.734H171.654V661.354H166.51V669.545H162.605ZM150.319 657.734H162.605V640.59L150.319 657.734ZM186.644 670.259C180.596 670.259 176.072 666.783 175.31 661.02L178.977 659.496C179.215 663.878 182.12 666.687 186.644 666.687C191.311 666.687 194.406 663.401 194.406 658.782C194.406 653.924 191.501 650.734 186.93 650.734C183.786 650.734 181.262 652.258 179.739 654.544L176.31 653.734L177.357 634.542H197.216V638.066H180.929L180.215 650.21C182.072 648.495 184.263 647.352 187.453 647.352C194.073 647.352 198.407 651.877 198.407 658.782C198.407 665.592 193.692 670.259 186.644 670.259ZM215.211 670.259C207.686 670.259 203.495 664.64 203.495 654.163C203.495 642.685 206.972 633.78 216.115 633.78C221.878 633.78 226.021 637.161 226.545 642.257L222.878 643.733C222.592 639.542 219.83 637.304 216.068 637.304C210.02 637.304 207.448 643.828 207.4 652.496C208.782 649.829 212.21 647.876 216.02 647.876C222.259 647.876 226.735 652.496 226.735 659.068C226.735 665.64 221.925 670.259 215.211 670.259ZM215.401 666.687C219.687 666.687 222.735 663.497 222.735 659.068C222.735 654.591 219.782 651.448 215.592 651.448C211.115 651.448 207.924 654.591 207.924 659.02C207.924 663.497 211.02 666.687 215.401 666.687ZM236.059 669.545C236.059 655.925 241.203 644.162 248.727 638.066H230.488V634.542H253.299V637.971C244.108 644.733 240.012 656.163 240.012 669.545H236.059ZM268.087 670.259C261.277 670.259 256.61 666.116 256.61 660.258C256.61 656.02 259.277 652.543 262.944 651.448C259.705 650.496 257.229 647.257 257.229 643.257C257.229 637.685 261.658 633.78 268.087 633.78C274.516 633.78 278.897 637.685 278.897 643.257C278.897 647.21 276.468 650.4 273.325 651.448C276.849 652.543 279.516 656.02 279.516 660.258C279.516 666.116 274.849 670.259 268.087 670.259ZM268.087 666.783C272.468 666.783 275.516 663.925 275.516 660.068C275.516 656.02 272.468 653.258 268.087 653.258C263.706 653.258 260.658 656.02 260.658 660.068C260.658 663.925 263.706 666.783 268.087 666.783ZM268.087 649.877C272.135 649.877 274.992 647.257 274.992 643.447C274.992 639.78 272.135 637.209 268.087 637.209C264.039 637.209 261.182 639.78 261.182 643.447C261.182 647.257 264.039 649.877 268.087 649.877ZM295.743 670.259C289.79 670.259 285.694 666.545 285.171 661.068L288.79 659.592C289.076 664.116 291.79 666.735 295.79 666.735C302.267 666.735 304.029 660.496 303.982 651.639C302.601 654.21 299.172 656.163 295.314 656.163C289.266 656.163 284.647 651.543 284.647 644.971C284.647 638.399 289.314 633.78 296.029 633.78C303.458 633.78 307.934 639.161 307.934 649.638C307.934 661.401 305.41 670.259 295.743 670.259ZM295.79 652.591C300.41 652.591 303.458 649.448 303.458 645.019C303.458 640.447 300.457 637.352 295.981 637.352C291.552 637.352 288.552 640.4 288.552 644.924C288.552 649.543 291.552 652.591 295.79 652.591ZM56.6612 131.329H122.792V141.735H68.1621V175.553H118.821V185.958H68.1621V221.557H123.065V231.962H56.6612V131.329ZM179.13 234.016C171.737 234.016 165.165 232.692 159.414 230.045C153.755 227.307 149.191 223.473 145.723 218.544C142.346 213.615 140.338 207.865 139.699 201.293L150.652 195.543C150.652 204.305 153.116 211.242 158.045 216.354C163.066 221.465 170.094 224.021 179.13 224.021C186.798 224.021 193.05 222.332 197.888 218.955C202.725 215.487 205.144 210.831 205.144 204.99C205.144 200.517 203.866 197.049 201.311 194.584C198.846 192.028 195.743 190.157 192 188.971C188.258 187.784 183.101 186.552 176.529 185.274C168.953 183.813 162.883 182.307 158.319 180.756C153.755 179.113 149.876 176.511 146.681 172.951C143.487 169.3 141.889 164.234 141.889 157.754C141.889 151.912 143.578 146.846 146.955 142.556C150.332 138.175 154.805 134.843 160.373 132.561C165.941 130.279 171.965 129.138 178.446 129.138C185.565 129.138 191.863 130.462 197.34 133.109C202.908 135.665 207.244 139.133 210.347 143.515C213.451 147.896 215.139 152.642 215.413 157.754L204.597 162.409C204.597 155.563 202.223 149.995 197.477 145.705C192.822 141.324 186.478 139.133 178.446 139.133C171.052 139.133 165.074 140.731 160.51 143.925C155.946 147.12 153.664 151.501 153.664 157.069C153.664 160.994 154.851 164.098 157.224 166.379C159.597 168.661 162.564 170.396 166.123 171.582C169.774 172.678 174.703 173.864 180.91 175.142C188.578 176.694 194.784 178.337 199.531 180.071C204.368 181.714 208.476 184.452 211.853 188.286C215.23 192.12 216.919 197.414 216.919 204.168C216.919 210.284 215.322 215.624 212.127 220.187C208.932 224.66 204.46 228.083 198.709 230.456C193.05 232.829 186.524 234.016 179.13 234.016ZM268.587 131.329H280.088V180.345L328.556 131.329H343.617L301.447 174.047L348.135 231.962H334.033L293.369 181.988L280.088 195.132V231.962H268.587V131.329ZM360.532 131.329H371.759V231.962H360.532V131.329ZM413.537 234.016C406.509 234.016 400.758 232.19 396.286 228.539C391.904 224.797 389.714 219.914 389.714 213.889C389.714 208.048 391.813 203.347 396.012 199.787C400.302 196.227 406.417 193.763 414.358 192.393C422.208 190.933 427.685 189.746 430.788 188.834C433.983 187.921 436.128 186.826 437.223 185.548C438.41 184.27 439.003 182.307 439.003 179.66C439.003 175.644 437.36 172.678 434.074 170.761C430.788 168.844 426.59 167.886 421.478 167.886C415.728 167.886 410.981 169.392 407.239 172.404C403.588 175.416 401.762 179.752 401.762 185.411L391.494 181.303C391.859 176.831 393.41 172.906 396.149 169.529C398.887 166.06 402.447 163.367 406.828 161.451C411.301 159.534 416.184 158.575 421.478 158.575C430.423 158.575 437.406 160.629 442.426 164.737C447.538 168.753 450.093 174.549 450.093 182.125V218.955L452.284 231.962H442.563L439.277 222.104C436.539 226.029 432.888 228.996 428.324 231.004C423.851 233.012 418.922 234.016 413.537 234.016ZM415.865 224.979C422.984 224.979 428.598 222.926 432.705 218.818C436.904 214.711 439.003 209.508 439.003 203.21V194.721C437.908 195.725 435.991 196.592 433.253 197.322C430.606 198.053 425.312 199.148 417.371 200.608C412.168 201.704 408.243 203.21 405.596 205.127C403.04 206.952 401.762 209.69 401.762 213.342C401.762 216.719 402.994 219.503 405.459 221.693C408.015 223.884 411.483 224.979 415.865 224.979ZM470.556 160.766H481.783V173.362C484.339 168.433 487.762 164.919 492.052 162.82C496.342 160.629 500.769 159.534 505.333 159.534C506.611 159.534 508.071 159.671 509.714 159.944V171.582C507.706 171.126 505.835 170.898 504.101 170.898C497.164 170.898 491.687 172.997 487.671 177.196C483.746 181.395 481.783 188.149 481.783 197.459V231.962H470.556V160.766ZM523.52 131.329H534.747V171.172C539.676 162.865 547.617 158.712 558.57 158.712C567.242 158.712 573.951 161.268 578.697 166.379C583.535 171.4 585.953 178.337 585.953 187.191V231.962H574.726V189.108C574.726 182.444 573.175 177.424 570.071 174.047C566.968 170.578 562.404 168.844 556.38 168.844C549.716 168.844 544.422 170.943 540.498 175.142C536.664 179.25 534.747 184.954 534.747 192.257V231.962H523.52V131.329ZM637.355 234.016C630.236 234.016 623.938 232.464 618.461 229.361C613.076 226.166 608.877 221.739 605.865 216.08C602.853 210.329 601.347 203.757 601.347 196.364C601.347 189.244 602.853 182.809 605.865 177.059C608.877 171.308 613.03 166.79 618.324 163.504C623.71 160.218 629.688 158.575 636.26 158.575C643.288 158.575 649.404 160.127 654.607 163.23C659.81 166.243 663.78 170.533 666.518 176.101C669.257 181.577 670.626 187.921 670.626 195.132C670.626 196.227 670.535 197.87 670.352 200.061H612.984C613.623 207.728 616.179 213.661 620.652 217.86C625.124 221.967 630.738 224.021 637.492 224.021C648.902 224.021 656.706 219.183 660.905 209.508L669.531 216.764C666.518 222.515 662.092 226.851 656.25 229.771C650.499 232.601 644.201 234.016 637.355 234.016ZM658.44 191.024V190.751C658.44 183.905 656.387 178.519 652.279 174.594C648.263 170.578 642.923 168.57 636.26 168.57C630.327 168.57 625.216 170.533 620.926 174.458C616.636 178.382 614.034 183.905 613.121 191.024H658.44ZM687.83 160.766H699.057V231.962H687.83V160.766ZM686.461 131.329H700.289V145.021H686.461V131.329ZM747.303 233.742C740.092 233.742 734.661 232.145 731.01 228.95C727.45 225.755 725.67 220.552 725.67 213.342V171.035H713.211V160.766H725.67V142.967L736.897 134.478V160.766H757.434V171.035H736.897V211.972C736.897 215.258 737.354 217.723 738.266 219.366C739.179 221.009 740.457 222.104 742.1 222.652C743.834 223.108 746.162 223.336 749.083 223.336C751.091 223.336 753.373 223.063 755.928 222.515V232.51C755.016 232.875 753.646 233.149 751.821 233.331C750.087 233.605 748.581 233.742 747.303 233.742ZM848.646 234.016C839.884 234.016 831.805 231.916 824.412 227.718C817.11 223.428 811.314 217.312 807.024 209.371C802.734 201.43 800.589 192.165 800.589 181.577C800.589 170.989 802.916 161.724 807.571 153.783C812.318 145.842 818.57 139.772 826.329 135.573C834.179 131.283 842.713 129.138 851.932 129.138C861.06 129.138 869.594 131.238 877.535 135.437C885.568 139.544 891.683 145.386 895.882 152.962L886.709 159.808C883.697 153.327 879.041 148.352 872.743 144.884C866.536 141.324 859.554 139.544 851.795 139.544C844.767 139.544 838.241 141.187 832.216 144.473C826.192 147.759 821.354 152.551 817.703 158.849C814.052 165.147 812.227 172.678 812.227 181.44C812.227 190.294 813.87 197.916 817.156 204.305C820.533 210.603 825.142 215.395 830.984 218.681C836.917 221.967 843.626 223.61 851.111 223.61C857.409 223.61 863.068 222.195 868.088 219.366C873.108 216.536 877.079 212.611 880 207.591C883.012 202.48 884.655 196.729 884.929 190.34H851.384V180.208H896.293V231.962H884.792V214.3C881.232 220.05 876.531 224.797 870.69 228.539C864.848 232.19 857.5 234.016 848.646 234.016ZM917.271 160.766H928.498V173.362C931.054 168.433 934.476 164.919 938.766 162.82C943.056 160.629 947.483 159.534 952.047 159.534C953.325 159.534 954.786 159.671 956.429 159.944V171.582C954.42 171.126 952.549 170.898 950.815 170.898C943.878 170.898 938.401 172.997 934.385 177.196C930.46 181.395 928.498 188.149 928.498 197.459V231.962H917.271V160.766ZM999.207 234.016C992.182 234.016 985.789 232.419 980.039 229.224C974.288 226.029 969.724 221.602 966.347 215.943C963.061 210.193 961.418 203.666 961.418 196.364C961.418 189.062 963.061 182.536 966.347 176.785C969.724 171.035 974.288 166.562 980.039 163.367C985.789 160.173 992.182 158.575 999.207 158.575C1006.23 158.575 1012.62 160.173 1018.37 163.367C1024.22 166.562 1028.78 171.035 1032.07 176.785C1035.44 182.536 1037.14 189.062 1037.14 196.364C1037.14 203.666 1035.44 210.193 1032.07 215.943C1028.78 221.602 1024.22 226.029 1018.37 229.224C1012.62 232.419 1006.23 234.016 999.207 234.016ZM999.207 223.61C1004.32 223.61 1008.88 222.469 1012.9 220.187C1016.92 217.905 1020.02 214.711 1022.2 210.603C1024.49 206.496 1025.63 201.749 1025.63 196.364C1025.63 190.887 1024.49 186.095 1022.2 181.988C1020.02 177.88 1016.92 174.686 1012.9 172.404C1008.88 170.122 1004.32 168.981 999.207 168.981C994.097 168.981 989.531 170.122 985.515 172.404C981.59 174.686 978.487 177.88 976.205 181.988C974.014 186.095 972.919 190.887 972.919 196.364C972.919 201.749 974.06 206.496 976.342 210.603C978.624 214.711 981.727 217.905 985.652 220.187C989.668 222.469 994.187 223.61 999.207 223.61ZM1080.63 233.742C1073.42 233.742 1067.99 232.145 1064.34 228.95C1060.78 225.755 1059 220.552 1059 213.342V171.035H1046.54V160.766H1059V142.967L1070.22 134.478V160.766H1090.76V171.035H1070.22V211.972C1070.22 215.258 1070.68 217.723 1071.59 219.366C1072.51 221.009 1073.79 222.104 1075.43 222.652C1077.17 223.108 1079.49 223.336 1082.42 223.336C1084.42 223.336 1086.7 223.063 1089.26 222.515V232.51C1088.35 232.875 1086.98 233.149 1085.16 233.331C1083.42 233.605 1081.91 233.742 1080.63 233.742ZM1137.82 234.016C1130.7 234.016 1124.41 232.464 1118.93 229.361C1113.54 226.166 1109.34 221.739 1106.33 216.08C1103.31 210.329 1101.81 203.757 1101.81 196.364C1101.81 189.244 1103.31 182.809 1106.33 177.059C1109.34 171.308 1113.49 166.79 1118.79 163.504C1124.18 160.218 1130.15 158.575 1136.73 158.575C1143.75 158.575 1149.86 160.127 1155.07 163.23C1160.27 166.243 1164.24 170.533 1166.98 176.101C1169.72 181.577 1171.09 187.921 1171.09 195.132C1171.09 196.227 1171 197.87 1170.82 200.061H1113.45C1114.09 207.728 1116.65 213.661 1121.11 217.86C1125.59 221.967 1131.2 224.021 1137.96 224.021C1149.37 224.021 1157.17 219.183 1161.37 209.508L1169.99 216.764C1166.98 222.515 1162.55 226.851 1156.71 229.771C1150.96 232.601 1144.66 234.016 1137.82 234.016ZM1158.9 191.024V190.751C1158.9 183.905 1156.85 178.519 1152.74 174.594C1148.72 170.578 1143.39 168.57 1136.73 168.57C1130.79 168.57 1125.68 170.533 1121.39 174.458C1117.1 178.382 1114.49 183.905 1113.58 191.024H1158.9ZM1214.99 234.016C1206.05 234.016 1198.79 231.962 1193.22 227.855C1187.74 223.747 1184.46 218.407 1183.37 211.836L1194.59 207.18C1194.78 212.657 1196.69 216.947 1200.34 220.05C1203.99 223.063 1208.88 224.569 1214.99 224.569C1220.11 224.569 1224.21 223.656 1227.31 221.83C1230.42 219.914 1231.97 217.084 1231.97 213.342C1231.97 210.968 1231.15 209.052 1229.5 207.591C1227.87 206.131 1225.76 205.035 1223.2 204.305C1220.74 203.484 1217.37 202.617 1213.07 201.704C1207.33 200.517 1202.63 199.285 1198.97 198.007C1195.32 196.729 1192.22 194.675 1189.66 191.846C1187.11 188.925 1185.83 185 1185.83 180.071C1185.83 176.055 1187.11 172.404 1189.66 169.118C1192.22 165.832 1195.64 163.276 1199.93 161.451C1204.22 159.534 1208.88 158.575 1213.9 158.575C1222.02 158.575 1228.73 160.492 1234.03 164.326C1239.4 168.159 1242.47 173.225 1243.19 179.523L1232.52 183.494C1232.15 178.656 1230.33 174.868 1227.04 172.13C1223.85 169.392 1219.46 168.022 1213.9 168.022C1208.79 168.022 1204.77 169.118 1201.85 171.308C1198.93 173.408 1197.47 176.101 1197.47 179.386C1197.47 182.855 1199.06 185.411 1202.26 187.054C1205.45 188.605 1210.33 190.02 1216.91 191.298C1222.66 192.485 1227.36 193.763 1231.01 195.132C1234.66 196.41 1237.77 198.463 1240.32 201.293C1242.88 204.031 1244.16 207.774 1244.16 212.52C1244.16 219.183 1241.56 224.432 1236.35 228.265C1231.15 232.099 1224.03 234.016 1214.99 234.016ZM1261.58 131.329H1272.81V193.352L1306.49 160.766H1321.42L1291.98 189.244L1324.01 231.962H1310.46L1284.17 196.775L1272.81 207.728V231.962H1261.58V131.329Z" fill="#0A2F38"/>
</g>
</g>
</g>
</g>
</g>
</g>
<defs>
<linearGradient id="paint0_linear_7_6118" x1="-170.199" y1="-108.343" x2="2013.7" y2="404.087" gradientUnits="userSpaceOnUse">
<stop stop-color="#FBF7F0"/>
<stop offset="1" stop-color="#FBF7F0"/>
</linearGradient>
<clipPath id="clip0_7_6118">
<rect width="1389" height="794.5" fill="white"/>
</clipPath>
<clipPath id="clip1_7_6118">
<rect y="0.800049" width="1389" height="793.7" rx="24" fill="white"/>
</clipPath>
<clipPath id="clip2_7_6118">
<rect y="0.800049" width="1389" height="793.7" rx="16" fill="white"/>
</clipPath>
<clipPath id="clip3_7_6118">
<rect width="1389" height="793.7" fill="white" transform="translate(0 0.800049)"/>
</clipPath>
<clipPath id="clip4_7_6118">
<rect width="1389" height="793.714" fill="white" transform="translate(0 0.792969)"/>
</clipPath>
</defs>
</svg>
