<svg width="252" height="91" viewBox="0 0 252 91" fill="none" xmlns="http://www.w3.org/2000/svg">
<path d="M233.73 80.3324C233.73 76.8297 234.582 74.3684 236.286 72.9484C237.99 71.5284 240.026 70.8184 242.392 70.8184C244.854 70.8184 246.936 71.5284 248.64 72.9484C250.439 74.3684 251.338 76.8297 251.338 80.3324C251.338 83.7404 250.439 86.2017 248.64 87.7164C246.936 89.231 244.854 89.9884 242.392 89.9884C240.026 89.9884 237.99 89.231 236.286 87.7164C234.582 86.2017 233.73 83.7404 233.73 80.3324Z" fill="currentColor"/>
<path d="M148.629 87.9998V64.5698L173.621 35.4598H149.623V2.7998H224.031V26.2298L199.039 55.3398H225.593V87.9998H148.629Z" fill="currentColor"/>
<path d="M79.3535 87.9998V2.7998H145.81V28.3598H114.144V32.6198H140.13V58.1798H114.144V62.4398H145.81V87.9998H79.3535Z" fill="currentColor"/>
<path d="M44.5706 90.1299C18.1586 90.1299 0.976562 69.2559 0.976562 45.3999C0.976562 20.9759 18.5846 0.669922 44.7126 0.669922C55.6466 0.669922 65.1606 3.79392 74.3906 9.61592V43.1279C68.5686 37.3059 59.4806 31.9099 51.8126 31.9099C40.4526 31.9099 36.1926 39.2939 36.1926 45.1159C36.1926 51.7899 41.0206 58.1799 50.8186 58.1799C59.4806 58.1799 67.1486 54.0619 74.3906 47.8139V81.3259C65.3026 86.7219 56.0726 90.1299 44.5706 90.1299Z" fill="currentColor"/>
</svg>
