<svg width="130" height="34" viewBox="0 0 130 34" fill="none" xmlns="http://www.w3.org/2000/svg">
<path fill-rule="evenodd" clip-rule="evenodd" d="M35.914 21.8143C36.713 21.8543 38.299 21.8803 39.231 21.8803C47.218 21.8803 51.319 19.3913 51.319 14.0333C51.319 9.41426 47.943 6.34027 40.592 6.34027C31.694 6.34027 28.134 10.2883 27.329 17.3533C26.028 17.2733 24.612 17.2403 22.67 17.2313C22.674 16.8483 22.678 16.4613 22.678 16.0663C22.678 8.90428 19.69 6.30829 11.739 6.30829C7.84701 6.30829 4.418 6.88827 2.327 7.73227L2.63501 13.4463C4.45601 12.4813 7.17401 11.5593 9.76001 11.5593C13.402 11.5593 14.508 13.0463 14.508 16.6263L14.503 17.1593C14.251 17.1523 13.612 17.1453 13.26 17.1453C4.19101 17.1453 0 19.8723 0 24.9273C0 30.1363 2.61001 33.1992 10.036 33.1992C11.881 33.1992 13.712 33.0772 15.652 32.9492C17.839 32.8042 20.165 32.6493 22.805 32.6493C22.443 30.5623 22.43 27.5583 22.43 25.4983C22.43 24.5073 22.476 23.3373 22.527 22.0243L22.543 21.6373C24.672 21.6543 26.241 21.7083 27.277 21.7583C28.034 30.1363 32.408 33.2313 41.503 33.2313C44.865 33.2313 48.267 32.6623 50.045 31.8353L49.735 26.1183C47.969 27.1413 45.505 27.9713 42.807 27.9713C38.331 27.9713 35.916 25.6493 35.916 21.9913L35.914 21.8143ZM70.324 32.6053L69.971 26.9193C69.473 27.2493 68.49 27.5043 67.663 27.5043C64.993 27.5043 64.207 26.4533 64.207 22.5963V12.6483H69.481V7.11829H64.29C64.294 5.16229 64.444 2.27227 64.616 0.280273H59.727C59.078 5.11527 57.675 7.60028 53.231 8.33328C53.223 8.88428 53.23 9.52028 53.238 10.1643V10.1653C53.249 11.0413 53.26 11.9313 53.231 12.6463H56.192L56.18 13.4153C56.133 16.2643 56.059 20.8053 56.059 24.9763C56.059 30.8093 59.103 33.1992 64.816 33.1992C67.6 33.1992 69.648 32.8013 70.324 32.6053ZM124.647 9.03027C124.647 9.47427 124.977 9.64828 125.384 9.64828C125.832 9.64828 125.998 9.43028 125.998 9.21228C125.998 8.99028 125.877 8.90126 125.758 8.85626C125.629 8.80726 125.474 8.76826 125.276 8.71826H125.275C125.163 8.68926 125.036 8.65729 124.891 8.61829C124.395 8.48429 124.249 8.18526 124.249 7.88626C124.249 7.30826 124.786 7.03726 125.311 7.03726C125.917 7.03726 126.426 7.35628 126.426 7.95828H125.917C125.893 7.58628 125.641 7.44928 125.291 7.44928C125.055 7.44928 124.757 7.53429 124.757 7.82529C124.757 8.02729 124.896 8.14027 125.103 8.19727C125.116 8.20027 125.177 8.21628 125.262 8.23828C125.475 8.29428 125.834 8.38828 125.942 8.41928C126.324 8.53328 126.508 8.85627 126.508 9.15527C126.508 9.80227 125.929 10.0613 125.351 10.0613C124.688 10.0613 124.151 9.74627 124.139 9.03027H124.647ZM126.983 7.10626H127.7L128.501 9.36627H128.51L129.291 7.10626H130V9.99329H129.515V7.76529H129.508L128.701 9.99329H128.282L127.476 7.76529H127.468V9.99329H126.983V7.10626ZM97.252 20.7423C97.252 18.5803 97.296 15.7033 97.296 15.7033C97.296 9.23428 94.437 6.32828 86.363 6.32828C84.158 6.32828 82.262 6.51527 80.314 6.70627C78.255 6.90927 76.137 7.11728 73.536 7.11728C73.818 11.6593 73.83 17.2723 73.808 20.7423C73.83 24.2793 73.691 30.6083 73.536 32.6483H82.214C82.015 30.6013 81.841 24.7143 81.863 20.7423C81.863 18.4823 81.895 15.7453 81.982 12.0713C82.844 11.7763 83.945 11.5583 85.135 11.5583C88.174 11.5583 89.151 12.9733 89.151 16.8633C89.151 16.8633 89.197 19.3023 89.197 20.7423C89.197 24.2793 89.078 30.6083 88.923 32.6483H97.603C97.403 30.6013 97.229 24.7143 97.252 20.7423ZM14.438 27.9293C14.329 26.4203 14.35 24.3353 14.37 22.4093V22.4083C14.373 22.1163 14.376 21.8293 14.379 21.5483C14.133 21.5233 13.808 21.5253 13.508 21.5263C13.438 21.5263 13.369 21.5273 13.303 21.5273C9.52601 21.5273 8.026 22.7863 8.026 25.0033C8.026 27.2993 9.20599 28.2153 11.973 28.2153C12.814 28.2153 13.782 28.1053 14.438 27.9293ZM43.421 13.8693C43.421 16.3663 41.748 17.5303 38.255 17.5303C37.414 17.5303 36.525 17.5153 35.872 17.4643L35.871 17.3333C35.871 13.7453 37.02 11.1173 40.327 11.1173C42.207 11.1173 43.421 12.0943 43.421 13.8693ZM123.385 32.6493C120.744 32.6493 118.417 32.8042 116.23 32.9492C114.29 33.0772 112.46 33.1992 110.617 33.1992C103.19 33.1992 100.58 30.1363 100.58 24.9273C100.58 19.8723 104.77 17.1453 113.84 17.1453C114.191 17.1453 114.83 17.1523 115.083 17.1593L115.087 16.6263C115.087 13.0463 113.982 11.5593 110.34 11.5593C107.753 11.5593 105.035 12.4813 103.215 13.4463L102.907 7.73227C104.998 6.88827 108.428 6.30829 112.318 6.30829C120.272 6.30829 123.257 8.90428 123.257 16.0663C123.257 18.2233 123.179 20.2073 123.11 21.9413C123.057 23.2893 123.01 24.4863 123.01 25.4983C123.01 27.5583 123.022 30.5623 123.385 32.6493ZM114.949 22.4463C114.93 24.3613 114.909 26.4293 115.017 27.9293C114.361 28.1053 113.393 28.2153 112.553 28.2153C109.785 28.2153 108.607 27.2993 108.607 25.0033C108.607 22.7863 110.106 21.5273 113.884 21.5273C113.95 21.5273 114.019 21.5263 114.089 21.5263C114.388 21.5253 114.713 21.5233 114.958 21.5483C114.955 21.8413 114.952 22.1423 114.949 22.4463Z" fill="#0B0B0B"/>
</svg>
