<svg width="80" height="81" viewBox="0 0 80 81" fill="none" xmlns="http://www.w3.org/2000/svg">
<path d="M80 40.7819C79.983 46.0589 78.921 51.2809 76.876 56.1469C74.83 61.0129 71.841 65.4269 68.08 69.1359C64.32 72.8439 59.862 75.7729 54.964 77.7539C50.0657 79.7349 44.8234 80.7289 39.5388 80.6799C28.9446 80.5479 18.8347 76.2279 11.4239 68.6659C4.01314 61.1049 -0.094161 50.9179 0.00163899 40.3389C0.057339 35.0729 1.15454 29.8699 3.23044 25.0299C5.30624 20.1889 8.31964 15.8059 12.0974 12.1319C15.8752 8.4579 20.3428 5.56589 25.2436 3.62189C30.1443 1.67789 35.3814 0.720892 40.6539 0.804892C51.1485 0.994892 61.149 5.2889 68.507 12.7649C75.864 20.2399 79.991 30.2999 80 40.7819ZM77.749 40.7819C77.747 30.8529 73.829 21.3249 66.842 14.2609C59.856 7.1979 50.3636 3.1659 40.4221 3.0409C35.4285 2.9869 30.4738 3.9229 25.8446 5.7929C21.2153 7.6639 17.0034 10.4329 13.4527 13.9389C9.90194 17.4459 7.08274 21.6209 5.15814 26.2229C3.23354 30.8239 2.24184 35.7609 2.24044 40.7479C2.24924 50.7409 6.22764 60.3209 13.3023 67.3879C20.377 74.4539 29.97 78.4289 39.9763 78.4399C49.9809 78.4319 59.574 74.4639 66.655 67.4049C73.735 60.3459 77.725 50.7729 77.749 40.7819Z" fill="#0B0B0B"/>
<path d="M54.538 53.1513C54.521 53.3803 54.489 53.6083 54.489 53.8353C54.486 57.6773 54.486 61.5183 54.489 65.3593C54.489 67.7083 54.478 70.0573 54.499 72.4063C54.522 72.5893 54.479 72.7743 54.377 72.9283C54.275 73.0813 54.121 73.1933 53.943 73.2423C52.2017 73.9693 50.4096 74.5683 48.5809 75.0333C48.4644 75.0623 48.3463 75.0843 48.2273 75.0993C48.1674 75.1003 48.1076 75.0943 48.0488 75.0823V42.3403C48.2351 42.3283 48.3996 42.3093 48.5642 42.3083C50.2643 42.3083 51.9644 42.3173 53.664 42.2993C53.824 42.2903 53.983 42.3233 54.126 42.3943C54.268 42.4653 54.39 42.5733 54.478 42.7063C57.538 46.6503 60.605 50.5883 63.68 54.5203C63.792 54.6653 63.917 54.7983 64.052 54.9583C64.245 54.7663 64.188 54.5703 64.188 54.3953C64.194 52.6473 64.195 50.8983 64.192 49.1493V42.3403H70.612C70.625 42.5383 70.646 42.7203 70.646 42.9023C70.646 47.9613 70.648 53.0203 70.65 58.0783C70.663 58.3513 70.597 58.6223 70.46 58.8593C68.948 61.3563 67.137 63.6613 65.067 65.7223C64.972 65.8163 64.864 65.8983 64.726 66.0153L54.663 53.1163L54.538 53.1513Z" fill="#0B0B0B"/>
<path d="M37.8265 5.16231C39.9945 4.99031 42.1745 5.0453 44.3311 5.3253C44.3344 7.2433 44.3311 9.1063 44.3311 10.9693C44.3311 12.8313 44.3311 14.7073 44.3311 16.5763V33.4933C45.2551 33.5793 46.1268 33.5253 46.9952 33.5353C47.8541 33.5443 48.7125 33.5353 49.5709 33.5353H52.175C52.3019 35.4083 52.3204 37.2873 52.2305 39.1623C51.878 39.2733 38.651 39.3133 37.8905 39.2073C37.8768 39.1973 37.8639 39.1863 37.8521 39.1733C37.8404 39.1613 37.8317 39.1473 37.8265 39.1313C37.8112 39.0833 37.8016 39.0323 37.7982 38.9813C37.796 27.8363 37.7949 16.6913 37.7949 5.5453C37.7977 5.4453 37.8121 5.34331 37.8265 5.16231Z" fill="#0B0B0B"/>
<path d="M55.928 8.81934C56.681 9.23634 57.393 9.61133 58.086 10.0193C59.443 10.8263 60.749 11.7183 61.993 12.6893C62.124 12.7803 62.229 12.9043 62.298 13.0473C62.367 13.1913 62.397 13.3503 62.386 13.5083C62.376 19.9213 62.373 26.3343 62.379 32.7473V33.4693C62.625 33.4943 62.837 33.5343 63.049 33.5343C65.35 33.5403 67.651 33.5413 69.952 33.5383H70.539C70.673 35.4133 70.689 37.2953 70.588 39.1723C70.229 39.2733 56.63 39.3083 55.936 39.2103C55.818 38.8543 55.791 9.45934 55.928 8.81934Z" fill="#0B0B0B"/>
<path d="M37.8453 42.3301H44.2421C44.2582 42.3451 44.2715 42.3561 44.2832 42.3691C44.2949 42.3821 44.3115 42.3931 44.3143 42.4081C44.3309 42.4741 44.3414 42.5411 44.3455 42.6091C44.3455 53.5821 44.3455 64.5551 44.3455 75.5271C44.3375 75.6191 44.3239 75.7101 44.3049 75.8001C42.1782 76.0921 40.0265 76.1581 37.8859 75.9971C37.7819 75.5781 37.7447 43.1321 37.8453 42.3301Z" fill="#0B0B0B"/>
<path d="M6.79189 42.4551H34.4857C34.6084 44.3341 34.627 46.2181 34.5414 48.0981C34.444 48.1371 34.3431 48.1671 34.2401 48.1861C34.0859 48.1961 33.9313 48.1981 33.7769 48.1921C25.2773 48.1921 16.7773 48.1921 8.27689 48.1921C7.40899 48.1921 7.53119 48.2541 7.40109 47.4781C7.16379 46.0601 6.98599 44.6321 6.79469 43.2071C6.77779 42.9571 6.77679 42.7051 6.79189 42.4551Z" fill="#0B0B0B"/>
<path d="M34.3351 59.7675H33.7792C26.8762 59.7675 19.9726 59.7715 13.0685 59.7775C12.8856 59.7955 12.7013 59.7595 12.5384 59.6745C12.3755 59.5895 12.2409 59.4595 12.1511 59.2995C11.1752 57.8065 10.3095 56.2435 9.56101 54.6255C9.48431 54.4585 9.42081 54.2825 9.33301 54.0645H34.3685C34.4897 55.9645 34.4785 57.8695 34.3351 59.7675Z" fill="#0B0B0B"/>
<path d="M17.7188 65.4072H34.5448V71.0882C34.4011 71.1152 34.2557 71.1342 34.1095 71.1432C31.6712 71.1472 29.2328 71.1472 26.7944 71.1432C26.5895 71.1442 26.3866 71.1042 26.1979 71.0242C23.1761 69.6532 20.3799 67.8332 17.9044 65.6262C17.8386 65.5562 17.7765 65.4832 17.7188 65.4072Z" fill="#0B0B0B"/>
<path d="M25.2961 15.1484H19.0255C15.638 23.1504 12.2434 31.1704 8.8418 39.2064C9.0208 39.2274 9.1197 39.2474 9.2159 39.2484C11.2417 39.2484 13.2682 39.2424 15.2941 39.2564C15.4205 39.2704 15.5478 39.2384 15.652 39.1654C15.7562 39.0924 15.8302 38.9844 15.8601 38.8604C16.3048 37.7124 16.7713 36.5694 17.2322 35.4254C17.4273 34.9404 17.4306 34.9384 17.9359 34.9374C20.7156 34.9374 23.4974 34.9374 26.2812 34.9374C26.8121 34.9374 26.8149 34.9374 27.0234 35.4484C27.492 36.5894 27.9651 37.7284 28.4188 38.8754C28.4525 38.9974 28.5294 39.1034 28.6353 39.1734C28.7412 39.2434 28.869 39.2724 28.9948 39.2564C31.0552 39.2434 33.116 39.2504 35.1763 39.2474C35.2886 39.2394 35.4001 39.2234 35.51 39.1984C35.3437 38.5434 25.5379 15.4594 25.2961 15.1484ZM24.1175 30.7914C23.7132 30.6464 23.3418 30.4234 23.0251 30.1334C22.6948 29.9194 22.3852 29.6744 22.0355 29.4194C21.3789 29.8874 20.729 30.3484 20.0796 30.8104L19.9873 30.7544C20.0073 30.6154 20.0351 30.4784 20.0702 30.3424C20.2276 29.8354 20.3743 29.3234 20.5644 28.8294C20.5945 28.7734 20.6127 28.7114 20.6179 28.6484C20.6231 28.5854 20.6151 28.5214 20.5946 28.4614C20.574 28.4014 20.5413 28.3454 20.4985 28.2984C20.4556 28.2514 20.4034 28.2144 20.3454 28.1884C19.9462 27.9224 19.5638 27.6304 19.178 27.3474C19.0423 27.2474 18.9122 27.1414 18.7048 26.9804C18.835 26.9394 18.9686 26.9094 19.104 26.8914L21.3217 26.5134C21.4657 26.0204 21.6296 25.5334 21.7914 25.0464C21.8426 24.8924 21.9142 24.7464 22.0249 24.4794C22.1311 24.7314 22.1956 24.8614 22.2412 24.9974C22.408 25.4974 22.5865 26.0014 22.7338 26.5104C22.7515 26.6294 22.8156 26.7354 22.912 26.8074C23.0084 26.8784 23.1291 26.9094 23.2479 26.8914C23.8144 26.8774 24.381 26.8864 24.9475 26.8914C25.0774 26.9044 25.2065 26.9244 25.334 26.9524C24.6935 27.5634 23.9708 27.9294 23.3826 28.4704C23.6233 29.2324 23.859 29.9764 24.1175 30.7914Z" fill="#0B0B0B"/>
</svg>
