<svg width="174" height="67" viewBox="0 0 174 67" fill="none" xmlns="http://www.w3.org/2000/svg">
<path fill-rule="evenodd" clip-rule="evenodd" d="M58 59.4213C58 55.4383 59.9932 52.4863 64.0011 52.4863C68.0091 52.4863 70 55.4383 70 59.4213C70 63.5693 68.0909 66.4663 64.0011 66.4663C59.9148 66.4663 58 63.5693 58 59.4213ZM62.4619 59.4203C62.4619 62.7983 62.9355 63.7553 64.0008 63.7553C65.0616 63.7553 65.5386 62.7993 65.5386 59.4203C65.5386 56.3373 65.2217 55.1953 64.0008 55.1953C62.7776 55.1953 62.4619 56.3373 62.4619 59.4203Z" fill="#0B0B0B"/>
<path d="M72.671 50.3481V51.9681H71V55.2641H72.671V66.4651H76.7695V55.2641H79V51.9681H76.7695V50.4981C76.7695 49.6171 77.1591 49.1351 78.2381 49.1351C78.4654 49.1351 78.7684 49.1921 78.9989 49.2521V45.6721C78.3377 45.5851 77.7294 45.4961 76.9232 45.4961C74.2165 45.4971 72.671 46.7961 72.671 50.3481Z" fill="#0B0B0B"/>
<path fill-rule="evenodd" clip-rule="evenodd" d="M21.1242 52.4863C23.8027 52.4863 26.5849 53.6063 26.5849 56.5693H26.5837V64.0463C26.5837 65.5693 26.8313 66.0264 27 66.2094H22.3956C22.3362 65.9464 22.3041 65.5514 22.2808 65.2654C22.2713 65.1474 22.2632 65.0483 22.2553 64.9833C21.4934 65.7613 20.1748 66.4663 18.8574 66.4663C16.6307 66.4663 14.9336 65.0093 15.002 62.5443C15.0999 59.0563 19.1664 58.0253 22.1173 57.6933V56.5413C22.1173 55.7413 21.7328 55.2103 20.9615 55.2103C19.8894 55.2103 19.5462 56.1883 19.4979 56.9703L15.6129 56.1964C16.1071 53.5514 18.5909 52.4863 21.1242 52.4863ZM20.6858 63.6253C21.1941 63.6253 21.739 63.2773 22.1188 62.7933H22.1176V59.7733C20.5573 59.9193 19.3896 60.4933 19.3896 62.2043C19.3896 63.1393 19.885 63.6253 20.6858 63.6253Z" fill="#0B0B0B"/>
<path d="M37.7703 52.4863C35.9391 52.4863 34.646 53.2823 33.679 54.2083H33.6182L33.5947 52.8113H29V66.4663H33.6951V56.7023C34.1241 56.1853 34.6944 55.8533 35.2225 55.8533C36.0073 55.8533 36.3049 56.2853 36.3049 57.0633V66.4643H41V55.6653C41.0012 53.7923 39.8259 52.4863 37.7703 52.4863Z" fill="#0B0B0B"/>
<path d="M55.9792 51.6811H51.6359L48.4229 56.1491H48.3698V45.4961H44V66.4651H48.3698V61.1701L49.2878 60.0161H49.3409L51.4699 66.4651H56L52.3256 56.2321L55.9792 51.6811Z" fill="#0B0B0B"/>
<path fill-rule="evenodd" clip-rule="evenodd" d="M10.3277 55.5591V55.3951C11.7513 54.8031 13.5337 53.3591 13.5337 50.6191C13.5337 47.7241 11.246 45.4961 7.7661 45.4961H0V66.4651H7.56779C11.298 66.4651 14 64.4451 14 60.8561C14 58.1681 12.456 56.3071 10.3277 55.5591ZM4.8252 49.2081H6.56398C7.69248 49.2081 8.95673 49.5321 8.95673 51.5321C8.95673 52.7721 8.24729 53.8021 6.45184 53.8021H4.8252V49.2081ZM4.8252 62.5801H6.64661C7.72081 62.5801 9.1515 62.0781 9.1515 59.9291C9.1515 58.3681 8.24729 57.3361 6.64661 57.3361H4.8252V62.5801Z" fill="#0B0B0B"/>
<path fill-rule="evenodd" clip-rule="evenodd" d="M173.588 56.5693V64.0463C173.588 65.5693 173.837 66.0254 174 66.2094H169.396C169.334 65.9294 169.302 65.4994 169.28 65.2094C169.273 65.1164 169.267 65.0373 169.261 64.9833C168.493 65.7613 167.177 66.4663 165.859 66.4663C163.63 66.4663 161.934 65.0093 162.002 62.5443C162.098 59.0563 166.168 58.0253 169.123 57.6933V56.5413C169.123 55.7413 168.733 55.2103 167.965 55.2103C166.89 55.2103 166.549 56.1883 166.502 56.9703L162.613 56.1964C163.108 53.5514 165.593 52.4863 168.13 52.4863C170.807 52.4863 173.588 53.6063 173.588 56.5693ZM167.69 63.6253C168.196 63.6253 168.739 63.2773 169.125 62.7933H169.124V59.7733C167.561 59.9193 166.392 60.4933 166.392 62.2043C166.392 63.1393 166.887 63.6253 167.69 63.6253Z" fill="#0B0B0B"/>
<path fill-rule="evenodd" clip-rule="evenodd" d="M120 59.4493C120 55.6753 122.053 52.4863 126.183 52.4863C130.505 52.4863 132 56.0484 132 59.5284V60.4333H124.489C124.427 61.6193 124.755 63.5923 126.563 63.5923C127.645 63.5923 128.56 62.8353 128.782 61.7593L131.809 62.8233C131.612 63.4363 130.23 66.4663 126.235 66.4663C121.94 66.4663 120 63.1433 120 59.4493ZM124.489 57.8793H127.843C127.886 56.6413 127.704 55.1964 126.152 55.1964C124.878 55.1964 124.42 56.6243 124.489 57.8793Z" fill="#0B0B0B"/>
<path d="M143 52.4863H148V66.4663H143V52.4863Z" fill="#0B0B0B"/>
<path d="M143 45.4961H148V49.4901H143V45.4961Z" fill="#0B0B0B"/>
<path d="M155.571 55.1964C156.305 55.1964 156.669 55.5683 156.891 56.0973C157.091 56.6043 157.117 57.2413 157.117 57.7733H161C161 56.4453 160.266 52.4863 155.436 52.4863C151.133 52.4863 149 56.1283 149 59.7673C149 63.0623 151.132 66.4663 155.239 66.4663C158.555 66.4663 160.521 64.7663 160.862 61.5243L157.319 61.0443C157.319 62.0543 157.178 63.5923 155.573 63.5923C154.396 63.5923 153.889 62.6133 153.889 59.6073C153.886 56.9503 154.055 55.1964 155.571 55.1964Z" fill="#0B0B0B"/>
<path fill-rule="evenodd" clip-rule="evenodd" d="M83 66.4651L87.5121 45.4961H93.889L98 66.4651H93.2705L92.5133 62.2261H88.0543L87.215 66.4651H83ZM90.3559 49.9721L88.7305 58.5151H91.8368L90.453 49.9721H90.3559Z" fill="#0B0B0B"/>
<path d="M137.065 54.6603H136.997L136.956 52.8113H133V66.4663H137.092V57.6243C137.572 57.0083 138.291 56.5673 139.334 56.5673C140.038 56.5673 140.536 56.7503 141 56.9453V52.4863C139.424 52.4863 137.899 53.2183 137.065 54.6603Z" fill="#0B0B0B"/>
<path d="M113.104 52.4863C111.365 52.4863 110.124 53.4803 109.398 54.3133H109.344C108.952 53.2603 108.109 52.4863 106.847 52.4863C105.299 52.4863 103.997 53.3353 103.129 54.2033H103.076L103.054 52.8123H99V66.4663H103.076V56.7283C103.426 56.2253 104.05 55.8883 104.485 55.8883C105.256 55.8883 105.46 56.3753 105.46 57.1113V66.4663H109.538V56.7283C109.808 56.3513 110.402 55.8883 110.959 55.8883C111.715 55.8883 111.925 56.3753 111.925 57.1113V66.4663H116V55.5823C116 53.6953 114.831 52.4863 113.104 52.4863Z" fill="#0B0B0B"/>
<path fill-rule="evenodd" clip-rule="evenodd" d="M84.4525 7.7998C86.1702 8.4968 87.8674 9.24582 89.544 10.0428C84.2054 12.2718 79.0488 14.9098 74.13 17.9308C72.4648 17.0338 70.7757 16.1858 69.0625 15.3898C73.9744 12.4498 79.1185 9.9078 84.4525 7.7998Z" fill="#0B0B0B"/>
<path fill-rule="evenodd" clip-rule="evenodd" d="M78.1173 5.62891C72.5097 7.52591 67.1137 10.0069 62 13.0169C63.6309 13.6469 65.2468 14.3179 66.8396 15.0359C71.7948 11.9209 77.0323 9.29992 82.4815 7.21692C81.0402 6.65092 79.5828 6.12191 78.1173 5.62891Z" fill="#0B0B0B"/>
<path fill-rule="evenodd" clip-rule="evenodd" d="M96.607 7.56375C92.0906 5.35475 87.4023 3.49474 82.5811 2.01074C80.8851 2.50474 79.2045 3.04276 77.5381 3.62976C82.5028 5.11476 87.3287 6.99677 91.9768 9.24677C93.5044 8.65477 95.0498 8.09075 96.607 7.56375Z" fill="#0B0B0B"/>
<path fill-rule="evenodd" clip-rule="evenodd" d="M104.376 5.68152C99.7183 3.63552 94.9009 1.9245 89.9794 0.5625C88.4111 0.8895 86.8535 1.2535 85.3066 1.6535C90.1946 3.0885 94.9475 4.9085 99.5318 7.0755C101.135 6.5765 102.75 6.11052 104.376 5.68152Z" fill="#0B0B0B"/>
<path fill-rule="evenodd" clip-rule="evenodd" d="M115.259 9.9707C103.995 13.9647 93.4411 19.6547 83.8936 26.7767C86.2813 28.3197 88.6057 29.9557 90.8782 31.6797C99.8771 24.1707 109.867 17.9147 120.619 13.1627C118.865 12.0437 117.072 10.9807 115.259 9.9707Z" fill="#0B0B0B"/>
<path fill-rule="evenodd" clip-rule="evenodd" d="M107.549 5.62891C95.7703 8.83091 84.6963 13.9969 74.7129 20.7999C76.9625 21.9379 79.1715 23.1509 81.3353 24.4439C91.1193 17.4829 101.977 12.0629 113.557 8.48892C111.582 7.47192 109.578 6.51391 107.549 5.62891Z" fill="#0B0B0B"/>
<path fill-rule="evenodd" clip-rule="evenodd" d="M93.7812 29.1415C93.7812 28.5465 94.2577 28.0625 94.8412 28.0625C95.4248 28.0625 95.9001 28.5465 95.9001 29.1415C95.9001 29.7475 95.4248 30.2325 94.8412 30.2325C94.2577 30.2325 93.7812 29.7475 93.7812 29.1415ZM93.9813 29.1425C93.9813 29.6375 94.3639 30.0195 94.8412 30.0195C95.3146 30.0195 95.6963 29.6375 95.6963 29.1425C95.6963 28.6625 95.3146 28.2775 94.8412 28.2775C94.3649 28.2775 93.9813 28.6625 93.9813 29.1425Z" fill="#0B0B0B"/>
<path fill-rule="evenodd" clip-rule="evenodd" d="M97.2867 30.9568H96.9885L96.4779 30.2888H96.1622V30.9568H95.9004V29.5098H96.6772C96.8256 29.5098 96.9783 29.5167 97.1151 29.5797C97.2445 29.6447 97.3129 29.7708 97.3129 29.8928C97.3129 30.1758 97.0642 30.2828 96.7485 30.2898L97.2867 30.9568ZM96.4561 30.1118C96.7034 30.1118 97.0467 30.1468 97.0467 29.8898C97.0467 29.7008 96.8489 29.6758 96.6248 29.6758H96.1637V30.1107H96.4561V30.1118Z" fill="#0B0B0B"/>
</svg>
