<svg width="173" height="31" viewBox="0 0 173 31" fill="none" xmlns="http://www.w3.org/2000/svg">
<path d="M23.617 10.8719C13.5935 10.8719 5.36862 19.0343 4.89237 29.4541L4.88395 29.6398H7.80349L7.81236 29.472C8.0203 25.4208 9.66503 21.5895 12.4339 18.7065C13.8724 17.2023 15.5815 16.0016 17.4657 15.1714C19.4109 14.3182 21.5031 13.8785 23.6171 13.8785C25.7311 13.8785 27.8233 14.3182 29.7686 15.1714C31.6528 16.0017 33.362 17.2026 34.8007 18.7069C37.5696 21.5899 39.2143 25.4212 39.422 29.4725L39.431 29.6403H42.3502L42.3419 29.4546C41.8656 19.0343 33.6407 10.8719 23.617 10.8719ZM21.2 18.4009C15.2315 18.4009 10.247 23.2549 9.85211 29.4516L9.84016 29.6406H12.7619L12.7751 29.4781C12.9452 27.408 13.814 25.4648 15.2303 23.9868C16.0096 23.1702 16.9388 22.5216 17.9637 22.0789C18.9886 21.6363 20.0888 21.4083 21.2 21.4083C22.3113 21.4083 23.4114 21.6363 24.4363 22.0789C25.4612 22.5216 26.3904 23.1702 27.1697 23.9868C28.586 25.4649 29.4548 27.408 29.625 29.4781L29.6382 29.6406H32.5599L32.5479 29.4516C32.153 23.2549 27.1684 18.4009 21.2 18.4009ZM55.537 29.4582C55.3521 21.9934 52.3456 14.8984 47.1586 9.68611C41.9716 4.47381 35.0145 1.55664 27.7709 1.55664C20.5272 1.55664 13.5701 4.47381 8.38312 9.68611C3.19612 14.8984 0.189648 21.9934 0.00477871 29.4582L0 29.6403H2.91794L2.92306 29.4681C3.1062 22.8002 5.8044 16.4687 10.4443 11.8191C15.0842 7.16956 21.3 4.56839 27.7709 4.56839C34.2417 4.56839 40.4576 7.16956 45.0975 11.8191C49.7373 16.4687 52.4355 22.8002 52.6187 29.4681L52.6237 29.6403H55.5416L55.537 29.4582Z" fill="#0B0B0B"/>
<path d="M61.9495 3.64062H71.8658C76.7726 3.64062 80.204 6.08129 80.204 10.8919C80.204 12.8375 79.0716 14.9245 77.3558 15.9148C79.5521 16.8699 81.1304 19.3106 81.1304 21.7868C81.1304 26.845 77.802 29.6395 72.3117 29.6395H61.9495V3.64062ZM71.767 13.7353C73.6176 13.7353 74.5899 12.83 74.5899 11.2131C74.5899 9.69333 73.5543 8.75565 71.8297 8.75565H67.5641V13.7355L71.767 13.7353ZM72.3701 24.4988C74.472 24.4988 75.4445 23.3668 75.4445 21.7174C75.4445 20.068 74.2524 18.9687 72.5896 18.9687H67.6017V24.4988H72.3701Z" fill="#0B0B0B"/>
<path d="M83.2832 19.3544C83.2832 13.073 88.0437 8.44043 94.2894 8.44043C100.535 8.44043 105.295 13.073 105.295 19.3544C105.295 25.5966 100.535 30.2292 94.2894 30.2292C88.0437 30.2292 83.2832 25.5965 83.2832 19.3544ZM94.2894 24.8506C97.3742 24.8506 99.621 22.5343 99.621 19.3544C99.621 16.1746 97.3742 13.8581 94.2894 13.8581C91.2045 13.8581 88.9577 16.1744 88.9577 19.3544C88.9577 22.5344 91.2047 24.8506 94.2894 24.8506Z" fill="#0B0B0B"/>
<path d="M107.809 0.785156H113.407V29.6403H107.809V0.785156Z" fill="#0B0B0B"/>
<path d="M116.682 19.3546C116.682 12.9946 121.099 8.44057 127.231 8.44057C129.44 8.44057 131.42 9.10808 133.02 10.2858V0.785156H138.618V21.1998L141.741 29.6403H135.99L133.362 22.5348V27.8741C132.182 29.3266 129.363 30.2295 126.659 30.2295C120.909 30.2291 116.682 25.6752 116.682 19.3546ZM127.802 24.8507C130.887 24.8507 133.134 22.5344 133.134 19.3546C133.134 16.1747 130.887 13.8583 127.802 13.8583C124.717 13.8583 122.47 16.1746 122.47 19.3546C122.47 22.5345 124.717 24.8507 127.802 24.8507Z" fill="#0B0B0B"/>
<path d="M146.997 9.56144e-05C147.686 0.00395783 148.358 0.218413 148.929 0.616341C149.5 1.01427 149.944 1.5778 150.204 2.23566C150.464 2.89353 150.53 3.61618 150.392 4.31224C150.253 5.0083 149.918 5.6465 149.428 6.14614C148.938 6.64577 148.315 6.9844 147.639 7.1192C146.962 7.254 146.262 7.17892 145.626 6.90346C144.991 6.62799 144.449 6.1645 144.07 5.57161C143.69 4.97872 143.489 4.28306 143.493 3.57259C143.495 3.10062 143.587 2.63363 143.764 2.19841C143.941 1.76319 144.2 1.3683 144.525 1.03639C144.851 0.704477 145.237 0.442079 145.661 0.264248C146.085 0.0864165 146.539 -0.00335104 146.997 9.56144e-05ZM144.178 9.22597H149.777V29.6404H144.178V9.22597Z" fill="#0B0B0B"/>
<path d="M153.966 9.22571H159.564V11.6989C160.82 9.53964 162.801 8.44043 165.543 8.44043C170.266 8.44043 172.741 11.6989 172.741 17.941V29.6402H167.142V18.7654C167.142 15.1929 166.152 13.7796 163.677 13.7796C160.973 13.7796 159.564 15.7424 159.564 18.9225V29.6401H153.966V9.22571Z" fill="#0B0B0B"/>
</svg>
