<svg width="207" height="25" viewBox="0 0 207 25" fill="none" xmlns="http://www.w3.org/2000/svg">
<path d="M141.242 10.4426H126.695L129.054 6.41856C130.036 4.75106 130.921 4.16186 132.396 4.16186C133.87 4.16186 134.362 5.33916 133.576 6.81096H148.418L149.893 4.16186C150.974 2.19886 150.974 0.0390625 148.32 0.0390625H122.174C119.815 0.0390625 117.947 0.333563 116.571 2.59126L111.951 10.4426C110.674 12.7003 110.772 14.5655 113.917 14.5655H128.956L126.499 18.8831C125.811 20.0614 124.926 20.8462 122.862 20.8462C121.092 20.8462 121.191 19.669 121.977 18.4917H107.233L105.463 21.4363C104.382 23.3016 105.267 24.9701 107.822 24.9701H133.771C136.13 24.9701 138.194 23.8907 139.374 21.9276L143.797 14.5665C144.781 12.7003 144.289 10.4426 141.242 10.4426Z" fill="#0B0B0B"/>
<path d="M204.39 4.8877C203.19 4.8877 202.22 5.8293 202.22 6.9796C202.22 8.1539 203.19 9.0955 204.39 9.0955C205.58 9.0955 206.55 8.1539 206.55 6.9796C206.55 5.8293 205.58 4.8877 204.39 4.8877ZM204.39 8.68409C203.41 8.68409 202.63 7.93919 202.63 6.97859C202.63 6.04899 203.41 5.2981 204.39 5.2981C205.36 5.2981 206.14 6.04899 206.14 6.97859C206.14 7.93919 205.36 8.68409 204.39 8.68409Z" fill="#0B0B0B"/>
<path d="M107.725 0.0390625H85.5101C82.4631 0.0390625 78.5311 0.0390625 76.1721 4.16186L66.342 20.8462C64.966 23.1039 66.1461 24.9691 68.7011 24.9691H94.553C97.207 24.9691 98.8781 24.1833 100.942 20.8462L110.772 4.16186C112.049 2.00316 110.083 0.0390625 107.725 0.0390625ZM95.2411 6.41856L87.8701 18.8831C86.8871 20.6505 86.0021 20.8462 83.7411 20.8462C81.4801 20.8462 80.89 20.0614 81.579 18.8831L89.0491 6.41856C90.1311 4.55336 91.4081 4.16186 93.2761 4.16186C95.1441 4.16186 96.2241 4.75106 95.2411 6.41856Z" fill="#0B0B0B"/>
<path d="M68.7999 0.0390625H40.2949L28.0089 20.8462H0.879883L0.892883 24.9691H55.6289C59.2659 24.9691 60.4449 23.2017 61.2319 21.8278L64.1799 16.7243C64.9669 15.3504 64.9669 13.7797 63.3939 12.897C64.9699 12.897 67.1289 11.8176 68.4069 9.55986L71.3559 4.55436C72.8309 2.10096 71.0609 0.0390625 68.7999 0.0390625ZM54.1549 16.8232L52.6799 19.1777C52.2869 19.9635 51.5989 20.8462 49.9279 20.8462H42.6539L46.3919 14.5655H53.4659C54.7439 14.5655 54.7439 15.7428 54.1549 16.8232ZM60.3469 6.41856L58.8719 8.77406C58.4789 9.55986 57.7909 10.4426 56.1199 10.4426H48.8459L52.5809 4.16186H59.6579C60.9369 4.16186 60.9369 5.33916 60.3469 6.41856Z" fill="#0B0B0B"/>
<path d="M205.5 6.4316C205.5 6.2349 205.41 6.0262 205.23 5.9253C205.05 5.8235 204.84 5.8125 204.64 5.8125H203.58V8.166H203.94V7.0806H204.37L205.06 8.165H205.47L204.74 7.0806C205.17 7.0696 205.5 6.8959 205.5 6.4316ZM204.34 6.7891H203.94V6.0801H204.57C204.87 6.0801 205.14 6.121 205.14 6.4256C205.14 6.849 204.68 6.7891 204.34 6.7891Z" fill="#0B0B0B"/>
<path d="M169.212 4.15903H206.07L206.06 0.0361328H156.926L142.28 24.9662H176.486L178.943 20.8433H159.383L163.118 14.5626H182.678L185.037 10.4397H165.576L169.212 4.15903Z" fill="#0B0B0B"/>
</svg>
