<svg width="116" height="65" viewBox="0 0 116 65" fill="none" xmlns="http://www.w3.org/2000/svg">
<path fill-rule="evenodd" clip-rule="evenodd" d="M114.017 61.0059V61.4789H112.784V64.9999H112.277V61.4789H111.043V61.0059H114.017Z" fill="#0B0B0B"/>
<path fill-rule="evenodd" clip-rule="evenodd" d="M115.383 61.0059L114.542 64.2819H114.52L113.655 61.0059H113.025V64.9999H113.429V61.7269H113.453L114.305 64.9999H114.683L115.573 61.7269H115.585V64.9999H116V61.0059H115.383Z" fill="#0B0B0B"/>
<path fill-rule="evenodd" clip-rule="evenodd" d="M33.709 62.0042H38.6662V41.0352H33.709V62.0042Z" fill="#0B0B0B"/>
<path fill-rule="evenodd" clip-rule="evenodd" d="M78.885 48.0797C78.678 47.9677 77.043 46.9667 74.606 46.9667C71.326 46.9667 69.0396 49.3267 69.0396 52.5057C69.0396 55.5897 71.227 58.0477 74.606 58.0477C76.999 58.0477 78.669 57.0707 78.885 56.9457V62.5187C78.245 62.7007 76.513 63.2567 74.249 63.2567C68.5311 63.2567 63.5186 59.1937 63.5186 52.5057C63.5186 46.3057 68.0541 41.7637 74.249 41.7637C76.642 41.7637 78.407 42.3577 78.885 42.5057V48.0797Z" fill="#0B0B0B"/>
<path fill-rule="evenodd" clip-rule="evenodd" d="M25.8122 48.0797C25.6072 47.9677 23.9717 46.9667 21.535 46.9667C18.2434 46.9667 15.9628 49.3267 15.9628 52.5057C15.9628 55.5897 18.1458 58.0477 21.535 58.0477C23.9283 58.0477 25.5855 57.0707 25.8122 56.9457V62.5187C25.1744 62.7007 23.4415 63.2567 21.1669 63.2567C15.4552 63.2567 10.4404 59.1937 10.4404 52.5057C10.4404 46.3057 14.983 41.7637 21.1669 41.7637C23.5602 41.7637 25.3254 42.3577 25.8122 42.5057V48.0797Z" fill="#0B0B0B"/>
<mask id="mask0_33_1378" style="mask-type:alpha" maskUnits="userSpaceOnUse" x="84" y="41" width="22" height="23">
<path fill-rule="evenodd" clip-rule="evenodd" d="M84.2439 41.7637H105.532V63.2567H84.2439V41.7637Z" fill="white"/>
</mask>
<g mask="url(#mask0_33_1378)">
<path fill-rule="evenodd" clip-rule="evenodd" d="M94.8879 47.0477C91.8659 47.0477 89.6239 49.4927 89.6239 52.5057C89.6239 55.5237 91.8659 57.9687 94.8879 57.9687C97.8979 57.9687 100.14 55.5237 100.14 52.5057C100.14 49.4927 97.8979 47.0477 94.8879 47.0477ZM105.532 52.5057C105.532 58.4437 101.083 63.2567 94.8879 63.2567C88.6839 63.2567 84.2439 58.4437 84.2439 52.5057C84.2439 46.5767 88.6839 41.7637 94.8879 41.7637C101.083 41.7637 105.532 46.5767 105.532 52.5057Z" fill="#0B0B0B"/>
</g>
<mask id="mask1_33_1378" style="mask-type:alpha" maskUnits="userSpaceOnUse" x="44" y="41" width="15" height="23">
<path fill-rule="evenodd" clip-rule="evenodd" d="M44.6973 41.7559H58.5907V63.2579H44.6973V41.7559Z" fill="white"/>
</mask>
<g mask="url(#mask1_33_1378)">
<path fill-rule="evenodd" clip-rule="evenodd" d="M57.1721 46.8479C57.0964 46.8259 54.9526 46.2169 53.1983 46.2169C51.1514 46.2169 50.0465 46.9189 50.0465 47.9159C50.0465 49.1819 51.541 49.6209 52.3745 49.8979L53.7822 50.3549C57.0856 51.4349 58.5907 53.7649 58.5907 56.2879C58.5907 61.5059 54.1398 63.2579 50.2411 63.2579C47.5346 63.2579 45.001 62.7459 44.7515 62.6889V57.9149C45.2058 58.0299 47.3391 58.6829 49.56 58.6829C52.0827 58.6829 53.2523 57.9249 53.2523 56.7449C53.2523 55.6919 52.2448 55.0889 50.9783 54.6789C50.675 54.5729 50.2088 54.4259 49.8958 54.3149C47.0584 53.3949 44.6973 51.6829 44.6973 48.2479C44.6973 44.3649 47.5238 41.7559 52.2125 41.7559C54.6925 41.7559 57.0201 42.3769 57.1721 42.4169V46.8479Z" fill="#0B0B0B"/>
</g>
<mask id="mask2_33_1378" style="mask-type:alpha" maskUnits="userSpaceOnUse" x="0" y="17" width="6" height="11">
<path fill-rule="evenodd" clip-rule="evenodd" d="M0 17.2344H5.0479V27.8744H0V17.2344Z" fill="white"/>
</mask>
<g mask="url(#mask2_33_1378)">
<path fill-rule="evenodd" clip-rule="evenodd" d="M5.048 19.8214C5.048 18.3954 3.9141 17.2344 2.5241 17.2344C1.1359 17.2344 0 18.3954 0 19.8214V25.2714C0 26.7114 1.1359 27.8744 2.5241 27.8744C3.9141 27.8744 5.048 26.7114 5.048 25.2714V19.8214Z" fill="#0B0B0B"/>
</g>
<path fill-rule="evenodd" clip-rule="evenodd" d="M18.9154 12.6701C18.9154 11.2441 17.7784 10.0791 16.3915 10.0791C15.0011 10.0791 13.8672 11.2441 13.8672 12.6701V25.2711C13.8672 26.7111 15.0011 27.8741 16.3915 27.8741C17.7784 27.8741 18.9154 26.7111 18.9154 25.2711V12.6701Z" fill="#0B0B0B"/>
<mask id="mask3_33_1378" style="mask-type:alpha" maskUnits="userSpaceOnUse" x="27" y="0" width="6" height="34">
<path fill-rule="evenodd" clip-rule="evenodd" d="M27.7295 0.296875H32.7866V33.0469H27.7295V0.296875Z" fill="white"/>
</mask>
<g mask="url(#mask3_33_1378)">
<path fill-rule="evenodd" clip-rule="evenodd" d="M32.7866 2.88788C32.7866 1.45788 31.6496 0.296875 30.2636 0.296875C28.8665 0.296875 27.7295 1.45788 27.7295 2.88788V30.4519C27.7295 31.8889 28.8665 33.0469 30.2636 33.0469C31.6496 33.0469 32.7866 31.8889 32.7866 30.4519V2.88788Z" fill="#0B0B0B"/>
</g>
<path fill-rule="evenodd" clip-rule="evenodd" d="M46.6466 12.6701C46.6466 11.2441 45.5207 10.0791 44.1238 10.0791C42.7384 10.0791 41.6006 11.2441 41.6006 12.6701V25.2711C41.6006 26.7111 42.7384 27.8741 44.1238 27.8741C45.5207 27.8741 46.6466 26.7111 46.6466 25.2711V12.6701Z" fill="#0B0B0B"/>
<path fill-rule="evenodd" clip-rule="evenodd" d="M60.5069 19.8214C60.5069 18.3954 59.3711 17.2344 57.9957 17.2344C56.5986 17.2344 55.4727 18.3954 55.4727 19.8214V25.2714C55.4727 26.7114 56.5986 27.8744 57.9957 27.8744C59.3711 27.8744 60.5069 26.7114 60.5069 25.2714V19.8214Z" fill="#0B0B0B"/>
<path fill-rule="evenodd" clip-rule="evenodd" d="M74.3799 12.6701C74.3799 11.2441 73.2529 10.0791 71.8549 10.0791C70.4689 10.0791 69.3438 11.2441 69.3438 12.6701V25.2711C69.3438 26.7111 70.4689 27.8741 71.8549 27.8741C73.2529 27.8741 74.3799 26.7111 74.3799 25.2711V12.6701Z" fill="#0B0B0B"/>
<mask id="mask4_33_1378" style="mask-type:alpha" maskUnits="userSpaceOnUse" x="83" y="0" width="6" height="34">
<path fill-rule="evenodd" clip-rule="evenodd" d="M83.2161 0.296875H88.2501V33.0469H83.2161V0.296875Z" fill="white"/>
</mask>
<g mask="url(#mask4_33_1378)">
<path fill-rule="evenodd" clip-rule="evenodd" d="M88.2501 2.88788C88.2501 1.45788 87.1231 0.296875 85.7371 0.296875C84.3411 0.296875 83.2161 1.45788 83.2161 2.88788V30.4519C83.2161 31.8889 84.3411 33.0469 85.7371 33.0469C87.1231 33.0469 88.2501 31.8889 88.2501 30.4519V2.88788Z" fill="#0B0B0B"/>
</g>
<path fill-rule="evenodd" clip-rule="evenodd" d="M102.122 12.6701C102.122 11.2441 100.997 10.0791 99.5769 10.0791C98.1909 10.0791 97.0659 11.2441 97.0659 12.6701V25.2711C97.0659 26.7111 98.1909 27.8741 99.5769 27.8741C100.997 27.8741 102.122 26.7111 102.122 25.2711V12.6701Z" fill="#0B0B0B"/>
<path fill-rule="evenodd" clip-rule="evenodd" d="M115.972 19.8214C115.972 18.3954 114.845 17.2344 113.461 17.2344C112.063 17.2344 110.936 18.3954 110.936 19.8214V25.2714C110.936 26.7114 112.063 27.8744 113.461 27.8744C114.845 27.8744 115.972 26.7114 115.972 25.2714V19.8214Z" fill="#0B0B0B"/>
</svg>
