<svg width="154" height="40" viewBox="0 0 154 40" fill="none" xmlns="http://www.w3.org/2000/svg">
<mask id="mask0_33_1341" style="mask-type:luminance" maskUnits="userSpaceOnUse" x="0" y="-1" width="154" height="41">
<path d="M154 -0.00292969H0V39.9379H154V-0.00292969Z" fill="white"/>
</mask>
<g mask="url(#mask0_33_1341)">
<path d="M40.0178 12.5808L37.6674 10.2373C32.3127 15.6069 32.3127 24.3083 37.6674 29.6779L40.0178 27.3344C35.9711 23.2588 35.9609 16.6564 40.0178 12.5808Z" fill="#0B0B0B"/>
<path d="M10.2598 37.5638L12.6101 39.9073C16.6977 35.8623 23.3196 35.8623 27.4072 39.9073L29.7576 37.5638C24.3722 32.2248 15.6452 32.2248 10.2598 37.5638Z" fill="#0B0B0B"/>
<path d="M29.7576 2.3503L27.4072 0.00683594C23.3196 4.05186 16.6977 4.05186 12.6101 0.00683594L10.2598 2.3503C15.6452 7.68932 24.3722 7.68932 29.7576 2.3503Z" fill="#0B0B0B"/>
<path d="M34.1625 8.189L34.8881 7.46553L32.5377 5.12207L31.8122 5.84549C25.2925 12.3461 14.726 12.3461 8.21652 5.84549L7.49102 5.12207L5.14062 7.46553L5.86623 8.189C12.3859 14.6895 12.3859 25.2249 5.86623 31.7153L5.14062 32.4387L7.49102 34.7822L8.21652 34.0588C14.7363 27.5582 25.3027 27.5582 31.8122 34.0588L32.5377 34.7822L34.8881 32.4387L34.1625 31.7153C27.6531 25.2249 27.6531 14.6895 34.1625 8.189ZM12.672 27.2831C14.5217 22.586 14.5217 17.3386 12.672 12.6415C17.383 14.4857 22.6458 14.4857 27.3567 12.6415C25.5071 17.3386 25.5071 22.586 27.3567 27.2831C22.6458 25.4389 17.3728 25.4389 12.672 27.2831Z" fill="#0B0B0B"/>
<path d="M2.3504 10.2373L0 12.5808C4.0569 16.6564 4.0569 23.2588 0 27.3344L2.3504 29.6779C7.7051 24.3083 7.7051 15.6069 2.3504 10.2373Z" fill="#0B0B0B"/>
<path d="M51.4323 10.5225H47.4775V29.3415H51.4323V10.5225Z" fill="#0B0B0B"/>
<path d="M70.9194 12.3056C70.2756 11.6229 69.499 11.0829 68.5793 10.7059C67.68 10.3391 66.6377 10.1455 65.4932 10.1455C63.8479 10.1455 62.4786 10.5225 61.4158 11.2663C60.9151 11.6127 60.4552 12.0101 60.0362 12.4482L59.7399 10.5225H56.2041V29.3415H60.0873V18.6839C60.0873 17.9503 60.2099 17.2778 60.4348 16.6766C60.6596 16.0857 60.9866 15.566 61.4056 15.1483C61.8143 14.7305 62.3151 14.4045 62.8771 14.1702C63.4494 13.9358 64.0727 13.8237 64.7369 13.8237C66.1267 13.8237 67.1588 14.2211 67.8742 15.0362C68.6099 15.8615 68.9778 17.0231 68.9778 18.4801V29.3517H72.861V17.8076C72.861 16.697 72.6975 15.6679 72.3705 14.7407C72.0435 13.8033 71.553 12.9882 70.9194 12.3056Z" fill="#0B0B0B"/>
<path d="M87.9956 19.8145C87.4131 19.3968 86.7489 19.0504 86.0336 18.7855C85.3489 18.5307 84.654 18.2964 83.9693 18.0926C83.3869 17.9092 82.8248 17.736 82.273 17.5526C81.762 17.3794 81.3124 17.196 80.9241 16.982C80.5766 16.7986 80.3007 16.5744 80.1066 16.3401C79.9431 16.1465 79.8715 15.9224 79.8715 15.5963C79.8715 15.0665 80.0963 14.6385 80.5562 14.2717C81.4555 13.5585 83.2744 13.4872 85.0934 14.1087C85.9314 14.394 86.7591 14.7914 87.5255 15.2804L88.0672 15.6269L89.8248 12.7128L89.9066 12.5804L89.3956 12.2441C88.4453 11.6226 87.3723 11.1335 86.2073 10.7667C84.0511 10.0841 81.8847 10.0229 80.1168 10.5935C79.2993 10.8584 78.5839 11.2354 78.0014 11.7245C77.3985 12.2238 76.9285 12.8351 76.5912 13.5381C76.254 14.2514 76.0905 15.0359 76.0905 15.9325C76.0905 16.8699 76.3051 17.6647 76.7241 18.3066C77.1226 18.9179 77.6438 19.4477 78.2671 19.8553C78.8701 20.2425 79.5445 20.5685 80.2803 20.8232C80.965 21.0576 81.6701 21.2818 82.3752 21.4957C82.927 21.6486 83.4788 21.8218 83.9898 21.995C84.4803 22.158 84.9197 22.3516 85.2876 22.5656C85.6248 22.7592 85.8905 22.9833 86.0744 23.238C86.238 23.452 86.3095 23.6965 86.3095 24.0532C86.3095 24.7052 86.054 25.2045 85.5431 25.5815C84.4598 26.3762 82.3854 26.417 80.3927 25.6732C79.4219 25.3064 78.4715 24.7766 77.5723 24.0939L77.0511 23.6965L74.9971 26.58L75.4671 26.9468C76.5095 27.7823 77.7358 28.4446 79.0847 28.9337C80.4438 29.4227 81.8131 29.6673 83.1518 29.6673C84.092 29.6673 84.9912 29.5348 85.8088 29.2801C86.6467 29.0152 87.3825 28.628 87.9956 28.1287C88.619 27.6193 89.1197 26.9978 89.4876 26.2743C89.8657 25.5306 90.05 24.6849 90.05 23.6965C90.05 22.7897 89.8555 22.0052 89.4672 21.3633C89.1095 20.7825 88.6088 20.2425 87.9956 19.8145Z" fill="#0B0B0B"/>
<path d="M109.414 12.7229C108.556 11.8874 107.585 11.2353 106.502 10.8074C104.642 10.0636 102.496 9.9413 100.759 10.5017C100.043 10.7361 99.379 11.0417 98.787 11.4187C98.194 11.7957 97.662 12.2542 97.182 12.7637C97.131 12.8248 97.07 12.8859 97.019 12.9369L96.722 10.5221H93.187V34.782H97.07V27.1199C97.1 27.1505 97.131 27.1811 97.162 27.2218C97.642 27.7109 98.173 28.1388 98.766 28.5056C99.359 28.8724 100.033 29.1679 100.759 29.3921C102.557 29.9321 104.724 29.7996 106.553 29.0456C107.636 28.5973 108.607 27.9452 109.445 27.1097C110.283 26.2742 110.968 25.2452 111.468 24.0327C111.979 22.81 112.235 21.4549 112.235 19.8858C112.235 18.3574 111.979 16.9717 111.468 15.7796C110.957 14.5875 110.262 13.5584 109.414 12.7229ZM108.27 19.9876C108.27 20.9658 108.116 21.8522 107.82 22.6164C107.524 23.3704 107.115 24.0225 106.624 24.5319C106.134 25.0414 105.541 25.4387 104.867 25.7138C103.477 26.2742 101.914 26.264 100.585 25.6833C99.9 25.3878 99.277 24.97 98.735 24.4402C98.194 23.9104 97.765 23.2583 97.448 22.5043C97.121 21.7401 96.968 20.8843 96.968 19.8959C96.968 18.9891 97.131 18.1536 97.448 17.4098C97.765 16.666 98.204 16.0139 98.746 15.4637C99.287 14.9237 99.911 14.4958 100.595 14.2003C101.27 13.9048 101.985 13.7622 102.711 13.7622C103.467 13.7622 104.182 13.9048 104.846 14.1901C105.521 14.4754 106.114 14.883 106.614 15.4026C107.125 15.9324 107.534 16.5845 107.83 17.3385C108.127 18.1027 108.27 18.9687 108.27 19.9876Z" fill="#0B0B0B"/>
<path d="M119.429 10.5225H115.546V29.3415H119.429V10.5225Z" fill="#0B0B0B"/>
<path d="M131.743 10.5532C130.957 10.7977 130.221 11.1645 129.557 11.6434C128.892 12.1223 128.3 12.6929 127.789 13.3449C127.748 13.3959 127.717 13.4366 127.676 13.4876L127.38 10.5226H123.834V29.3416H127.717V21.7101C127.717 20.4772 127.891 19.3768 128.228 18.4394C128.565 17.5224 129.025 16.7379 129.597 16.1265C130.16 15.5152 130.834 15.0567 131.6 14.751C132.377 14.4454 133.205 14.2823 134.073 14.2823H134.911V10.2169L134.298 10.2067C133.399 10.1966 132.541 10.2984 131.743 10.5532Z" fill="#0B0B0B"/>
<path d="M153.407 16.2588C153.019 15.0565 152.447 13.9867 151.691 13.09C150.935 12.1832 149.984 11.4598 148.891 10.9402C146.704 9.90089 143.73 9.89069 141.492 10.9198C140.389 11.4292 139.418 12.1323 138.61 13.0187C137.813 13.9052 137.18 14.9546 136.73 16.1467C136.28 17.3286 136.056 18.6125 136.056 19.9574C136.056 21.394 136.311 22.7288 136.802 23.9311C137.292 25.1334 137.977 26.1829 138.825 27.0387C139.673 27.9048 140.685 28.5773 141.829 29.046C142.964 29.5147 144.2 29.7592 145.478 29.7592C147.256 29.7592 148.768 29.4331 149.994 28.7811C151.19 28.1493 152.273 27.2935 153.203 26.244L153.622 25.7753L151.067 23.493L150.648 23.9209C149.974 24.6138 149.218 25.1843 148.41 25.6021C147.634 26.0097 146.673 26.2134 145.549 26.2134C144.854 26.2134 144.18 26.0912 143.546 25.867C142.913 25.6429 142.34 25.2862 141.84 24.8481C141.339 24.41 140.92 23.8496 140.593 23.2077C140.358 22.739 140.184 22.2092 140.072 21.6386H153.888L153.949 21.0782C153.98 20.8337 153.99 20.6401 153.99 20.4872V20.1001C153.98 18.7347 153.786 17.4509 153.407 16.2588ZM140.082 18.2355C140.184 17.726 140.348 17.2471 140.552 16.7886C140.848 16.1365 141.226 15.5558 141.686 15.0871C142.126 14.6184 142.637 14.2516 143.219 13.9969C144.394 13.4772 145.958 13.4874 147.113 14.0274C147.705 14.3025 148.206 14.6795 148.605 15.1482C149.024 15.6373 149.361 16.1977 149.606 16.8396C149.78 17.2777 149.902 17.7464 149.994 18.2355H140.082Z" fill="#0B0B0B"/>
</g>
</svg>
