<svg width="127" height="43" viewBox="0 0 127 43" fill="none" xmlns="http://www.w3.org/2000/svg">
<mask id="mask0_33_1352" style="mask-type:luminance" maskUnits="userSpaceOnUse" x="0" y="-1" width="127" height="44">
<path d="M127 -0.00195312H0V42.9343H127V-0.00195312Z" fill="white"/>
</mask>
<g mask="url(#mask0_33_1352)">
<path d="M4.12201 9.9087H9.01001V36.0753C9.01001 40.1463 6.03799 42.8723 1.91599 42.8723H0V38.2762H1.38101C3.05901 38.2762 4.11499 37.5066 4.11499 35.6869V9.9087H4.12201ZM4.11499 0.0908203H9.00299V4.97458H4.12201L4.11499 0.0908203Z" fill="#0B0B0B"/>
<path d="M17.0599 19.8702C17.1539 16.1804 19.3159 14.224 22.1939 14.224C25.0719 14.224 27.184 16.1876 27.321 19.8702H17.0599ZM32.2459 23.8908V19.8702C32.2459 13.5982 27.5889 9.62793 22.2229 9.62793C17.5229 9.62793 12.2 12.692 12.2 22.1214C12.2 32.076 17.9849 34.4711 22.9899 34.4711C26.3569 34.5419 29.5769 33.0992 31.7539 30.544L28.2109 27.5303C26.8169 28.9801 24.9039 29.823 22.8879 29.875C19.5329 29.875 17.1029 27.8611 17.1029 23.8908H32.2459Z" fill="#0B0B0B"/>
<path d="M36.0921 2.53613H40.9811V9.9085H44.5241V13.6631H40.9811V27.7677C40.9811 29.1127 41.5081 29.5874 42.7021 29.5874H44.5241V34.1835H41.9861C38.5801 34.1835 36.0921 32.0257 36.0921 28.1993V13.6631H33.6411V9.9085H36.0921V2.53613Z" fill="#0B0B0B"/>
<path d="M60.7811 19.0502C64.6141 19.0502 66.3421 21.4885 66.3421 24.1713C66.3421 26.8542 64.6211 29.2924 60.7811 29.2924H52.8261V19.0502H60.7811ZM47.6631 34.1834H62.0471C67.1811 34.1834 71.5421 30.4001 71.5421 24.5166C71.5421 21.0713 69.7191 17.5254 65.9811 16.6623V16.54C69.9581 14.7706 71.0431 12.0374 71.0431 9.2179C71.0431 3.85228 67.5861 0.0761719 60.9181 0.0761719H47.6631V34.1834ZM60.3251 4.69381C64.0641 4.69381 65.8431 6.94509 65.8431 9.5776C65.8431 12.2101 64.0711 14.4613 60.3251 14.4613H52.8191V4.69381H60.3251Z" fill="#0B0B0B"/>
<path d="M74.3319 0.0976562H79.2209V27.9114C79.2209 29.0118 79.8429 29.5872 81.0509 29.5872H82.7279V34.1833H80.5589C77.0079 34.1833 74.325 32.6513 74.325 28.2926L74.3319 0.0976562Z" fill="#0B0B0B"/>
<path d="M84.789 9.9082H89.678V24.3653C89.678 27.6739 91.739 29.5871 94.523 29.5871C97.307 29.5871 99.317 27.6739 99.317 24.3653V9.9082H104.206V34.1832H99.317V31.5938H99.223C97.699 33.4808 95.372 34.5462 92.939 34.4709C90.724 34.4624 88.608 33.562 87.072 31.9749C85.536 30.3879 84.713 28.2497 84.789 26.0484V9.9082Z" fill="#0B0B0B"/>
<path d="M111.727 19.8702C111.828 16.1804 113.983 14.224 116.861 14.224C119.739 14.224 121.844 16.1876 121.996 19.8702H111.727ZM126.913 23.8908V19.8702C126.913 13.5982 122.263 9.62793 116.89 9.62793C112.19 9.62793 106.867 12.692 106.867 22.1214C106.867 32.076 112.652 34.4711 117.657 34.4711C121.029 34.5463 124.255 33.1032 126.436 30.544L122.871 27.5231C121.479 28.9749 119.564 29.8182 117.548 29.8679C114.193 29.8679 111.763 27.8539 111.763 23.8836L126.913 23.8908Z" fill="#0B0B0B"/>
</g>
</svg>
