<svg width="204" height="52" viewBox="0 0 204 52" fill="none" xmlns="http://www.w3.org/2000/svg">
<mask id="mask0_33_1357" style="mask-type:luminance" maskUnits="userSpaceOnUse" x="0" y="0" width="204" height="52">
<path d="M204 0.285156H0V51.2097H204V0.285156Z" fill="white"/>
</mask>
<g mask="url(#mask0_33_1357)">
<path d="M133.666 29.7537C133.086 29.7537 132.855 29.0817 133.516 28.3167C135.63 26.8057 136.462 26.3397 136.576 26.2827C137.939 26.2827 135.329 29.7537 133.666 29.7537ZM203.075 22.1627C202.953 22.0607 202.832 21.9797 202.711 21.9107C202.683 21.8887 202.658 21.8677 202.625 21.8467C201.564 21.1607 200.404 21.4657 200.404 21.4657C200.404 21.4657 200.622 21.8647 199.544 22.7507C199.477 22.8047 199.428 22.8527 199.388 22.8977C199.357 22.9227 199.326 22.9487 199.295 22.9737C195.369 26.1877 190.134 28.7367 184.676 29.8117C186.442 28.7697 190.623 24.7977 187.718 22.6557C186.024 21.4067 183.021 21.9547 180.187 23.3857C180.515 22.8527 181.295 21.7187 180.98 20.3557C180.666 18.9937 178.071 18.5987 176.63 19.1127C176.582 20.5217 176.358 21.2717 176.113 21.5807C169.759 27.1987 161.443 30.1837 160.763 29.5007C160.209 28.9447 162.069 26.7547 162.687 25.8807C163.202 25.1517 163.216 24.2647 162.85 23.5957C162.279 22.5517 161.211 22.4897 159.241 22.9227C156.515 23.3897 154.582 22.4097 152.953 19.9177C152.154 18.6947 150.212 18.9397 149.213 19.6097C149.462 20.3987 149.394 21.1977 149.159 22.0057C147.486 25.9007 142.438 25.9267 140.529 24.6057C140.257 23.7907 139.54 22.2837 138.099 22.0637C133.643 21.3797 132.112 24.1247 131.382 24.9617C129.799 26.7767 119.084 31.4857 116.579 29.4417C114.736 27.9387 116.286 22.4657 119.804 16.9857C125.02 8.71272 127.383 8.80973 128.217 9.64673C128.732 10.1637 129.237 11.3107 128.188 13.3387C128.112 13.4857 128.038 13.6217 127.963 13.7557C126.161 16.7257 125.46 16.5747 125.46 16.5747C124.871 18.3587 125.624 19.3317 126.181 19.7787C126.783 20.3747 127.649 20.1717 127.913 20.0797C128.797 19.7757 129.344 18.9977 129.85 18.2087C132.372 14.2807 133.944 8.03772 129.813 5.77972C126.856 4.16372 121.878 6.34672 116.369 15.3097C111.477 23.2717 110.093 29.5417 113.621 32.5127C117.915 36.1297 126.941 31.3577 129.91 29.9767C129.828 30.5797 130.061 33.6047 133.044 33.4347C136.861 33.2097 139.223 29.9047 140.238 28.2187C141.725 29.0847 148.242 30.3247 152.196 24.3617C152.621 24.7237 155.002 26.4617 158.176 26.4617C157.053 28.5257 155.609 31.0007 157.744 32.6977C160.737 35.0777 170.994 29.3477 173.982 27.5817C172.284 30.6837 169.331 37.6997 166.35 43.9207C165.124 46.4817 163.413 49.9248 165.214 50.8398C166.613 51.5508 168.713 50.8167 169.03 48.9737C169.444 46.5627 171.762 39.8377 173.407 36.1987C176.533 29.2177 179.344 25.6017 184.091 25.6017C183.796 26.1707 183.707 26.6177 182.13 28.2007C180.41 29.9267 178.489 29.8277 178.587 31.6897C178.644 32.7877 179.764 33.0958 180.075 33.1808C182.551 33.8518 189.406 31.8077 192.129 30.8077C195.26 29.6577 199.518 27.5557 202.669 25.5397C204.156 24.5867 204.297 23.2007 203.075 22.1627ZM96.069 15.1507C93.433 15.3457 90.244 16.2247 89.061 18.8827C88.082 21.0817 88.854 23.3977 90.908 25.9997C92.225 27.6147 93.43 28.9907 93.773 29.3647C92.825 29.5657 90.761 29.4927 88.689 29.1127C88.682 29.1107 88.672 29.1097 88.664 29.1077C88.191 29.0197 87.718 28.9147 87.258 28.7947C86.088 28.4237 85.767 27.9507 85.767 27.9507L85.596 28.0757C85.596 28.0707 85.596 28.0687 85.596 28.0687L85.767 27.9507C84.975 28.0597 84.317 28.6127 83.85 29.2227C83.383 29.8327 82.903 31.0127 83.31 31.5797C83.657 32.0627 84.346 32.3277 85.657 32.3717C87.684 32.4677 93.145 33.1937 95.163 33.4197C96.721 33.5947 97.769 32.4607 98.075 31.7127C98.488 30.7177 98.062 29.6197 97.539 29.0137C94.948 26.0077 91.319 22.7237 92.636 19.9787C93.239 18.7207 96.154 18.9747 97.117 19.2617C99.17 19.8747 100.189 19.1287 100.656 17.7467C100.957 16.8577 100.42 14.8277 96.069 15.1507ZM42.667 18.6107C43.036 18.9807 42.249 19.8147 41.556 20.2667C39.656 21.5047 37.742 22.2227 36.377 22.7307C37.859 19.6827 42.149 17.8857 42.667 18.6107ZM86.699 25.2627C87.735 24.6797 88.149 23.4747 87.32 22.4767C86.492 21.4797 84.853 21.5627 84.122 22.0067C83.51 22.3777 82.8 23.0167 80.691 23.1267C78.705 23.2297 77.907 22.3737 76.653 22.3737C75.25 22.3737 74.684 23.3617 72.947 25.5347C72.062 26.6417 70.073 29.1857 69.163 29.1857C68.392 29.1857 68.098 26.9557 68.098 24.0567C68.098 22.7387 67.52 21.6707 66.027 21.7707C64.784 21.8537 64.577 23.4747 63.927 24.2357C61.981 26.5127 60.417 28.7377 59.622 28.7377C58.642 28.7377 58.265 26.5877 58.265 24.9297C58.265 24.9297 58.57 22.3107 56.208 21.8537C55.182 21.6557 54.114 22.2267 54.114 22.2267C54.212 22.4257 54.241 22.6297 54.222 22.8347C53.922 23.9327 51.87 25.4997 51.87 25.4997C49.675 27.1167 45.29 29.9577 41.336 30.1687C36.718 30.4147 35.909 27.9777 35.748 26.9127C39.728 25.4457 42.382 23.7717 44.099 22.4357C45.921 21.0177 47.124 19.4467 47.018 17.9097C46.873 15.8277 44.992 15.0747 43.501 15.0747C40.29 15.0747 34.961 16.4647 32.398 23.5337C31.847 23.7117 30.539 23.7207 29.842 23.5387C28.912 23.2957 28.926 22.8957 28.926 22.8957C28.056 23.1217 27.68 23.5497 27.374 24.3067C26.884 25.5187 27.532 26.5627 28.527 27.1177C29.247 27.5197 30.387 27.7747 31.995 27.5847C32.222 29.7277 33.638 33.6367 41.2 33.3417C47.206 33.1067 54.236 28.1467 54.867 27.7587C55.134 28.9967 55.982 33.4367 58.535 33.4367C61.602 33.4367 64.747 28.8407 64.747 28.8407C64.747 28.8407 65.547 33.4667 68.63 33.4667C71.201 33.4667 74.427 29.4477 75.232 28.4897C75.902 27.6937 77.202 26.1627 77.913 26.1627C78.608 26.0437 79.986 26.9697 83.936 26.1777C84.025 26.1607 85.81 25.7617 86.699 25.2627ZM37.74 2.95172C38.016 2.21872 37.777 1.32571 37.324 0.984711C35.819 -0.148289 34.453 0.48472 33.432 1.60672C32.234 2.92472 30.679 5.78173 30.021 6.84973C23.974 16.6587 19.364 27.1427 19.364 27.1427C19.364 27.1427 17.763 22.2607 17.542 18.3817C17.333 14.7247 17.167 11.2347 17.011 9.52472C16.96 8.83972 16.672 7.76974 15.48 7.37674C14.561 7.07574 13.222 6.95773 12.283 7.30573C12.208 8.47373 12.158 9.03773 11.674 10.4187C11.19 11.7977 8.07304 17.8867 7.54304 18.8337C4.83104 23.6807 1.25501 29.7087 1.04701 30.0967C0.317007 31.4537 -0.696012 33.3047 1.03999 33.9587C2.77499 34.6127 4.29603 34.2637 5.04603 33.1497C5.19003 32.9347 5.38899 32.5337 5.38899 32.5337C5.38899 32.5337 4.88504 32.1177 5.96504 29.5877C6.28604 28.9197 6.66899 28.1407 7.09699 27.2817C7.17999 27.1297 7.26603 26.9727 7.35603 26.8117C7.48503 26.5797 7.57603 26.3767 7.64503 26.1897C9.42603 22.6597 11.797 18.1087 13.913 14.1177C13.897 16.4407 14.091 19.3147 14.408 21.4027C14.891 25.4747 15.886 27.1927 16.256 30.4407C16.182 32.6357 16.398 33.0137 17.992 33.4557C19.481 33.8687 20.35 33.4547 20.909 32.0727C23.061 26.6197 29.247 14.0947 34.501 7.29971C35.05 6.58871 37.137 4.54872 37.74 2.95172Z" fill="#0B0B0B"/>
</g>
</svg>
