<svg width="226" height="38" viewBox="0 0 226 38" fill="none" xmlns="http://www.w3.org/2000/svg">
<path d="M53.9439 32.0059C53.9929 33.8889 54.3129 34.5158 54.8029 34.6838C55.2199 34.8288 55.6849 34.8528 56.0779 34.8528C56.3469 34.8528 56.4949 34.9008 56.4949 35.0458C56.4949 35.2388 56.2739 35.2868 55.9319 35.2868C54.3369 35.2868 53.355 35.2159 52.89 35.2159C52.669 35.2159 51.5169 35.2868 50.2419 35.2868C49.9219 35.2868 49.7009 35.2628 49.7009 35.0458C49.7009 34.9008 49.8489 34.8528 50.0939 34.8528C50.4139 34.8528 50.855 34.8288 51.197 34.7328C51.835 34.5398 51.9339 33.8389 51.9579 31.7389L52.179 17.4529C52.179 16.9689 52.2519 16.6318 52.4969 16.6318C52.7679 16.6318 52.9889 16.9448 53.4059 17.3788C53.6989 17.6938 57.4259 21.6269 61.0079 25.1269C62.6759 26.7679 65.993 30.2428 66.405 30.6288H66.517L66.2739 19.7939C66.2549 18.3209 66.0309 17.8608 65.4509 17.6198C65.0789 17.4768 64.4899 17.4768 64.1479 17.4768C63.8539 17.4768 63.7549 17.4029 63.7549 17.2589C63.7549 17.0659 64.0239 17.0399 64.3929 17.0399C65.6749 17.0399 66.8539 17.1139 67.3579 17.1139C67.6389 17.1139 68.5549 17.0399 69.7709 17.0399C70.0889 17.0399 70.3319 17.0659 70.3319 17.2589C70.3319 17.4029 70.1819 17.4768 69.8829 17.4768C69.6399 17.4768 69.4529 17.4769 69.1539 17.5479C68.4619 17.7419 68.2749 18.2479 68.2369 19.5999L67.976 34.8289C67.976 35.3609 67.882 35.5779 67.658 35.5779C67.377 35.5779 67.0969 35.3128 66.8159 35.0458C65.2749 33.5978 62.1369 30.4358 59.5859 27.9518C56.9119 25.3438 54.1889 22.3278 53.7479 21.8688H53.6749L53.9439 32.0059Z" fill="#0B0B0B"/>
<path fill-rule="evenodd" clip-rule="evenodd" d="M88.728 16.6318C81.49 16.6318 78.771 21.9719 78.771 26.1049C78.771 30.3819 81.564 35.5779 88.489 35.5779C94.607 35.5779 98.464 31.2039 98.464 25.6699C98.464 20.1369 94.717 16.6318 88.728 16.6318ZM88.03 17.7908C91.98 17.7908 95.084 21.1498 95.084 26.5638C95.084 33.5478 91.19 34.3698 89.5 34.3698C84.871 34.3698 82.097 30.3819 82.097 25.3549C82.097 19.3389 85.256 17.7908 88.03 17.7908Z" fill="#0B0B0B"/>
<path d="M107.216 19.0439C106.651 17.6919 106.237 17.4199 105.333 17.1739C104.976 17.0759 104.58 17.0758 104.373 17.0758C104.166 17.0758 104.091 17.0009 104.091 16.8549C104.091 16.6579 104.354 16.6318 104.731 16.6318C106.03 16.6318 107.441 16.7068 108.307 16.7068C108.928 16.7068 110.114 16.6318 111.338 16.6318C111.639 16.6318 111.903 16.6819 111.903 16.8549C111.903 17.0259 111.752 17.0758 111.545 17.0758C111.15 17.0758 110.773 17.1009 110.566 17.2469C110.397 17.3709 110.321 17.5439 110.321 17.7649C110.321 18.0839 110.547 18.7719 110.886 19.6599L115.14 30.8298H115.234C116.307 28.1228 119.507 20.1998 120.11 18.5768C120.223 18.2558 120.317 17.8868 120.317 17.6658C120.317 17.4688 120.223 17.2728 120.016 17.1978C119.714 17.1008 119.338 17.0758 119.018 17.0758C118.792 17.0758 118.604 17.0518 118.604 16.8788C118.604 16.6818 118.83 16.6318 119.3 16.6318C120.524 16.6318 121.559 16.7068 121.879 16.7068C122.312 16.7068 123.46 16.6318 124.194 16.6318C124.533 16.6318 124.722 16.6819 124.722 16.8549C124.722 17.0259 124.571 17.0758 124.326 17.0758C124.082 17.0758 123.554 17.0758 123.122 17.3708C122.802 17.5918 122.425 18.0108 121.766 19.5848C120.787 21.8978 120.129 23.2258 118.792 26.2538C117.211 29.8448 116.063 32.5279 115.517 33.7559C114.877 35.1839 114.726 35.5779 114.369 35.5779C114.049 35.5779 113.917 35.2328 113.446 34.0768L107.216 19.0439Z" fill="#0B0B0B"/>
<path fill-rule="evenodd" clip-rule="evenodd" d="M133.093 29.4189C133.15 29.2719 133.188 29.2218 133.322 29.2218H138.9C139.033 29.2218 139.11 29.2719 139.148 29.3929L141.154 34.5569C141.287 34.8479 141.116 35.0668 140.925 35.1158C140.676 35.1398 140.581 35.1878 140.581 35.3348C140.581 35.4918 140.838 35.5048 141.236 35.5238C141.271 35.5258 141.307 35.5278 141.345 35.5298C143.331 35.5778 145.165 35.5779 146.063 35.5779C146.999 35.5779 147.228 35.5298 147.228 35.3348C147.228 35.1658 147.095 35.1399 146.904 35.1399C146.598 35.1399 146.216 35.1158 145.853 35.0428C145.318 34.9208 144.592 34.5808 143.637 32.3878C142.695 30.2158 140.924 25.8948 139.502 22.4258C138.501 19.9838 137.673 17.9648 137.429 17.4118C137.18 16.8508 137.028 16.6318 136.798 16.6318C136.55 16.6318 136.397 16.8988 136.092 17.6068L129.807 32.8998C129.31 34.1168 128.833 34.9449 127.686 35.0919C127.476 35.1159 127.133 35.1399 126.903 35.1399C126.712 35.1399 126.598 35.1878 126.598 35.3348C126.598 35.5298 126.75 35.5779 127.075 35.5779C127.969 35.5779 128.907 35.5439 129.493 35.5219C129.759 35.5129 129.953 35.5059 130.036 35.5059C130.425 35.5059 130.885 35.5238 131.348 35.5418C131.817 35.5598 132.288 35.5779 132.691 35.5779C132.978 35.5779 133.112 35.5298 133.112 35.3348C133.112 35.1878 133.035 35.1399 132.749 35.1399H132.367C131.583 35.1399 131.373 34.8238 131.373 34.3858C131.373 34.0928 131.488 33.5088 131.736 32.8998L133.093 29.4189ZM138.555 27.8589C138.575 27.9309 138.555 28.0059 138.422 28.0059H133.818C133.722 28.0059 133.703 27.9308 133.722 27.8348L136.034 21.8438C136.053 21.7458 136.091 21.6248 136.168 21.6248C136.244 21.6248 136.282 21.7458 136.301 21.8438L138.555 27.8589Z" fill="#0B0B0B"/>
<path fill-rule="evenodd" clip-rule="evenodd" d="M155.328 18.5869C155.385 19.3889 155.385 20.0908 155.385 23.9008V28.3109C155.385 30.6169 155.385 32.5968 155.252 33.6498C155.157 34.3758 155.024 34.9259 154.529 35.0279C154.301 35.0769 153.996 35.1269 153.635 35.1269C153.33 35.1269 153.235 35.2039 153.235 35.3279C153.235 35.5039 153.406 35.5779 153.73 35.5779C154.328 35.5779 155.119 35.5519 155.764 35.5309C156.207 35.5159 156.58 35.5038 156.774 35.5038C156.903 35.5038 157.201 35.5119 157.594 35.5229C158.36 35.5459 159.491 35.5779 160.446 35.5779C160.77 35.5779 160.941 35.5039 160.941 35.3279C160.941 35.2039 160.846 35.1269 160.637 35.1269C160.351 35.1269 159.799 35.0769 159.419 35.0279C158.677 34.9259 158.525 34.3758 158.448 33.6498C158.315 32.5968 158.315 30.6169 158.315 28.2859V27.9348C158.315 27.7858 158.391 27.7358 158.525 27.7358L160.694 27.7859C160.865 27.7859 161.017 27.8098 161.15 27.9608C161.34 28.1808 161.813 28.8608 162.371 29.6638C162.763 30.2268 163.197 30.8498 163.605 31.4178C165.013 33.3478 165.964 34.5268 167.03 35.1018C167.677 35.4538 168.304 35.5779 169.693 35.5779H172.072C172.376 35.5779 172.547 35.5279 172.547 35.3279C172.547 35.2039 172.452 35.1269 172.243 35.1269C172.053 35.1269 171.824 35.1019 171.539 35.0529C171.529 35.0509 171.518 35.0478 171.507 35.0458C171.12 34.9668 170.112 34.7618 168.761 33.3478C167.513 32.0418 166.104 30.2578 164.364 28.0538C164.034 27.6368 163.693 27.2048 163.338 26.7578C165.85 24.7008 166.63 22.9989 166.63 21.1429C166.63 19.4639 165.641 18.1868 164.937 17.7108C163.586 16.7828 161.911 16.6318 160.351 16.6318C159.968 16.6318 159.314 16.6499 158.648 16.6689C157.959 16.6879 157.257 16.7079 156.831 16.7079C156.625 16.7079 156.264 16.6969 155.822 16.6829C155.124 16.6609 154.222 16.6318 153.406 16.6318C153.026 16.6318 152.854 16.6829 152.854 16.8589C152.854 17.0329 153.007 17.0848 153.273 17.0848C153.635 17.0848 154.053 17.1098 154.262 17.1588C155.081 17.3348 155.271 17.7359 155.328 18.5869ZM158.544 26.3308C158.373 26.2568 158.315 26.1549 158.315 25.8799V18.2618C158.315 18.0608 158.373 17.9619 158.544 17.9099C158.791 17.8349 159.248 17.8109 159.876 17.8109C161.341 17.8109 163.681 18.8389 163.681 22.3969C163.681 24.4509 162.958 25.6048 162.216 26.1548C161.759 26.4818 161.436 26.5818 160.446 26.5818C159.819 26.5818 159.077 26.5068 158.544 26.3308Z" fill="#0B0B0B"/>
<path d="M181.491 18.3539L177.776 18.4518C176.328 18.5018 175.718 18.6238 175.337 19.1668C175.09 19.5358 174.975 19.8309 174.918 20.0279C174.88 20.2249 174.804 20.3218 174.651 20.3218C174.48 20.3218 174.423 20.1999 174.423 19.9279C174.423 19.5359 174.899 17.2958 174.937 17.0988C175.013 16.7798 175.09 16.6318 175.242 16.6318C175.452 16.6318 175.699 16.8778 176.328 16.9258C177.052 17.0008 178.005 17.0498 178.824 17.0498H188.712C190.312 17.0498 190.921 16.8038 191.112 16.8038C191.283 16.8038 191.303 16.9509 191.303 17.3199C191.303 17.8379 191.226 19.5358 191.226 20.1758C191.207 20.4218 191.169 20.5678 191.017 20.5678C190.807 20.5678 190.769 20.4458 190.731 20.0768L190.712 19.8058C190.655 19.1668 189.988 18.4778 187.759 18.4268L184.615 18.3539V28.4428C184.615 30.7068 184.615 32.6508 184.73 33.7068C184.825 34.3978 184.958 34.9378 185.72 35.0378C186.063 35.0868 186.616 35.1349 186.997 35.1349C187.264 35.1349 187.397 35.2098 187.397 35.3318C187.397 35.5048 187.187 35.5779 186.921 35.5779C185.263 35.5779 183.682 35.5049 182.996 35.5049C182.425 35.5049 180.843 35.5779 179.833 35.5779C179.51 35.5779 179.338 35.5048 179.338 35.3318C179.338 35.2098 179.433 35.1349 179.738 35.1349C180.119 35.1349 180.424 35.0868 180.634 35.0378C181.148 34.9378 181.3 34.3978 181.377 33.6848C181.491 32.6508 181.491 30.7068 181.491 28.4428V18.3539Z" fill="#0B0B0B"/>
<path d="M200.844 23.9008C200.844 20.0908 200.844 19.3889 200.791 18.5869C200.756 17.7359 200.525 17.3098 200.011 17.1838C199.745 17.1098 199.443 17.0848 199.177 17.0848C198.929 17.0848 198.805 17.0329 198.805 16.8339C198.805 16.6829 198.982 16.6318 199.354 16.6318C200.241 16.6318 201.696 16.7079 202.37 16.7079C202.955 16.7079 204.338 16.6318 205.207 16.6318C205.526 16.6318 205.704 16.6829 205.704 16.8339C205.704 17.0329 205.562 17.0848 205.331 17.0848C205.101 17.0848 204.906 17.1098 204.64 17.1588C204.001 17.2848 203.824 17.7109 203.771 18.5869C203.735 19.3889 203.735 20.0908 203.735 23.9008V28.3109C203.735 30.7419 203.735 32.7209 203.824 33.7989C203.895 34.4759 204.054 34.9259 204.746 35.0279C205.083 35.0769 205.597 35.1269 205.934 35.1269C206.2 35.1269 206.307 35.2039 206.307 35.3279C206.307 35.5039 206.129 35.5779 205.863 35.5779C204.338 35.5779 202.866 35.5038 202.245 35.5038C201.696 35.5038 200.241 35.5779 199.301 35.5779C199 35.5779 198.84 35.5039 198.84 35.3279C198.84 35.2039 198.929 35.1269 199.213 35.1269C199.567 35.1269 199.833 35.0769 200.046 35.0279C200.525 34.9259 200.649 34.5018 200.72 33.7738C200.844 32.7208 200.844 30.7419 200.844 28.3109V23.9008Z" fill="#0B0B0B"/>
<path d="M216.155 34.9499C215.76 34.7799 215.685 34.6598 215.685 34.1278C215.685 32.7988 215.779 31.3489 215.798 30.9619C215.835 30.5989 215.91 30.3339 216.099 30.3339C216.325 30.3339 216.343 30.5508 216.343 30.7448C216.343 31.0598 216.438 31.5668 216.569 31.9778C217.115 33.7648 218.565 34.4189 220.108 34.4189C222.329 34.4189 223.402 32.9428 223.402 31.6618C223.402 30.4788 223.045 29.3438 220.993 27.7968L219.845 26.9268C217.134 24.8478 216.193 23.1569 216.193 21.1999C216.193 18.5409 218.47 16.6318 221.896 16.6318C223.515 16.6318 224.551 16.8728 225.191 17.0428C225.416 17.0908 225.529 17.1638 225.529 17.3318C225.529 17.6468 225.435 18.3468 225.435 20.2318C225.435 20.7648 225.36 20.9579 225.153 20.9579C224.983 20.9579 224.908 20.8129 224.908 20.5219C224.908 20.3039 224.795 19.5559 224.268 18.9279C223.892 18.4689 223.195 17.7429 221.576 17.7429C219.75 17.7429 218.64 18.7818 218.64 20.2318C218.64 21.3448 219.205 22.1909 221.256 23.7129L221.953 24.2198C224.908 26.4678 226 28.0858 226 30.3818C226 31.7838 225.454 33.4519 223.685 34.5869C222.442 35.3609 221.068 35.5779 219.75 35.5779C218.32 35.5779 217.209 35.4089 216.155 34.9499Z" fill="#0B0B0B"/>
<path d="M15.785 37.472C1.43198 36.41 -2.93299 28.413 1.87601 19.409C4.46601 14.56 8.422 9.344 3.706 4.522C3.58 4.363 3.68497 4.26201 3.88397 4.35001C14.62 8.49701 9.03401 16.871 7.20001 20.34C3.58601 27.176 5.89202 35.479 15.783 37.266C16.002 37.312 15.986 37.489 15.785 37.472Z" fill="#0B0B0B"/>
<path d="M17.2919 29.7553L19.6929 0.535339L14.0659 0.527344L17.093 29.7553C17.109 29.9433 17.2789 29.9383 17.2919 29.7553Z" fill="#0B0B0B"/>
<path d="M23.4751 14.969C26.8541 17.699 32.3661 32.8871 18.9121 37.2641C18.6941 37.3221 18.7111 37.4921 18.9141 37.4711C40.3161 34.7231 32.9631 18.9401 23.6551 14.7811C23.4071 14.6581 23.2881 14.818 23.4751 14.969Z" fill="#0B0B0B"/>
</svg>
