<svg width="174" height="31" viewBox="0 0 174 31" fill="none" xmlns="http://www.w3.org/2000/svg">
<mask id="mask0_33_1373" style="mask-type:alpha" maskUnits="userSpaceOnUse" x="0" y="1" width="19" height="30">
<path fill-rule="evenodd" clip-rule="evenodd" d="M0 1.85938H18.394V30.7784H0V1.85938Z" fill="white"/>
</mask>
<g mask="url(#mask0_33_1373)">
<path fill-rule="evenodd" clip-rule="evenodd" d="M2.88513 4.69038V14.5004L7.88715 14.5594C9.90915 14.5594 11.3891 14.3794 12.3271 14.0204C13.2651 13.6604 14.0021 13.0784 14.5371 12.2734C15.0731 11.4694 15.3401 10.5704 15.3401 9.57538C15.3401 8.60838 15.0731 7.72139 14.5371 6.91739C14.0021 6.11339 13.2942 5.54038 12.4182 5.20038C11.5402 4.86038 10.1031 4.69038 8.10809 4.69038H2.88513ZM-0.0678711 1.85938H5.81812C9.19412 1.85938 11.4701 2.00338 12.6491 2.29138C14.3371 2.69838 15.7161 3.53438 16.7871 4.79738C17.8591 6.06238 18.3941 7.65238 18.3941 9.56538C18.3941 11.4924 17.8721 13.0814 16.8271 14.3334C15.7831 15.5844 14.3421 16.4264 12.5081 16.8594C11.1691 17.1734 8.66512 17.3314 4.99512 17.3314H2.88513V30.7784H-0.0678711V1.85938Z" fill="#0B0B0B"/>
</g>
<path fill-rule="evenodd" clip-rule="evenodd" d="M31.816 7.87721L26.824 18.4032H36.7841L31.816 7.87721ZM32.1841 1.69922L45.7711 30.7772H42.626L38.0431 21.2092H25.493L20.954 30.7772H17.7061L31.4711 1.69922H32.1841Z" fill="#0B0B0B"/>
<path fill-rule="evenodd" clip-rule="evenodd" d="M44.835 1.69922H48.1859L55.6429 13.6922L62.9819 1.69922H66.351L57.1179 16.8812V30.7772H54.2449V16.8812L44.835 1.69922Z" fill="#0B0B0B"/>
<path fill-rule="evenodd" clip-rule="evenodd" d="M72.8989 1.69922H87.8669V4.54622H75.8849V13.6582H87.8669V16.5052H75.8849V30.7772H72.8989V1.69922Z" fill="#0B0B0B"/>
<path fill-rule="evenodd" clip-rule="evenodd" d="M95.3511 1.69922H98.4371V27.9702H110.318V30.7772H95.3511V1.69922Z" fill="#0B0B0B"/>
<path fill-rule="evenodd" clip-rule="evenodd" d="M116.867 1.69922H133.706V4.54622H119.804V13.6582H133.587V16.5052H119.804V27.9312H133.587V30.7772H116.867V1.69922Z" fill="#0B0B0B"/>
<path fill-rule="evenodd" clip-rule="evenodd" d="M139.031 1.69922H142.512L149.642 13.0152L156.814 1.69922H160.248L151.366 15.7502L160.834 30.7772H157.355L149.622 18.5062L141.864 30.7772H138.383L147.896 15.7682L139.031 1.69922Z" fill="#0B0B0B"/>
<path fill-rule="evenodd" clip-rule="evenodd" d="M168.161 3.48872V5.08772H169.484C169.883 5.08772 170.155 5.04173 170.298 4.95073C170.51 4.81973 170.614 4.59573 170.614 4.28273C170.614 4.00773 170.539 3.80772 170.388 3.67972C170.237 3.55272 169.953 3.48872 169.537 3.48872H168.161ZM167.31 2.71272H169.555C170.078 2.71272 170.457 2.76573 170.685 2.87073C170.916 2.97673 171.104 3.14873 171.248 3.38773C171.393 3.62673 171.466 3.90472 171.466 4.22372C171.466 4.49872 171.414 4.73473 171.311 4.93373C171.232 5.08173 171.058 5.24373 170.794 5.41873C171.035 5.53773 171.198 5.67572 171.282 5.83272C171.365 5.99172 171.406 6.26072 171.406 6.64372V7.25273C171.406 7.53873 171.47 7.77772 171.597 7.96872L171.686 8.11172H170.733C170.672 7.88772 170.629 7.62373 170.604 7.31673L170.561 6.65273C170.545 6.40973 170.506 6.23773 170.445 6.13773C170.383 6.03773 170.296 5.96673 170.183 5.92273C170.071 5.87873 169.845 5.85672 169.509 5.85672H168.161V8.11172H167.31V2.71272ZM173.281 5.44873C173.281 4.73273 173.101 4.05873 172.741 3.42873C172.378 2.79773 171.888 2.30172 171.27 1.93872C170.65 1.57672 169.982 1.39572 169.269 1.39572C168.551 1.39572 167.877 1.57672 167.247 1.93872C166.618 2.30172 166.123 2.79773 165.765 3.42873C165.405 4.05873 165.226 4.73673 165.226 5.46173C165.226 6.18273 165.405 6.85472 165.765 7.47972C166.123 8.10472 166.619 8.59773 167.25 8.95973C167.881 9.32273 168.554 9.50273 169.269 9.50273C169.98 9.50273 170.646 9.32173 171.27 8.95673C171.893 8.59273 172.384 8.09873 172.742 7.47673C173.102 6.85273 173.281 6.17773 173.281 5.44873ZM173.931 5.44173C173.931 6.28673 173.722 7.06873 173.306 7.79173C172.889 8.51373 172.317 9.08672 171.591 9.50772C170.864 9.92972 170.086 10.1417 169.256 10.1417C168.427 10.1417 167.65 9.93072 166.922 9.51172C166.196 9.09172 165.623 8.51973 165.205 7.79373C164.787 7.06973 164.576 6.29472 164.576 5.46672C164.576 4.63072 164.787 3.84673 165.205 3.11473C165.623 2.38173 166.195 1.80673 166.92 1.38873C167.644 0.970733 168.424 0.761719 169.256 0.761719C170.09 0.761719 170.868 0.969719 171.587 1.38672C172.308 1.80072 172.879 2.37672 173.3 3.10872C173.721 3.83972 173.931 4.61873 173.931 5.44173Z" fill="#0B0B0B"/>
</svg>
