<svg width="86" height="87" viewBox="0 0 86 87" fill="none" xmlns="http://www.w3.org/2000/svg">
<path d="M42.574 32.5566C43.724 32.5566 44.875 32.5736 46.026 32.5566C46.576 32.5566 47.04 32.7276 47.418 33.1226C47.967 33.7056 48.534 34.2716 49.118 34.8206C49.496 35.1806 49.668 35.5926 49.668 36.1236C49.651 37.5306 49.668 38.9196 49.668 40.3266C49.668 40.7206 49.668 40.7206 49.29 40.7206C48.088 40.7206 46.902 40.7206 45.7 40.7206C45.339 40.7206 45.339 40.7206 45.322 40.3606C45.322 39.4856 45.322 38.5936 45.322 37.7196C45.322 36.9986 45.082 36.7416 44.36 36.7416C43.14 36.7246 41.904 36.7246 40.684 36.7416C39.98 36.7416 39.739 37.0156 39.739 37.7366C39.739 39.0226 39.739 40.3096 39.739 41.6126C39.739 42.1106 39.739 42.1106 40.203 42.2646C42.814 43.1226 45.425 43.9796 48.036 44.8206C49.324 45.2316 49.565 45.5926 49.565 46.9476C49.565 50.0516 49.548 53.1736 49.565 56.2956C49.565 56.8616 49.393 57.2906 48.998 57.6846C48.414 58.2336 47.864 58.8166 47.297 59.3826C46.92 59.7596 46.473 59.9316 45.94 59.9316C43.639 59.9146 41.337 59.9146 39.035 59.9316C38.502 59.9316 38.056 59.7776 37.678 59.3826C37.077 58.7656 36.458 58.1476 35.84 57.5476C35.531 57.2386 35.393 56.8786 35.393 56.4496C35.393 54.9406 35.393 53.4306 35.393 51.9216C35.393 51.5956 35.393 51.5786 35.737 51.5786C36.974 51.5786 38.193 51.5786 39.43 51.5786C39.688 51.5786 39.739 51.6646 39.739 51.9046C39.722 52.8306 39.739 53.7566 39.739 54.6826C39.739 54.8376 39.739 54.9916 39.774 55.1456C39.842 55.4546 40.048 55.6436 40.358 55.6946C40.512 55.7116 40.667 55.7296 40.821 55.7296C41.921 55.7296 43.02 55.7296 44.12 55.7296C44.205 55.7296 44.274 55.7296 44.36 55.7296C44.927 55.6946 45.185 55.4376 45.202 54.8546C45.219 54.2366 45.202 53.6366 45.202 53.0196C45.202 51.6986 45.202 50.3776 45.202 49.0566C45.202 48.6456 45.202 48.6456 44.807 48.5076C42.178 47.6166 39.533 46.7416 36.905 45.8496C36.682 45.7806 36.458 45.7126 36.252 45.5746C35.651 45.1976 35.376 44.6486 35.376 43.9456C35.376 42.3676 35.376 40.8066 35.376 39.2286C35.376 38.1826 35.393 37.1186 35.376 36.0726C35.376 35.6436 35.496 35.2666 35.805 34.9576C36.458 34.3056 37.094 33.6716 37.747 33.0196C38.073 32.6936 38.485 32.5566 38.949 32.5566C40.151 32.5566 41.371 32.5566 42.574 32.5566Z" fill="#0B0B0B"/>
<path d="M28.986 32.5742C29.072 32.7292 29.037 32.9002 29.037 33.0542C29.037 40.9272 29.037 48.8182 29.037 56.6912C29.037 57.1882 28.9 57.6172 28.591 57.9942C27.955 58.7492 27.32 59.5212 26.701 60.2752C26.392 60.6362 26.014 60.8422 25.533 60.9272C23.266 61.3222 20.981 61.7162 18.714 62.1452C18.044 62.2652 17.494 62.1792 16.979 61.6822C16.515 61.2192 15.982 60.8072 15.484 60.3962C15.123 60.0872 14.969 59.7272 14.969 59.2462C14.986 51.3222 14.969 43.3972 14.969 35.4732C14.969 35.0442 14.969 35.0442 15.381 34.9762C16.549 34.7702 17.7 34.5642 18.868 34.3582C18.971 34.3412 19.091 34.3412 19.195 34.3412C19.28 34.5302 19.229 34.7352 19.229 34.9072C19.229 42.1282 19.229 49.3492 19.229 56.5532C19.229 56.7252 19.212 56.8962 19.246 57.0682C19.298 57.4622 19.504 57.6512 19.916 57.6512C20.397 57.6512 20.844 57.5142 21.307 57.4282C22.132 57.2912 22.939 57.1372 23.764 56.9822C24.52 56.8452 24.777 56.5362 24.777 55.7642C24.777 51.5452 24.777 47.3432 24.777 43.1232C24.777 40.0012 24.777 36.8972 24.777 33.7752C24.777 33.2092 24.691 33.3122 25.224 33.2092C26.409 32.9862 27.612 32.7972 28.797 32.5912C28.866 32.5912 28.934 32.5912 28.986 32.5742Z" fill="#0B0B0B"/>
<path d="M54.3931 60.2753C54.5641 59.4013 54.7361 58.5093 54.9081 57.6173C55.5261 54.4433 56.1281 51.2703 56.7461 48.0973C57.3821 44.7693 58.0341 41.4423 58.6701 38.1143C58.8761 37.0173 59.0991 35.9193 59.3051 34.8383C59.5121 33.7583 59.8551 33.5173 60.9371 33.7233C62.4831 33.9983 64.0291 34.2723 65.5751 34.5473C65.6781 34.5643 65.7991 34.5983 65.9021 34.6153C66.1081 34.6153 66.1591 34.7523 66.1941 34.9243C66.4171 36.1593 66.6401 37.3943 66.8641 38.6293C67.3451 41.3393 67.8431 44.0323 68.3241 46.7423C68.7881 49.2633 69.2341 51.7853 69.6981 54.2893C70.1791 56.9993 70.6771 59.6923 71.1581 62.4023C71.2101 62.6943 71.261 62.9853 71.313 63.3283C70.918 63.2603 70.5571 63.1913 70.2131 63.1403C69.3551 62.9853 68.4781 62.8143 67.6201 62.6943C67.3791 62.6603 67.2761 62.5743 67.2241 62.3343C66.9151 60.5673 66.5891 58.8173 66.2801 57.0513C66.2631 56.9653 66.2451 56.8963 66.2281 56.8283C66.2111 56.5703 66.0741 56.5023 65.8331 56.4503C63.9261 56.1243 62.0201 55.7813 60.1301 55.4383C59.6151 55.3533 59.4941 55.4213 59.3911 55.9533C59.0991 57.4793 58.8071 59.0063 58.5151 60.5333C58.4121 61.0643 58.4121 61.0643 57.8801 60.9793C56.7461 60.7903 55.6121 60.5843 54.4961 60.3783C54.4781 60.3443 54.4441 60.3103 54.3931 60.2753ZM62.4321 38.1833C62.3631 38.5773 62.2941 38.9383 62.2431 39.3153C61.6241 43.2433 61.0061 47.1713 60.3881 51.0823C60.3361 51.4253 60.3361 51.4253 60.6451 51.4763C61.5211 51.6303 62.415 51.7853 63.291 51.9393C63.789 52.0253 64.2871 52.1113 64.7851 52.1963C65.1801 52.2653 65.3011 52.1623 65.2661 51.7513C65.2491 51.6133 65.2321 51.4763 65.2151 51.3223C64.9741 49.7783 64.7341 48.2513 64.4931 46.7083C64.0811 44.0833 63.686 41.4593 63.274 38.8353C63.17 38.1833 63.1701 38.1833 62.5011 38.1313C62.5011 38.1663 62.4831 38.1833 62.4321 38.1833Z" fill="#0B0B0B"/>
<path d="M30.0859 83.5162C43.9659 87.5992 57.76 84.5802 67.946 76.8102C79.266 68.1652 84.7119 56.5362 85.0039 42.6592C85.2789 45.4212 85.2269 48.4572 84.8489 51.4932C83.8869 59.1082 81.139 65.9872 76.312 71.9732C71.038 78.5252 64.2869 82.8652 56.1789 85.0942C53.8599 85.7292 51.4899 86.1412 49.0849 86.3472C46.8859 86.5352 44.6869 86.5702 42.4879 86.3982C38.3659 86.0892 34.38 85.2142 30.515 83.7392C30.361 83.6882 30.2059 83.6542 30.0859 83.5162Z" fill="#0B0B0B"/>
<path d="M0.968946 44.6662C0.762946 42.5222 0.745949 40.3952 0.865949 38.2512C1.05495 35.2152 1.53594 32.2312 2.41194 29.3152C5.69294 18.3202 12.341 10.0872 22.63 4.87322C26.152 3.08922 29.8969 1.93922 33.8129 1.30522C36.4929 0.876222 39.1899 0.687238 41.9039 0.790238C46.4389 0.962238 50.8189 1.81923 55.0799 3.39723C55.2859 3.46623 55.4919 3.51722 55.7319 3.72322C46.9199 1.20222 38.211 1.30523 29.622 4.27223C21.033 7.25723 14.059 12.4882 8.80195 19.8982C3.52895 27.2742 1.03795 35.5932 0.968946 44.6662Z" fill="#0B0B0B"/>
<path d="M77.91 54.4948C82.067 39.7098 76.913 26.5358 69.08 18.4748C61.625 10.8078 52.452 7.1538 41.75 7.0338C41.819 7.1028 41.836 7.13679 41.853 7.13679C43.468 6.81079 45.1 6.8628 46.749 6.9138C48.759 6.9828 50.768 7.20581 52.744 7.61681C63.257 9.88081 71.279 15.5588 76.449 25.0438C78.305 28.4398 79.438 32.0938 80.022 35.9188C80.418 38.4568 80.521 41.0128 80.366 43.5858C80.143 47.2388 79.404 50.7728 78.116 54.1858C78.064 54.2888 78.047 54.3918 77.91 54.4948Z" fill="#0B0B0B"/>
<path d="M8.01192 32.6426C4.90292 44.5116 6.72391 55.4726 14.0239 65.4376C21.6169 75.1806 31.6829 79.9316 43.9479 80.1716C44.0169 80.1546 43.9819 80.0346 43.9819 80.1026C43.9819 80.1206 43.9819 80.1376 43.9819 80.1376C43.8279 80.1206 43.6899 80.0686 43.5359 80.1886C43.3979 80.2916 43.2269 80.2576 43.0719 80.2576C40.8559 80.3946 38.6399 80.3436 36.4239 80.1026C31.3049 79.5366 26.4949 78.0106 22.0809 75.3516C14.1959 70.6176 9.07692 63.7736 6.67192 54.9236C5.70992 51.4066 5.38392 47.8226 5.55492 44.1856C5.72692 40.3776 6.48292 36.6726 7.80592 33.1056C7.85692 32.9676 7.90892 32.8476 7.95992 32.7106C7.97792 32.6766 7.99492 32.6426 8.01192 32.6426Z" fill="#0B0B0B"/>
<path d="M58.9789 21.013C59.1159 20.825 59.1509 20.67 59.2019 20.533C59.4769 19.761 59.7689 19.0059 60.0439 18.2349C60.1129 18.0289 60.2159 17.943 60.4559 17.943C60.9719 17.96 61.4869 17.943 62.0189 17.943C62.3459 17.943 62.3459 17.943 62.3459 18.286C62.3459 19.59 62.3459 20.893 62.3459 22.197C62.3459 24.101 62.3459 26.005 62.3459 27.909C62.3459 28.011 62.3459 28.131 62.3459 28.234C62.3459 28.372 62.2939 28.44 62.1399 28.44C61.6589 28.44 61.1949 28.44 60.7139 28.44C60.5589 28.44 60.4729 28.389 60.4729 28.217C60.4729 28.114 60.4729 27.994 60.4729 27.891C60.4729 26.073 60.4729 24.238 60.4729 22.42C60.3189 22.368 60.3359 22.505 60.3019 22.574C60.0439 23.243 59.7859 23.929 59.5629 24.598C59.4769 24.873 59.3399 24.975 59.0479 24.941C58.9789 24.924 58.8929 24.924 58.8069 24.941C58.5839 24.975 58.4979 24.855 58.4289 24.684C58.2059 24.049 57.9649 23.415 57.7249 22.78C57.6729 22.643 57.6729 22.471 57.4669 22.334C57.4669 22.505 57.4669 22.643 57.4669 22.763C57.4669 24.512 57.4669 26.245 57.4669 27.994C57.4669 28.423 57.4669 28.423 57.0209 28.423C56.6429 28.423 56.2649 28.423 55.8869 28.423C55.6979 28.423 55.5949 28.3719 55.5949 28.1659C55.5949 28.0799 55.5949 27.977 55.5949 27.891C55.5949 24.752 55.5949 21.596 55.5949 18.457C55.5949 17.874 55.5429 17.943 56.1449 17.943C56.4709 17.943 56.8139 17.943 57.1409 17.943C57.7939 17.943 57.8109 17.96 58.0339 18.543C58.3599 19.349 58.6699 20.156 58.9789 21.013Z" fill="#0B0B0B"/>
<path d="M43.021 28.457C43.141 27.805 43.244 27.205 43.364 26.605C43.862 24.032 44.36 21.459 44.841 18.886C45.013 18.011 45.065 17.96 45.941 17.96C46.422 17.96 46.92 17.977 47.401 17.96C47.641 17.96 47.727 18.029 47.762 18.269C48.054 19.864 48.38 21.442 48.689 23.02C49.016 24.667 49.342 26.313 49.634 27.96C49.72 28.474 49.823 28.44 49.239 28.44C48.947 28.44 48.672 28.44 48.38 28.44C47.933 28.44 47.933 28.44 47.848 27.994C47.762 27.497 47.641 27.016 47.573 26.519C47.538 26.279 47.435 26.21 47.212 26.21C46.662 26.227 46.113 26.21 45.563 26.21C45.219 26.21 45.185 26.245 45.116 26.571C45.013 27.085 44.927 27.582 44.824 28.097C44.755 28.44 44.755 28.44 44.395 28.44C43.982 28.457 43.536 28.457 43.021 28.457ZM45.563 24.512C46.009 24.512 46.422 24.512 46.817 24.512C47.16 24.512 47.16 24.512 47.109 24.169C46.92 22.78 46.714 21.408 46.508 20.018C46.49 19.898 46.508 19.727 46.353 19.71C46.181 19.692 46.216 19.881 46.181 19.984C46.164 20.035 46.164 20.07 46.164 20.121C46.044 20.979 45.924 21.836 45.803 22.677C45.717 23.294 45.649 23.878 45.563 24.512Z" fill="#0B0B0B"/>
<path d="M32.4561 23.1574C32.4561 21.5624 32.4561 19.9844 32.4561 18.3884C32.4561 17.9424 32.4561 17.9424 32.8681 17.9424C34.1561 17.9424 35.4451 17.9424 36.7331 17.9424C37.1111 17.9424 37.1111 17.9424 37.1111 18.3374C37.1111 18.6804 37.1281 19.0234 37.1281 19.3664C37.1281 19.7434 37.1281 19.7434 36.7331 19.7434C36.0631 19.7434 35.3761 19.7434 34.7061 19.7434C34.3111 19.7434 34.3111 19.7434 34.3111 20.1384C34.3111 20.7554 34.3111 21.3564 34.3111 21.9734C34.3111 22.3164 34.3111 22.3164 34.6371 22.3164C35.0501 22.3164 35.4621 22.3164 35.8571 22.3164C36.0461 22.3164 36.1151 22.3854 36.0981 22.5564C36.0801 22.9684 36.0801 23.3804 36.0981 23.7744C36.0981 23.9804 36.0121 24.0144 35.8401 24.0144C35.4101 24.0144 34.9811 24.0144 34.5691 24.0144C34.3801 24.0144 34.2771 24.0494 34.2771 24.2724C34.2941 24.9584 34.2941 25.6614 34.2771 26.3474C34.2771 26.5534 34.3631 26.6224 34.5521 26.6224C35.2731 26.6224 35.9941 26.6224 36.7161 26.6224C37.0771 26.6224 37.0771 26.6224 37.0941 26.9824C37.0941 27.3764 37.0941 27.7714 37.0941 28.1654C37.0941 28.3714 37.0251 28.4404 36.8191 28.4404C35.4451 28.4404 34.0881 28.4234 32.7131 28.4404C32.4391 28.4404 32.4041 28.3204 32.4041 28.0974C32.4211 27.5654 32.4041 27.0334 32.4041 26.5014C32.4561 25.3874 32.4561 24.2724 32.4561 23.1574Z" fill="#0B0B0B"/>
<path d="M22.9059 24.135C22.9059 22.831 22.9059 21.528 22.9059 20.224C22.9059 19.778 22.9059 19.778 22.4589 19.778C22.2019 19.778 21.9609 19.778 21.7029 19.778C21.5489 19.778 21.4799 19.71 21.4799 19.555C21.4799 19.109 21.4799 18.68 21.4629 18.234C21.4629 18.029 21.5319 17.96 21.7379 17.96C22.7679 17.977 23.7819 17.977 24.8129 17.977C25.1909 17.977 25.5679 17.994 25.9459 17.994C26.0839 17.994 26.1869 18.029 26.1869 18.2C26.1869 18.663 26.1869 19.109 26.1869 19.572C26.1869 19.744 26.1179 19.795 25.9639 19.795C25.6539 19.795 25.3279 19.795 25.0189 19.795C24.8299 19.795 24.7609 19.864 24.7779 20.035C24.7949 20.138 24.7779 20.258 24.7779 20.361C24.7779 22.866 24.7779 25.353 24.7779 27.857C24.7779 27.96 24.7609 28.08 24.7779 28.183C24.7949 28.423 24.6749 28.474 24.4689 28.474C24.0569 28.457 23.6439 28.457 23.2489 28.474C23.0089 28.474 22.9059 28.423 22.9229 28.166C22.9399 27.823 22.9229 27.48 22.9229 27.137C22.9229 26.107 22.9229 25.13 22.9059 24.135C22.9229 24.135 22.9229 24.135 22.9059 24.135Z" fill="#0B0B0B"/>
</svg>
