<svg width="201" height="27" viewBox="0 0 201 27" fill="none" xmlns="http://www.w3.org/2000/svg">
<path fill-rule="evenodd" clip-rule="evenodd" d="M44.959 6.50391L45.772 11.3809H45.3201C44.6881 8.34392 41.9731 7.05591 39.0781 7.05591C38.6261 7.05591 38.1741 7.0559 37.5411 7.2399V15.6139H38.626C40.978 15.6139 42.425 14.6939 42.425 12.7619H42.8781V19.5719H42.5171C42.3351 18.0999 41.793 16.2589 38.717 16.2589H37.5411V23.9899C37.5411 25.2779 38.083 26.0139 39.983 26.0139V26.4739H31.9321V26.0139C33.7421 26.0139 34.3741 25.2779 34.3741 23.9899V8.98792C34.3741 7.79192 33.652 6.9639 31.842 6.9639V6.50391H44.959Z" fill="#0B0B0B"/>
<path fill-rule="evenodd" clip-rule="evenodd" d="M61.8751 6.50391L62.6891 11.3809H62.2361C61.6031 8.34392 58.8891 7.05591 55.9951 7.05591C55.5431 7.05591 55.09 7.0559 54.457 7.2399V15.6139H55.5431C57.8951 15.6139 59.342 14.6939 59.342 12.7619H59.7941V19.5719H59.4321C59.2511 18.0999 58.7081 16.2589 55.6331 16.2589H54.457V23.9899C54.457 25.2779 55.0001 26.0139 56.9001 26.0139V26.4739H48.8491V26.0139C50.6571 26.0139 51.2911 25.2779 51.2911 23.9899V8.98792C51.2911 7.79192 50.5671 6.9639 48.7581 6.9639V6.50391H61.8751Z" fill="#0B0B0B"/>
<path fill-rule="evenodd" clip-rule="evenodd" d="M27.8619 6.50391V6.9639C26.4409 6.9639 25.5879 7.69992 25.5879 8.98792V23.9899C25.5879 25.3709 26.5349 26.0139 27.8619 26.0139V26.4739H19.9009V26.0139C21.3229 25.9219 22.1769 25.3709 22.1769 23.9899V8.98792C22.1769 7.69992 21.3229 6.9639 19.9009 6.9639V6.50391H27.8619Z" fill="#0B0B0B"/>
<path fill-rule="evenodd" clip-rule="evenodd" d="M19.057 1.51172L19.901 7.39072H19.526C18.306 4.31572 16.146 2.23471 11.922 2.23471V23.0377C11.922 25.2987 13.236 26.0217 14.644 26.0217V26.4747H5.25702V26.0217C6.57202 26.0217 8.16699 25.2987 8.16699 23.0377V2.23471C3.84799 2.23471 1.877 4.13472 0.375 7.39072H0L0.656006 1.51172H19.057Z" fill="#0B0B0B"/>
<path fill-rule="evenodd" clip-rule="evenodd" d="M129.202 19.8608C129.202 22.8998 131.261 25.1338 134.263 25.1338C135.55 25.1338 137.094 24.5078 138.123 23.1678L132.119 15.1248C130.66 15.6608 129.202 17.2698 129.202 19.8608ZM137.437 7.88678C137.43 5.40278 136.399 4.13278 134.349 4.13278C132.289 4.13278 131.089 5.38479 131.089 7.43979C131.089 9.76379 134.091 12.9808 134.091 12.9808C136.493 11.5508 137.437 10.1218 137.437 7.88678ZM134.52 13.5168L139.667 20.2198C139.667 20.2198 140.182 19.1468 140.268 18.0748C140.268 16.8228 139.667 16.3758 138.638 16.1988V15.8408H144.213C144.213 15.8408 144.3 16.1988 144.213 16.1988C143.185 16.3758 142.412 16.7338 141.64 17.3598C141.04 18.1638 140.697 18.8788 140.011 20.6668L142.412 23.7048C143.442 24.9558 144.814 25.6708 146.272 25.7598V26.2068H140.268V25.7598L138.552 23.6148C137.094 25.1348 134.777 26.4748 132.462 26.4748C128.773 26.4748 126.371 24.3298 126.371 21.3818C126.371 18.1638 129.288 16.1088 131.604 14.4998C131.604 14.4998 129.116 11.5508 129.116 8.87079C129.116 5.83179 131.346 3.50879 134.435 3.50879C137.18 3.50879 139.325 5.5638 139.325 8.0658C139.325 10.9248 136.151 12.1758 134.52 13.5168Z" fill="#0B0B0B"/>
<path fill-rule="evenodd" clip-rule="evenodd" d="M175.403 0.512695L175.673 8.52271H175.223C174.413 4.0117 171.532 1.43369 167.839 1.43369C163.427 1.43369 160.366 6.6807 160.366 13.6777C160.366 22.4227 163.787 26.0137 168.47 26.0137C173.332 26.0137 175.223 21.4107 175.673 18.0957H176.124V21.5937C175.314 23.0677 172.883 26.4737 167.749 26.4737C161.265 26.4737 156.223 21.0417 156.223 13.7687C156.223 7.14171 161.896 1.0657 167.749 1.0657C171.171 1.0657 172.072 2.5387 173.423 2.5387C174.413 2.5387 174.863 1.8937 174.953 0.512695H175.403Z" fill="#0B0B0B"/>
<path fill-rule="evenodd" clip-rule="evenodd" d="M199.01 22.4805C200.1 22.4805 201 23.4034 201 24.5294C201 25.6554 200.1 26.4755 199.01 26.4755C197.91 26.4755 197.02 25.6554 197.02 24.5294C197.02 23.4034 197.91 22.4805 199.01 22.4805Z" fill="#0B0B0B"/>
<path fill-rule="evenodd" clip-rule="evenodd" d="M180.174 16.2159C180.174 22.3529 182.464 26.1089 186.075 26.1089C189.773 26.1089 192.063 22.6269 192.063 16.2159C192.063 10.3519 190.037 7.05492 186.162 6.96292C182.2 6.87192 180.174 10.8099 180.174 16.2159ZM185.986 6.50391C191.436 6.51491 196.03 10.8179 196.03 16.5809C196.03 22.1689 191.71 26.4739 186.162 26.4739C180.702 26.4739 176.124 21.9859 176.124 16.5809C176.124 11.1769 180.615 6.50391 185.986 6.50391Z" fill="#0B0B0B"/>
<path fill-rule="evenodd" clip-rule="evenodd" d="M69.744 9.74783L73.091 17.9338H66.487L69.744 9.74783ZM80.599 25.0158C79.876 25.0158 79.333 24.3728 78.971 23.9128C78.7 23.4528 71.101 4.50684 71.101 4.50684L64.135 21.7968C63.322 24.0038 62.236 25.0158 60.698 25.0158V25.4759H66.397V25.0158C65.221 24.9238 64.498 24.3729 64.498 23.5439C64.498 22.9009 66.306 18.4858 66.306 18.4858H73.182C73.182 18.4858 75.081 22.6259 75.172 23.5439C75.262 24.2799 74.176 25.0158 73.091 25.0158V25.4759H80.599V25.0158Z" fill="#0B0B0B"/>
<path fill-rule="evenodd" clip-rule="evenodd" d="M83.5341 22.6789C83.5341 24.4859 82.3421 25.2989 81.0571 25.6599V26.1119H86.8351V25.6599C85.1851 25.2989 84.2681 24.2149 84.2681 22.6789V9.93692L97.7491 26.4739V10.5699C97.7491 8.30992 99.0321 6.9559 100.5 6.9559V6.50391H93.9881V6.8649C95.8231 7.4079 97.1071 8.49092 97.1071 10.5699V20.3289L85.9191 6.50391H80.5991V6.8649C82.8921 6.9559 83.5341 8.85289 83.5341 9.30389V22.6789Z" fill="#0B0B0B"/>
<path fill-rule="evenodd" clip-rule="evenodd" d="M100.5 6.9639C101.352 6.9639 101.556 6.96892 102.222 8.16092C102.222 8.16092 108.632 18.0069 108.632 18.0999V23.9899C108.632 25.2779 107.485 26.0139 105.762 26.1069V26.4739H114.66V26.1069C113.034 26.0139 111.982 25.2779 111.982 23.9899V17.0869C111.982 17.0869 116.096 10.0009 116.478 9.3559C117.435 7.8849 118.775 6.96391 120.401 6.77991V6.50391H113.129L113.226 6.77991C115.522 6.77991 116.096 8.89691 115.235 10.1849L111.503 16.8109L106.911 9.0799C106.144 7.88489 107.102 6.77991 108.824 6.77991V6.50391H100.5V6.9639Z" fill="#0B0B0B"/>
</svg>
