<svg width="121" height="44" viewBox="0 0 121 44" fill="none" xmlns="http://www.w3.org/2000/svg">
<path fill-rule="evenodd" clip-rule="evenodd" d="M106.384 13.6394C106.384 10.4641 108.397 8.63679 111.54 8.63679C114.987 8.63679 117.092 10.7037 117.489 15.4367H119.381L119.198 8.78658C117.337 7.73816 114.133 6.98926 111.997 6.98926C106.628 6.98926 102.295 9.56544 102.295 15.5266C102.295 17.5636 103.028 19.4807 104.584 21.0084C106.323 22.686 108.794 23.5847 110.045 24.004C113.889 25.2621 116.421 26.5503 116.421 29.5458C116.421 33.0207 114.499 35.2973 111.021 35.2973C106.689 35.2973 104.217 32.6013 104.065 27.4489H102.173L102.417 35.1175C104.675 36.4056 108.428 36.9448 110.838 36.9448C117.245 36.9149 120.876 33.47 120.998 28.3775C121.059 25.6516 120.113 23.4948 118.374 21.8772C116.787 20.3794 114.469 19.5406 112.638 18.9116C109.557 17.8931 106.384 16.5151 106.384 13.6394ZM70.23 26.8503C70.23 35.837 65.226 36.9154 60.223 36.9154C51.619 36.9154 49.788 32.6018 49.788 26.431V9.02677H46.615V7.34924H58.636V9.02677H55.219V25.9217C55.219 31.8829 56.805 34.8485 61.168 34.8485C65.623 34.8485 67.789 32.6917 67.789 26.4909V9.02677H64.585V7.34924H73.128V9.02677H70.23V26.8503ZM78.406 34.9084V9.02677H75.294V7.34924H88.627C94.302 7.34924 97.109 10.4946 97.109 14.1791C97.109 18.1033 93.478 20.32 90.244 20.979C96.529 21.5482 98.238 25.5023 98.238 28.408C98.238 34.3392 93.081 36.5859 88.017 36.5859H75.081V34.9084H78.406ZM87.101 9.02665C90.244 9.02665 91.678 11.7826 91.678 14.5085C91.678 17.5041 90.061 20.26 86.735 20.26H83.715V9.02665H87.101ZM92.746 28.4083C92.746 24.5141 91.037 21.9079 87.04 21.9079H83.715V34.9087H86.4C90.641 34.9087 92.746 32.4523 92.746 28.4083Z" fill="#0B0B0B"/>
<path fill-rule="evenodd" clip-rule="evenodd" d="M31.72 13.3561L32.507 12.6971L33.424 15.6847L36.352 13.3123L35.565 12.3457L34.517 13.1804L33.73 12.2138L34.779 11.2912L33.992 10.3685L32.944 11.1595L32.157 10.2368L34.473 8.43545C34.211 7.68862 33.73 7.07344 33.075 6.63408L20.972 16.5634V0.219657C20.622 0.0878012 20.229 0 19.88 0C19.487 0 19.093 0.0878012 18.744 0.219657V3.2073H17.52V1.84529H16.297V3.2073H15.03V1.84529H13.763V5.62366L16.646 4.48133V5.49174L13.981 6.54628L16.646 7.64473V8.69905L13.763 7.46894V11.2034H15.03V9.92919H16.297V11.2034H17.52V9.92919H18.744V16.5634L6.64099 6.6341C5.94199 7.07346 5.46098 7.68862 5.24298 8.43547L7.51501 10.2368L6.77197 11.1595L5.724 10.3685L4.93701 11.2912L5.98602 12.2138L5.15601 13.1804L4.151 12.3457L3.36401 13.3123L6.29199 15.6847L7.20898 12.6971L7.99597 13.3561L7.16602 16.0802L9.65601 14.7182L10.442 15.3773L7.73297 16.8709L10.617 19.2434L11.404 18.1891L10.399 17.3542L11.185 16.4316L12.234 17.2664L13.02 16.2558L11.971 15.4211L12.758 14.4107L18.132 18.892L13.02 23.0218L12.103 21.8794C11.447 21.9674 10.879 22.4068 10.661 23.0218L11.578 24.208L11.054 24.6033C9.78702 23.4611 8.12703 22.7143 6.37903 22.7143C2.79603 22.7143 0 25.658 0 29.2604C0 30.4466 0.35003 31.721 0.91803 32.7754L0 33.5222C0.087 34.2254 0.743004 34.9722 1.354 35.1478L2.31598 34.4009C3.53898 35.6312 5.24302 36.2899 6.94702 36.2899C10.53 36.2899 13.326 33.4344 13.326 29.7879C13.326 28.6017 13.02 27.3714 12.408 26.3607L12.976 25.8777L13.894 27.1076C14.549 27.0198 15.117 26.5804 15.336 25.8777L14.375 24.7792L18.744 21.1765V26.8879H17.258C17.083 27.1517 16.996 27.4592 16.996 27.8108C16.996 28.1183 17.083 28.4698 17.258 28.7332H18.744V29.4801C15.554 29.9635 13.064 32.6434 13.064 35.8947C13.064 39.2777 15.554 41.9576 18.744 42.4848V43.6274C19.093 43.8029 19.53 43.9349 19.924 43.9349C20.273 43.9349 20.666 43.8029 20.972 43.6274V42.4848C24.162 41.9576 26.739 39.2777 26.739 35.8947C26.739 32.6434 24.118 29.9635 20.972 29.4364V28.7332H22.457C22.589 28.4698 22.72 28.1183 22.72 27.8108C22.72 27.4592 22.589 27.1517 22.414 26.932L20.972 26.8879V21.1765L25.298 24.7792L24.38 25.8777C24.555 26.5804 25.123 27.0198 25.778 27.1076L26.696 25.8777L27.22 26.3607C26.696 27.3714 26.346 28.6017 26.346 29.7879C26.346 33.4344 29.142 36.2899 32.725 36.2899C34.473 36.2899 36.133 35.6312 37.4 34.4009L38.318 35.1478C38.973 34.9722 39.628 34.2253 39.672 33.5222L38.711 32.7753C39.366 31.721 39.672 30.4466 39.672 29.2603C39.672 25.658 36.876 22.7142 33.293 22.7142C31.589 22.7142 29.929 23.4611 28.662 24.6032L28.094 24.1643L29.011 23.0217C28.749 22.4068 28.269 21.9235 27.613 21.8794L26.696 23.0217L21.584 18.892L26.958 14.4107L27.744 15.4211L26.696 16.2558L27.482 17.2664L28.531 16.4316L29.317 17.3542L28.269 18.1891L29.055 19.2434L31.982 16.8709L29.23 15.3772L30.06 14.7182L32.55 16.0802L31.72 13.3561ZM9.48102 32.4683C8.56302 32.3805 7.77698 31.7215 7.77698 30.6667C7.77698 29.6565 8.60699 28.9096 9.56799 28.9096C10.617 28.9096 11.316 29.7883 11.316 30.7986C11.316 32.5561 9.35002 34.5333 6.90302 34.5333C5.72302 34.5333 4.58698 34.1817 3.66998 33.3907L4.63098 32.6439C4.45598 31.897 3.932 31.238 3.276 30.9305L2.315 31.6774C1.966 31.0183 1.79102 30.2715 1.79102 29.4805C1.79102 26.7569 3.88799 24.6919 6.02899 24.6919C7.12099 24.6919 7.995 25.4387 7.995 26.5809C7.995 27.5037 7.12098 28.2943 6.20398 28.2943C5.32998 28.2943 4.5 27.5037 4.5 26.625C4.5 26.4931 4.50001 26.3612 4.54401 26.1856L2.97101 27.4155C3.23301 28.7777 4.41197 30.0958 5.81097 30.0958C5.84997 30.0958 5.88901 30.0869 5.93201 30.0771C5.98501 30.0651 6.04403 30.0518 6.11603 30.0518L6.09003 30.1308C6.01203 30.3614 5.94202 30.5708 5.94202 30.8864C5.94202 31.9848 6.90299 33.2589 7.95099 33.6545L9.48102 32.4683ZM20.754 34.4453C20.754 35.4119 21.54 36.2024 22.457 36.2024C23.062 36.2024 23.332 35.9781 23.748 35.6325C23.76 35.6223 23.773 35.6121 23.785 35.6017C23.808 35.5826 23.832 35.5632 23.856 35.5434V37.5205C23.375 37.7843 22.894 37.9158 22.37 37.9158C21.322 37.9158 20.448 37.6083 19.88 36.6859C19.268 37.6083 18.394 37.9158 17.345 37.9158C16.865 37.9158 16.341 37.7843 15.86 37.5205V35.5434C16.297 35.9828 16.646 36.2024 17.258 36.2024C18.219 36.2024 18.962 35.4119 18.962 34.4453C18.962 33.5225 18.351 32.6879 17.345 32.6879C15.554 32.6879 14.812 34.4012 14.812 35.9827C14.812 38.3115 16.515 40.2883 18.744 40.6839V39.4977C19.093 39.3217 19.487 39.278 19.836 39.278C20.229 39.278 20.622 39.3217 20.972 39.4977V40.6839C23.026 40.3765 24.904 38.1796 24.904 35.9827C24.904 34.3572 24.249 32.6879 22.37 32.6879C21.409 32.6879 20.754 33.5225 20.754 34.4453ZM33.468 28.2942C32.551 28.2942 31.633 27.4596 31.633 26.5808C31.633 25.4387 32.594 24.6919 33.687 24.6919C36.264 24.6919 37.881 27.3718 37.881 29.4805C37.881 30.2715 37.663 31.0183 37.313 31.6774L36.352 30.9305C35.653 31.238 35.216 31.897 34.997 32.6439L35.958 33.3907C35.085 34.1817 33.949 34.5333 32.769 34.5333C29.842 34.5333 28.312 32.1167 28.312 30.8427C28.312 29.7883 29.055 28.9096 30.06 28.9096C31.021 28.9096 31.895 29.6565 31.895 30.6667C31.895 31.7215 31.109 32.3805 30.147 32.4683L31.677 33.6545C32.725 33.2588 33.687 31.9848 33.687 30.8864C33.687 30.5352 33.643 30.3155 33.555 30.0517C35.085 30.2273 36.395 28.9096 36.657 27.4155L35.128 26.1855C35.128 26.2796 35.141 26.3612 35.153 26.4369C35.163 26.5025 35.172 26.5637 35.172 26.625C35.172 27.5037 34.342 28.2942 33.468 28.2942Z" fill="#0B0B0B"/>
</svg>
