<svg preserveAspectRatio="none" width="100%" height="100%" overflow="visible" style="display: block;" viewBox="0 0 330.623 546.194" fill="none" xmlns="http://www.w3.org/2000/svg">
<g id="Mask group">
<mask id="mask0_0_291" style="mask-type:luminance" maskUnits="userSpaceOnUse" x="0" y="0" width="331" height="547">
<g id="Group">
<path id="Vector" d="M0 0H330.623V546.194H0V0Z" fill="var(--fill-0, white)"/>
<path id="Vector_2" d="M0.605536 5.44983C0.605536 4.16504 1.11592 2.93288 2.0244 2.0244C2.93288 1.11592 4.16504 0.605536 5.44983 0.605536H325.173C326.458 0.605536 327.69 1.11592 328.598 2.0244C329.507 2.93288 330.017 4.16504 330.017 5.44983V540.744C330.017 542.029 329.507 543.261 328.598 544.169C327.69 545.078 326.458 545.588 325.173 545.588H5.44983C4.16504 545.588 2.93288 545.078 2.0244 544.169C1.11592 543.261 0.605536 542.029 0.605536 540.744V5.44983Z" fill="var(--fill-0, black)"/>
</g>
</mask>
<g mask="url(#mask0_0_291)">
<path id="Vector_3" d="M5.44983 0.605536V1.21107H325.173V0H5.44983V0.605536ZM330.017 5.44983H329.412V540.744H330.623V5.44983H330.017ZM325.173 545.588V544.983H5.44983V546.194H325.173V545.588ZM0.605536 540.744H1.21107V5.44983H0V540.744H0.605536ZM5.44983 545.588V544.983C4.32564 544.983 3.2475 544.536 2.45258 543.741C1.65765 542.946 1.21107 541.868 1.21107 540.744H0C0 542.189 0.574177 543.576 1.59622 544.598C2.61826 545.62 4.00444 546.194 5.44983 546.194V545.588ZM330.017 540.744H329.412C329.412 541.868 328.965 542.946 328.17 543.741C327.375 544.536 326.297 544.983 325.173 544.983V546.194C326.618 546.194 328.005 545.62 329.027 544.598C330.049 543.576 330.623 542.189 330.623 540.744H330.017ZM325.173 0.605536V1.21107C326.297 1.21107 327.375 1.65765 328.17 2.45258C328.965 3.2475 329.412 4.32564 329.412 5.44983H330.623C330.623 4.00444 330.049 2.61826 329.027 1.59622C328.005 0.574176 326.618 0 325.173 0V0.605536ZM5.44983 0.605536V0C4.00444 0 2.61826 0.574176 1.59622 1.59622C0.574177 2.61826 0 4.00444 0 5.44983H1.21107C1.21107 4.32564 1.65765 3.2475 2.45258 2.45258C3.2475 1.65765 4.32564 1.21107 5.44983 1.21107V0.605536Z" fill="var(--fill-0, #191711)" fill-opacity="0.08"/>
</g>
</g>
</svg>
