<svg preserveAspectRatio="xMidYMid meet" width="1704" height="602.63" overflow="visible" style="display: block;" viewBox="0 0 1704 602.63" fill="none" xmlns="http://www.w3.org/2000/svg">
<g id="div.framer-hk1gr:mask">
<g id="image fill" clip-path="url(#clip0_0_12)">
<g id="image" clip-path="url(#clip1_0_12)">
<g id="Group">
<path id="Vector" d="M1584.15 536.632C1584.15 513.046 1589.95 496.442 1601.55 486.884C1613.14 477.325 1627 472.545 1643.11 472.545C1659.86 472.545 1674.03 477.325 1685.62 486.884C1697.88 496.442 1703.99 513.046 1703.99 536.632C1703.99 559.594 1697.88 576.177 1685.62 586.359C1674.03 596.583 1659.86 601.674 1643.11 601.674C1627 601.674 1613.14 596.583 1601.55 586.359C1589.95 576.177 1584.15 559.594 1584.15 536.632ZM1004.94 588.292V430.444L1175.03 234.361H1011.7V14.3384H1518.13V172.186L1348.05 368.269H1528.77V588.292H1004.94ZM533.437 588.292V14.3384H985.763V186.524H770.229V215.222H947.091V387.408H770.229V416.106H985.763V588.292H533.437ZM296.708 602.63C116.958 602.63 0.00586207 462.009 0.00586207 301.315C0.00586207 136.797 119.846 0 297.664 0C372.099 0 436.829 21.0505 499.669 60.263V286C460.041 246.787 398.178 210.443 345.999 210.443C268.675 210.443 239.686 260.191 239.686 299.403C239.686 344.351 272.54 387.408 339.224 387.408C398.178 387.408 450.378 359.666 499.669 317.586V543.323C437.806 579.668 374.987 602.63 296.708 602.63Z" fill="#f7f7f7"/>
</g>
</g>
</g>
</g>
<defs>
<clipPath id="clip0_0_12">
<rect width="1704" height="602.63" fill="white"/>
</clipPath>
<clipPath id="clip1_0_12">
<rect width="1703.99" height="602.63" fill="white" transform="translate(0.00586207)"/>
</clipPath>
</defs>
</svg>
